<svg version="1.2" xmlns="http://www.w3.org/2000/svg" viewBox="0 0 512 512" width="512" height="512">
	<title>closure</title>
	<style>
		.s0 { fill: #000000 } 
	</style>
	<filter id="f0">
		<feFlood flood-color="#ffffff" flood-opacity="1" />
		<feBlend mode="normal" in2="SourceGraphic"/>
		<feComposite in2="SourceAlpha" operator="in" />
	</filter>
	<g id="Folder 1" filter="url(#f0)">
		<path class="s0" d="m105.2 22.7c1.7 0 1.7 0 3.3 0q1.8 0 3.7 0 1.9 0 3.8 0 5.4 0 10.7 0 5.7 0 11.4 0 11.2 0 22.5 0 9.1 0 18.2 0 25.9-0.1 51.7-0.1 1.4 0 2.8 0c1.4 0 1.4 0 2.8 0q22.7 0 45.3 0 23.2-0.1 46.4-0.1 13 0 26.1 0 11.1 0 22.2 0 5.7 0 11.3 0 6.2 0 12.3 0c1.8 0 1.8 0 3.6 0q1.7 0 3.3 0c1.5 0 1.5 0 2.9 0 3.2 0.6 4.4 2 6.5 4.5 1.4 2.8 1.1 5.2 1.1 8.4 0 1 0 1 0 2q0 3.3 0 6.7 0 2.4 0 4.8 0 6.5 0 13 0 6.8 0 13.6 0 12.9 0 25.8 0 14.7 0 29.3-0.1 30.2-0.1 60.4 0.9 0.4 1.9 0.9c2.5 1.3 3.4 2.6 4.9 5q0.8 1.2 1.6 2.4c2.9 4.9 5.7 9.7 8.5 14.6q1.5 2.6 3 5.2 1.5 2.7 3.1 5.4 4.7 8.2 9.5 16.5 1.9 3.2 3.7 6.5 1 1.6 1.9 3.3 2.8 4.8 5.6 9.7c1 1.6 1 1.6 1.9 3.3q1.9 3.2 3.7 6.4 4.4 7.6 8.8 15.2 2.1 3.6 4.2 7.2 1.5 2.5 3 5 0.8 1.6 1.8 3.1 0.7 1.4 1.5 2.8c4.1 7.5 4.9 15.6 2.8 23.9-4.3 9.8-14.8 14.8-23.7 19.6q-3.1 1.7-6.3 3.5-1.6 0.9-3.2 1.7c-4.3 2.4-8.4 4.9-12.6 7.4-6.6 3.6-13.3 4.1-20.6 2.4-6.1-2.4-10.2-5.7-14-11-5.7 1.6-10.8 4.3-16 7 0.5 1.3 0.5 1.3 1 2.6 2.2 7.5 2.2 15.8-1.2 23-2.1 3.7-4.6 6.5-7.8 9.4q-1 1.5-2 3 0.9 2.5 2 5c1 10.3-0.1 17.7-6.6 25.8-4.6 4.8-9.2 7.8-16 8.4-2.1 0-4.3-0.1-6.4-0.2q-0.1 1.7-0.3 3.5c-1 7.8-4.5 13.1-10.6 18-5.1 3.5-9.9 5-16.1 4.5q0.2 1.4 0.3 2.9c0 6.2-3.1 11.6-7.1 16.2-6.6 6.1-12.7 8.2-21.5 8.3-7.3-1.1-13.6-4.8-20-8.5q-2.3-1.3-4.7-2.6-1-0.6-2-1.2-3-1.6-6-3.1-0.5 0.8-1.1 1.6c-5.1 7-10.2 12.4-18.9 14.4-8.6 1-15.3-0.4-22.2-5.7-2.6-2.2-5.1-4.5-7.3-7.1q-0.7-0.6-1.5-1.2c-1.9 0.3-1.9 0.3-4 1-10.2 0.8-17-0.2-24.8-6.9-3.1-2.7-5.3-5.4-7.2-9.1q0-1.5 0-3-1.1 0.1-2.3 0.1c-9.7 0.4-16.9-1.6-24.1-8.3-4.3-4.9-6.9-10.3-6.9-16.9q0.1-1.9 0.3-3.9-1.4-0.1-2.9-0.1c-6.3-1-11.9-4.3-16-9.1-5.1-7.4-7.2-13.8-6.1-22.8 0.9-2.5 1.9-4.7 3.2-7 1-2.6 0.9-3.4-0.2-6-1.6-2.2-3.1-4.2-4.8-6.3q-0.7-0.9-1.5-1.8-1.5-2-3.1-3.9-2.5-3.1-5-6.3-4.3-5.3-8.6-10.7-0.8 0.7-1.7 1.5c-6.5 5.4-11.4 7.8-19.9 7.6-7.2-1-13.2-4.6-19.4-8.1-1.4-0.8-1.4-0.8-2.8-1.6q-4.8-2.7-9.6-5.5-1.5-0.8-3.1-1.7c-19.3-11.4-19.3-11.4-22.3-20.8-2.2-9.7 0.1-17.1 5-25.5q0.7-1.1 1.4-2.3 2.2-3.8 4.4-7.6 1.6-2.8 3.2-5.5 2.6-4.5 5.2-8.9 6.9-11.8 13.6-23.6 8.4-14.8 17-29.5 4.2-7 8.2-14.1 0.7-1.3 1.5-2.6 1.4-2.5 2.8-4.9c2.1-3.8 4.1-7.1 7.5-9.9q1 0 2 0 0-1.2 0-2.5-0.1-30.3-0.1-60.7 0-14.6-0.1-29.3 0-12.8 0-25.5 0-6.8 0-13.6 0-6.3 0-12.7 0-2.3 0-4.7-0.1-3.2 0-6.4 0-1.7 0-3.6c0.2-2.9 0.5-4.6 2.2-7 3.3-2.2 4.4-2.3 8.2-2.3zm6.8 17.3c0 48.2 0 96.4 0 146 5.9 2.5 5.9 2.5 12 5q3 1.5 6 3.3 1.4 0.8 2.9 1.7 1.5 0.9 3 1.8 1.6 0.9 3.2 1.9 3.1 1.8 6.1 3.7 3.5 2 7.1 4c7.5 4.4 11.8 7.7 15 16 0.6 2.9 0.8 5.3 0.7 8.3 0 1.2 0 1.2 0 2.5q0 0.9 0 1.8 8.9 3.3 17.7 6.5 3 1.1 6.1 2.2 4.3 1.6 8.6 3.1 1.4 0.5 2.7 1 1.3 0.5 2.6 0.9 1.1 0.4 2.2 0.9c2.4 0.5 3.8 0.2 6.1-0.6q2.3-1.8 4.5-3.7c9.9-8.1 20.8-12.7 33.6-12.7q1.4 0 2.7 0c9.4 0.1 18.4 1.8 27.6 3.5 20.2 3.7 41.9 4.8 61.6-2.1q-0.1-1.7-0.2-3.4c0-6.8 1.9-12.8 6.4-18 4.1-3.7 9.2-6.2 14.1-8.9q1.8-1 3.5-2 3.5-2 7-3.9 4.1-2.3 8.3-4.7 2.1-1.2 4.1-2.4 1-0.5 1.9-1.1c3.7-2.1 6.8-3.2 10.9-4.6 0-48.2 0-96.4 0-146-95 0-190.1 0-288 0zm-10 167c-1.9 2.7-1.9 2.7-3.5 5.7q-0.9 1.7-1.9 3.4-1 1.8-2 3.7-1.1 1.9-2.2 3.8-1.6 2.9-3.2 5.8c-3.4 5.9-6.8 11.8-10.2 17.6q-7.6 13-15 26-7.9 13.8-15.9 27.6-0.9 1.5-1.8 3c-2 3.5-4 7-6.3 10.4-0.5 3.5-0.5 3.5 0 7 2.8 3.3 5.9 5.3 9.7 7.5 1.7 0.9 1.7 0.9 3.4 1.9q1.7 1 3.5 2 1.6 0.9 3.4 1.9 5 2.9 10 5.7 1.6 0.9 3.2 1.8c1.4 0.8 1.4 0.8 2.9 1.7q1.3 0.7 2.6 1.5c2.4 1.2 2.4 1.2 5.6 0.9 7.2-5.2 11.3-15.3 15.6-22.8q1.5-2.6 3-5.2 1.5-2.7 3.1-5.4 4.7-8.2 9.5-16.5 5.7-9.8 11.3-19.6 1-1.7 1.9-3.4 1.9-3.2 3.8-6.5 4.6-7.9 9.3-15.8c0.9-1.5 0.9-1.5 1.8-3q1.7-2.9 3.5-5.7c3.8-6.1 3.8-6.1 4.9-13-2.8-4.2-5.8-6.4-10.2-8.8q-0.9-0.5-1.8-1-2.8-1.6-5.7-3.2-1.9-1.1-3.8-2.1-3.6-2.1-7.2-4.1-3.1-1.7-6.1-3.4-1.1-0.7-2.3-1.4c-1-0.6-1-0.6-2-1.2-4.9-2.1-7.4-0.1-10.9 3.2zm289.7 0.8q-1.3 0.8-2.7 1.5-2.7 1.6-5.3 3.2-3.8 2.2-7.6 4.3-2.3 1.3-4.6 2.6-1 0.6-2.1 1.2c-4 2.3-7.1 4.3-9.4 8.4 0 5.2 2.5 9 5.1 13.3q1.4 2.2 2.8 4.5 0.7 1.2 1.5 2.5c3 5 5.9 10.1 8.8 15.1q1.9 3.4 3.9 6.8 0.9 1.7 1.9 3.4 5.7 9.8 11.4 19.6 4.8 8.4 9.6 16.8 4.7 8.1 9.4 16.3 1.5 2.5 2.9 5 1.7 2.9 3.3 5.6 0.8 1.4 1.7 2.9c2 2.6 3.6 4 6.7 5.2 4.2-1.1 7.9-2.9 11.7-5q1.5-0.9 3.2-1.8 1.6-0.9 3.3-1.9 1.6-0.9 3.2-1.8c12.3-5.7 12.3-5.7 21.6-14.5 1.1-7.2-2.4-11.8-6.1-17.8q-1.9-3.2-3.8-6.5-1-1.6-2.1-3.3c-3.2-5.4-6.3-10.8-9.4-16.3q-1.9-3.3-3.8-6.5-0.9-1.6-1.9-3.3-2.8-4.9-5.7-9.8-0.9-1.6-1.8-3.3-1.9-3.2-3.8-6.4-4.3-7.6-8.6-15.1-1.6-2.7-3.1-5.4-1.9-3.3-3.8-6.7c-5.3-10.5-5.3-10.5-13.9-17.9-4.8 0.5-8.4 2.7-12.5 5.1zm-172.8 60.3c-1.8 1.8-3.7 3.5-5.7 5.2-3.7 3.2-7.2 6.5-10.6 10q-0.8 0.8-1.7 1.6c-5 5-5.2 8.4-5.5 15.3q0 1.4-0.1 2.8c-0.4 10.6-0.4 21.3-0.3 32 3.6 1.2 4.7 0.7 8.2-0.4q1.4-0.5 2.8-0.9c7.5-4.2 10.8-10.9 14.1-18.5 4.2-9.9 7.8-17.2 18-21.3q2-0.7 4.1-1.3c2-0.6 2-0.6 4.8-1.9 9.3-3.9 20.4-5.4 30-1.7 11.2 5.3 21.9 11.9 32.6 18.2q9.6 5.7 19.3 11.2 1.6 1 3.2 1.9 7.6 4.4 15.2 8.8 2.7 1.5 5.4 3 3.3 2 6.7 3.9 1.5 0.9 3 1.8 1.5 0.8 2.9 1.6c2.5 1.5 4.8 3 7.1 4.7 2.8 1.7 2.8 1.7 6 1.5q1.3-0.8 2.6-1.6 2.2-1.1 4.4-2.2 2.5-1.2 4.9-2.4 1.3-0.7 2.5-1.3 3.1-1.5 6.2-3.1c-1.3-3.4-2.8-6.5-4.5-9.7q-0.8-1.3-1.6-2.7-0.8-1.4-1.7-2.9-0.8-1.5-1.7-3.1-6.9-12.2-14-24.2-5-8.5-9.8-17-0.6-1-1.1-1.9-2.7-4.7-5.4-9.4-0.9-1.7-1.9-3.4-0.8-1.5-1.7-3.1c-1.4-2.3-2.9-4.5-4.6-6.6q-1.9 0.4-3.8 0.9c-26 5.5-53.2 4.8-79.2-0.9-20.4-4.4-35 2.3-49.1 17.1zm-58.9-16.1q-0.6 1-1.1 2c-17.7 30.6-17.7 30.6-19.6 33.8q-1.8 3.2-3.6 6.4-4.4 7.6-8.8 15.1-1.5 2.7-3.1 5.4-1.9 3.3-3.9 6.7c-3.1 5.4-6.2 10.9-8.9 16.6q1.1 1.3 2.2 2.6c7.8 9 15.6 18 22.5 27.8q0.6 0.8 1.3 1.6 1 0 2 0c1.9-2.6 3.6-5.2 5.4-7.9 4.4-6.7 9.7-11.3 17.6-13.1 8.2-1.1 15.4 0.7 22.1 5.5 2.8 2.3 4.8 4.4 6.9 7.5 1.4-0.5 1.4-0.5 2.7-1 9.3-2.6 17.9-1.4 26.3 3 5.8 3.5 8.9 9.2 10.8 15.6 0.4 2.1 0.8 4.3 1.2 6.4q1.9 0.3 3.9 0.6c6.7 1.5 11.8 5 16.5 9.8 5 7.9 6.1 15.7 4.1 25-0.3 0.8-0.3 0.8-0.5 1.6q0.8 0.3 1.7 0.6c6.9 2.8 13.1 6.2 16.7 13 2.9 7.5 3.3 13.5 1.6 21.4q5.5 3.3 11.1 6.6 1.5 0.9 3.1 1.9c6 3.7 6 3.7 12.9 4.6 3.9-1.4 6.1-3.4 7.9-7.1 0.8-3.1 0.6-4.6 0-8-5.9-6-13.8-9.6-21.1-13.6q-2.6-1.5-5.2-3-1.6-0.9-3.2-1.8c-2.5-1.6-2.5-1.6-4.5-4.6-0.5-2.7-0.5-5.3 0-8 2.1-2.5 3.4-2.9 6.6-3.4 4.9 0.6 8.5 2.8 12.7 5.3q1.3 0.7 2.7 1.5 6.5 3.6 12.8 7.5 1.2 0.7 2.3 1.4 2.2 1.3 4.3 2.6c4.1 2.6 7.6 4 12.6 4.1 3.1-1.5 5.5-3.9 7-7 0.5-3.4 0.5-3.4 0-7-3.3-3.8-6.8-6.3-11.1-8.8q-0.9-0.6-1.8-1.1-2.7-1.6-5.5-3.2-1.8-1-3.6-2.1c-4.7-2.8-9.5-5.5-14.3-8.1-2.7-1.7-2.7-1.7-4.3-4.6-0.5-3.7 0-5.7 1.6-9.1 3.4-1.7 6.4-1.7 10-1 4.7 2.1 9 4.7 13.4 7.4q1.9 1.1 3.8 2.2 8.1 4.7 16.2 9.7 1.1 0.7 2.3 1.4 2 1.3 4.1 2.6c4.2 2.6 7.3 3.3 12.2 2.7 3.9-3.2 5.8-5.3 6.4-10.3-0.5-4.7-1.9-5.6-5.4-8.7q-3-2-6.2-3.7c-0.8-0.5-0.8-0.5-1.7-1q-2.8-1.6-5.6-3.1c-7.3-4.1-14.6-8.2-21.7-12.5q-1.6-0.9-3.2-1.8c-2.5-1.8-4.1-3.2-5.6-5.9 0.1-3.8 0.2-6.1 2.7-8.9 3-1.4 5-1.4 8.3-1.1 2.9 1.3 2.9 1.3 5.9 3.1q1.6 0.9 3.3 1.9 1.8 1.1 3.5 2.1 5 3 10.1 6 3.1 1.9 6.3 3.8 1.4 0.8 2.9 1.7 1.2 0.7 2.5 1.5c3.2 1.2 5.2 0.8 8.5-0.1 3.5-3.1 5.3-5.3 5.7-10-0.2-2.4-0.4-3.7-2-5.5-4.3-3.6-8.7-6.4-13.6-9q-2.4-1.3-4.8-2.6-1.3-0.7-2.6-1.4c-4.8-2.7-9.5-5.4-14.2-8.2q-12.7-7.4-25.4-14.7c-1.6-1-1.6-1-3.2-1.9q-4.9-2.8-9.9-5.7-6.3-3.6-12.6-7.3-2.5-1.4-5-2.9-1.6-0.8-3.1-1.8-1.4-0.7-2.8-1.5-2.6-1.5-5.1-3.1c-4.6-2.7-8.4-2.8-13.5-1.7-3.4 1-6.6 2.1-9.9 3.3-1.1 0.3-1.1 0.3-2.2 0.7-4.7 1.7-7.2 3.2-9.6 7.7q-1.2 2.6-2.3 5.2-1.2 2.7-2.5 5.4c-0.6 1.3-0.6 1.3-1.2 2.6-5 10.2-12 17.2-22.6 21.2-8.3 2.4-15.7 3.2-23.6-0.8-3.7-3-5.5-5.5-7-10-0.2-2.8-0.2-2.8-0.2-5.9 0-1.7 0-1.7 0-3.4 0-1.8 0-1.8 0-3.7q0-1.9 0-3.8c0.1-10 0.3-20.1 1.1-30.1 0.1-2.1 0.1-2.1 0.1-4.1 0.1-5.9 3-8.8 7.1-12.7q1.2-1.2 2.5-2.3c1.2-1.2 1.2-1.2 2.4-2.3q3-2.9 6-5.7c-3.2-2.1-6.4-3.3-9.9-4.6q-1-0.4-2.1-0.7-2.1-0.8-4.3-1.6-3.2-1.1-6.5-2.3-2.1-0.7-4.1-1.5-1-0.3-2-0.7c-3.3-1.1-5.6-1.6-9.1-1.6zm0 116c-1.9 2.3-3.6 4.8-5.3 7.4q-1.4 2.1-2.8 4.3-0.7 1.1-1.5 2.2-2 2.9-4.1 5.8-0.6 0.8-1.2 1.7-1.7 2.3-3.4 4.6c-2 3.5-2.6 6-2.7 10 1.5 3.1 3.9 5.5 7 7 3.4 0.5 3.4 0.5 7 0 4-3.5 7.1-7.6 10.2-11.9q0.8-1 1.5-2 2.1-3 4.3-6.1 0.7-1 1.4-2 2-2.7 3.8-5.6 0.6-0.8 1.2-1.7c1.9-2.8 2.6-4.5 2.5-7.9-1.2-3.8-2.8-5.4-5.9-7.8-5.2-1.5-7.7-1.2-12 2zm33 17q-0.6 0.9-1.2 1.7-3.5 5-6.9 10c-3 4.4-6.1 8.8-9.2 13.2q-1.5 2.2-3 4.3-2.4 3.3-4.8 6.6c-2.4 3.4-3.8 5.8-4.7 9.9 1 4.1 2.5 5.7 5.8 8.2 3.5 1.9 5.1 2.1 9 1.1 7.4-5.7 12.4-15.3 17.6-23 3.7-5.5 7.6-11 11.4-16.4q2-2.8 4-5.6 0.6-0.8 1.2-1.7c1.8-2.5 2.8-4.2 3.4-7.3-0.8-4-2.3-6.6-5.6-9-8.5-3.8-12.3 1.4-17 8zm29 23c-2.3 3-4.4 6.1-6.6 9.3q-1.8 2.6-3.7 5.3-0.9 1.4-1.8 2.7-2.7 3.8-5.4 7.6-0.9 1.1-1.7 2.3-1.6 2.1-3.2 4.2c-2.7 3.8-4.5 6.8-4.6 11.6 1.6 3.1 3 5.3 5.9 7.4 2.9 0.8 5.1 1 8.1 0.6 4.5-3 7.1-6.7 10.1-11.2q1.4-2.1 2.8-4.3 0.8-1.1 1.6-2.2c3-4.6 6.2-9 9.4-13.5q2.1-2.9 4.1-5.8 0.6-0.8 1.2-1.7c2.8-4 3.6-6.4 2.8-11.3-3.2-3.9-5.3-5.8-10.3-6.4-4.5 0.5-5.9 2.1-8.7 5.4zm17.4 39.3q-1.4 1.8-2.7 3.6-0.6 0.9-1.3 1.8c-2.7 3.7-4.2 6.6-4.4 11.3 1.6 3.1 3 5.3 5.9 7.4 2.9 0.8 5 1 8.1 0.6 4-3.6 7.1-7.6 10.2-11.9q0.7-0.9 1.4-1.8c2.7-3.7 4.2-6.6 4.4-11.3-1.6-3.1-3-5.3-5.9-7.4-8-2.3-11.1 1.7-15.7 7.7z"/>
		<path class="s0" d="m236.1 169.9q1.7 0 3.3-0.1 1.8 0 3.7 0 1.9 0 3.8 0 5.2 0 10.4 0 3.2 0 6.5 0 10.1 0 20.3 0 11.7 0 23.4-0.1 9.1 0 18.1 0 5.4 0 10.9 0 6-0.1 12-0.1 1.8 0 3.7 0c1.6 0 1.6 0 3.3 0q1.4 0 2.9 0c3.1 0.5 5 1.5 7.6 3.4 1.6 3.1 1.7 6.6 1 10-2.1 2.6-3.3 3.9-6.6 4.5q-1.4 0-2.9 0c-1.7 0-1.7 0-3.4 0-1.8 0-1.8 0-3.7 0-1.9 0-1.9 0-3.9 0q-5.3 0.1-10.6 0-5.6 0-11.1 0-9.4 0.1-18.7 0-10.8 0-21.6 0-9.2 0.1-18.5 0-5.5 0-11.1 0-6.1 0.1-12.3 0-1.8 0-3.7 0-1.7 0-3.4 0-1.4 0-2.9 0c-3.4-0.6-4.5-1.9-6.6-4.5-1-3.4-1-3.4-1-7 3.2-5.1 5.3-6.1 11.1-6.1z"/>
		<path class="s0" d="m235.3 84.7q1.7 0 3.4 0 1.8 0 3.7 0 1.9 0 3.9 0 5.2 0 10.5 0 4.4 0 8.8-0.1 10.4 0 20.7 0 10.8 0 21.5 0 9.1-0.1 18.3-0.1 5.5 0 11 0 6.1 0 12.3 0 1.8 0 3.6 0c8.2 0 8.2 0 12.3 2.3 2 2.6 2.3 4.8 2.4 8.1-1.1 3.3-2.7 5.4-5.7 7.1-4.2 0.8-8.3 0.7-12.5 0.6q-1.9 0-3.9 0.1-5.2 0-10.4-0.1-5.5 0-10.9 0-9.2 0-18.4 0-10.6 0-21.2 0-10.2 0-20.4 0-4.3 0-8.7 0-6 0-12.1-0.1-1.8 0-3.6 0.1c-8.1-0.1-8.1-0.1-12.1-2.4-2.5-3-2.7-5.3-2.8-9.2 1.7-5.3 5.1-6.2 10.3-6.3z"/>
		<path class="s0" d="m194 72c2.5 1.5 2.5 1.5 4 4 0.7 4 1.1 6.4-1.2 9.8q-0.9 0.9-1.7 1.8-0.9 1-1.9 2.1-6.2 6.5-12.5 12.7-1.4 1.4-2.8 2.8c-1.3 1.3-1.3 1.3-2.6 2.6q-1.1 1.2-2.3 2.4c-2.6 2.3-3.7 2.8-7.1 3.3-5.6-0.7-8-3.6-11.9-7.5q-1.1-1.1-2.3-2.2c-6.5-6.4-6.5-6.4-7.1-11.1 0.4-3.7 0.4-3.7 2.5-6.6 2.9-2.1 2.9-2.1 5.7-2.9 4.9 1.2 7.7 4.4 11.2 7.8 3.1-1.4 5.2-3 7.6-5.4q0.9-1 1.9-2 1-1 2.1-2.1 2-2.1 4-4.1 0.8-0.9 1.7-1.8c4-3.8 7.5-4.4 12.7-3.6z"/>
		<path class="s0" d="m193 158c2.9 1.4 2.9 1.4 5 4 0.8 3.8 0.8 7.5-1 10.9-1.5 1.8-3.1 3.5-4.8 5.1q-0.9 0.9-1.8 1.8-1.9 2-3.9 3.8-2.9 2.9-5.8 5.9-1.8 1.8-3.7 3.7c-0.8 0.9-0.8 0.9-1.7 1.8-3.2 3-5.5 4.4-10 4.6-3.8-0.3-5.9-1.1-8.7-3.8q-1-1-2.1-2.1-1-1.1-2.1-2.2-1-1-2.2-2.1c-3.3-3.4-5.7-5.9-5.7-10.8 0.8-5.5 0.8-5.5 3.5-7.6 4.8-1.6 4.8-1.6 8-1 2.4 1.6 4.3 3.4 6.2 5.4 1.8 1.9 1.8 1.9 4.8 1.6 2.1-1.7 2.1-1.7 4.2-3.9q1.1-1.2 2.4-2.4 1.2-1.3 2.5-2.6 2.4-2.6 4.9-5.1 1.1-1.1 2.2-2.2c3.1-3.1 5.5-3.2 9.8-2.8z"/>
	</g>
</svg>