<svg version="1.2" xmlns="http://www.w3.org/2000/svg" viewBox="0 0 512 512" width="512" height="512">
	<title>electrical</title>
	<style>
		.s0 { fill: #000000 } 
	</style>
	<filter id="f0">
		<feFlood flood-color="#ffffff" flood-opacity="1" />
		<feBlend mode="normal" in2="SourceGraphic"/>
		<feComposite in2="SourceAlpha" operator="in" />
	</filter>
	<g id="Folder 1" filter="url(#f0)">
		<path class="s0" d="m231.3 13.7q1.9 0 3.8 0 2 0 4 0 2.1 0 4.1-0.1 4.4 0 8.7 0 5.6 0 11.1 0 4.3-0.1 8.6-0.1 3 0 6 0c7.8 0 14 0.3 19.9 5.9 3.7 4.2 5.5 7.1 5.5 12.6q1.3 0.4 2.6 0.8c24.1 8.7 43.3 31.1 54.1 53.5 6 13.9 9.9 28.5 9.3 43.7q1.3 0.1 2.6 0.2c6.8 1.6 11.6 6.1 15.4 11.8 3.2 6.3 3.6 12.2 2 19-2.3 7-6.7 11.8-13.2 15.2-3.6 1-6.9 1-10.6 0.9q-1 0-2.1 0-2.6 0-5.1-0.1 0 1.2 0 2.4c-1.2 28.2-9.2 57-23 81.6q-0.8 1.6-1.7 3.2c-4.4 7.9-9.8 16.3-16.3 22.8-0.1 16.6 4 32 15.8 44.3 7.1 6.8 15.2 11 24.2 14.7q0.4-1.1 0.8-2.2c1.2-2.8 2.6-5.2 4.1-7.8 0.9-1.4 0.9-1.4 1.8-2.8q1.7-2.9 3.5-5.8c5.4-8.9 8.3-16.2 8.1-26.7q-0.1-1.1-0.1-2.3c0-4-0.4-7.5-1.2-11.4-1.1-18.4 1.9-34.9 14.4-49.3q2.3-2.3 4.6-4.7c0.9-1 0.9-1 1.8-1.9 10.8-10.5 25.8-14.5 40.4-14.4q1.4 0 2.9-0.1c8.9 0 8.9 0 12.9 3.4 1.4 2.9 1.3 4.8 1 8-1.2 2.6-2.5 5-3.9 7.4-0.6 1.1-0.6 1.1-1.2 2.1q-2 3.3-3.9 6.5-1.3 2.2-2.6 4.4-3.2 5.3-6.4 10.6 3.9 2.4 7.8 4.9 1 0.7 2.2 1.4 1 0.6 2.1 1.3 1 0.6 2 1.3c1.9 1.1 3.9 2.1 5.9 3.1q0.8-1.3 1.6-2.7 2.9-5 5.9-10 1.2-2.1 2.5-4.3 1.8-3.1 3.7-6.1 0.5-1 1.1-2c2-3.3 3.8-5.9 7.2-7.9 3.6-0.5 5.3-0.4 8.4 1.6 3.1 2.9 4.9 6 6.7 9.7q0.5 1.1 1.1 2.1c7.5 16.1 7.5 33.6 1.6 50.2-2.5 6.2-5.7 11.2-9.8 16.4q-0.7 1-1.5 2.1c-7.9 10.1-19.4 15.1-31.2 19.4-15.7 5.9-22.2 16.5-30.3 30.5 1.8 0.7 1.8 0.7 3.6 1.5 23 9.8 41 24.8 50.9 48.1 4.2 11.2 5.8 21.8 5.9 33.7q0 1.7 0 3.4 0 3.5 0 7.1 0.1 5.4 0.1 10.8 0.1 3.5 0.1 6.9 0 1.6 0 3.3 0 1.5 0 3 0 1.3 0 2.7c-0.9 3.7-2.7 5.1-5.6 7.5-2.7 0.5-4.8 0.7-7.5 0.6q-1.1 0-2.2 0-3.8 0.1-7.6 0-2.7 0-5.4 0-7.5 0.1-15 0-8.1 0-16.2 0.1-15.8 0-31.6-0.1-12.9 0-25.7 0c-1.9 0-1.9 0-3.7 0q-3.7 0-7.5 0-32.8 0-65.7 0-31.9 0-63.8 0-34.7 0-69.5 0-3.7 0-7.4 0-1.8 0-3.6 0-12.9 0-25.7 0-15.7 0-31.3 0-8-0.1-16-0.1-7.3 0.1-14.6 0-2.7 0-5.3 0-3.6 0-7.2 0-1.1 0-2.1 0c-4.7 0-7.1-1.2-10.4-4.5-0.6-2.4-0.6-2.4-0.6-5.1q0-1.5 0-3 0-1.7 0-3.4 0-1.7 0-3.4 0-3.6 0.1-7.2 0-5.5 0-10.9c0-16.2 1.1-30.1 7.3-45.1 1.2-2.9 2.2-5.9 3.2-8.9q-1.3-1.3-2.6-2.6-1.7-1.6-3.3-3.3-0.9-0.8-1.7-1.7c-5.2-5.1-5.2-5.1-5.8-9 0.4-3.5 1.1-4.9 3-7.8 2-3.4 2.4-4.4 2.3-8.4q-0.5-1.6-0.9-3.2-0.3-1.2-0.6-2.4-0.2-0.8-0.4-1.6-1.2-0.1-2.4-0.2c-4.9-1.1-9.3-3.2-13.6-5.8-2.2-4.3-1.3-10.1-1.3-14.8q-0.1-1.8-0.1-3.6 0-1.7 0-3.5 0-1.6-0.1-3.2c0.6-3.6 2-5.3 4.5-7.9 2.5-1.4 2.5-1.4 5.1-2.3q1.2-0.5 2.6-1c2.3-0.7 2.3-0.7 5.3-0.7 1.6-4.8 2.4-8.1 1-13-0.8-1.5-0.8-1.5-1.6-2.9-1.8-3.9-2.1-5.9-1.4-10.1 2-3 4.4-5.5 7-8q1.3-1.3 2.6-2.7c8-8.1 8-8.1 12-8.6 3.3 0.3 4.9 0.9 7.8 2.4 5.4 2.5 9.1 1.7 14.6-0.1 1.4-3.1 2.5-6.3 3.7-9.5 1.9-5.2 1.9-5.2 4.1-6.7 4.5-1.6 9.4-1.1 14.1-1.1 1.7 0 1.7 0 3.3-0.1q1.6 0 3.2 0c1.4 0 1.4 0 2.9 0 3.2 0.5 5.1 1.5 7.7 3.4 1.5 3.3 2.5 6.5 3.5 10 1.9 3.8 3.5 4.6 7.5 6 2.1 0.2 2.1 0.2 4.1-0.2q1-0.2 2-0.3c2.1-0.5 2.1-0.5 4.5-1.6 3.5-1.3 5.7-1.5 9.4-0.9 3 2 5.5 4.4 8 7q1.3 1.3 2.7 2.6c8.1 8 8.1 8 8.6 12-0.3 3.3-0.9 4.9-2.4 7.8-2 4.3-2.1 6.9-0.9 11.6q0.3 1.2 0.6 2.4c0.2 0.8 0.2 0.8 0.4 1.6q1.2 0.1 2.4 0.2c6 1.3 12.1 3.6 15.6 8.8 6.7-7.5 11.4-14.6 15-24q0.4-1 0.8-2.1c0.6-2 1-3.8 1.2-5.9 0.2-1.7 0.2-1.7 0.4-3.4 0.5-7.1 0.4-11.6-4.3-17.1q-1.3-1.3-2.5-2.6c-21-23.3-34.1-65.7-33.7-96.3q0.1-1.3 0.1-2.7c0-0.9 0-0.9 0-1.9-1.5 0.1-1.5 0.1-2.9 0.2-8.4 0.3-15.2 0.1-22.1-5.2-5.4-5.3-7.9-11-8-18.4 0.4-7.8 2.6-13.8 8.5-19 4.1-3.3 7.2-4.9 12.5-4.6q-0.1-1.9-0.1-3.9c0-5 0.7-9.7 1.7-14.7q0.3-1.3 0.6-2.6c6.2-28.8 23.5-53.3 47.9-69.6 2.5-1.6 5.1-2.9 7.7-4.3 5.5-2.7 5.5-2.7 9.5-7.2 0.7-2.3 0.7-2.3 1.1-4.6 1.1-3.9 4.2-6.1 7.6-8.1 4.2-1.6 7.8-2.3 12.3-2.3zm-5.3 16.3c-2.2 3.4-2.2 3.9-1.7 7.7q0.2 1.4 0.4 2.9 0.2 1.7 0.4 3.3 0.2 1.7 0.4 3.4 0.6 4.8 1.2 9.6 0.7 5.4 1.4 10.8 1.4 11.5 2.9 23.1 0.8 6 1.6 12.1 0.5 4.7 1.2 9.4 0.2 2.2 0.5 4.4 0.4 3.1 0.8 6.2 0.2 1.7 0.5 3.5c0.1 2.5 0.1 2.5 1.4 3.6q4.2 0.1 8.4 0.1 1.2 0 2.5 0 2.7 0 5.4 0 4.1 0 8.2 0 2.5 0 5.1 0 1.3 0 2.5 0c3.8 0.4 3.8 0.4 6.9-1.1q0.7-4.3 1.2-8.6 0.2-1.3 0.4-2.7 0.6-4.5 1.2-9 0.4-3.1 0.8-6.2 0.9-6.5 1.7-13 1.1-8.4 2.2-16.8 0.9-6.4 1.7-12.8 0.4-3.1 0.8-6.2 0.6-4.3 1.1-8.6 0.2-1.3 0.4-2.6c0.5-4.4 0.8-7.5-1.5-11.5-1.7-1.7-4.1-1.1-6.5-1.2q-1.8 0-3.6 0-1.9 0-3.8 0-2 0-4 0-4.1 0-8.3 0-5.3-0.1-10.6-0.1-5.1 0-10.1 0-1.9 0-3.9-0.1c-1.8 0-1.8 0-3.6 0-1.5 0-1.5 0-3.1 0q-1.2 0.2-2.5 0.4zm-42 38q-1.1 1.1-2.2 2.2c-14.9 15.7-23.8 38.2-23.8 59.8 20.8 0 41.6 0 63 0-2.3-20-2.3-20-4.8-40.1q-0.2-1.7-0.4-3.4-0.5-3.5-1-7-0.7-5.4-1.4-10.8-0.4-3.4-0.9-6.8-0.2-1.6-0.4-3.3-0.2-1.4-0.4-2.9-0.2-1.3-0.3-2.6c-0.3-2.2-0.3-2.2-1.4-4.1-8.7 0-20 13.1-26 19zm118-19c-2 8.2-3.1 16.5-4.2 24.9q-0.3 2.3-0.6 4.5-0.6 4.8-1.2 9.6-0.8 6.1-1.6 12.2-0.6 4.7-1.2 9.5-0.3 2.2-0.6 4.5-0.4 3.1-0.8 6.3-0.2 1.7-0.5 3.6c-0.4 2.9-0.4 2.9-0.3 5.9 20.8 0 41.6 0 63 0-2.3-27.7-13.1-50.9-33.9-69.6-8.2-7.6-8.2-7.6-18.1-11.4zm-162 99c-2.1 2.7-2 4.1-1.8 7.6 0.9 3.9 0.9 3.9 3.8 6.4 3.9 1.3 7.7 1.1 11.8 1.1q1.3 0 2.7 0 4.6 0.1 9.1 0.1 3.3 0 6.6 0 8.9 0 17.8 0 5.5 0 11.1 0 17.3 0 34.7 0c2 0 2 0 4 0 1 0 1 0 2 0q15.1 0 30.1 0.1 17.5 0 35 0 9.3 0 18.5 0 8.8 0.1 17.5 0.1 3.2 0 6.4 0 4.3 0 8.7 0 1.3 0 2.6 0c4.6 0 7.7-0.4 11.4-3.4 2.4-2.9 2.4-2.9 1.8-6.5-0.8-3.4-1.1-4.5-3.8-6.5-3.3-1.7-7.1-1.1-10.7-1.1q-1.4 0-2.8 0-4.6 0-9.2 0-3.3 0-6.6-0.1-9 0-18 0-7.5 0-15 0-16.7 0-33.3 0-1 0-2 0c-1 0-1 0-2.1 0q-16.2 0-32.4 0-16.7 0-33.3 0-9.4 0-18.8 0-8.8-0.1-17.6 0-3.2 0-6.4-0.1-4.4 0-8.8 0.1c-1.3-0.1-1.3-0.1-2.6-0.1-4.1 0.1-6.9 0.2-10.4 2.3zm30 30c1.5 14.6 1.5 14.6 4.2 28.8q0.3 1.4 0.6 2.8c7.8 31.9 22.5 64 50.4 83.1 12.6 7.7 27.1 11 41.7 8.1 10.5-2.7 18.8-6.9 27.1-13.8 1.2-1 1.2-1 2.5-2 27.9-23.7 41.5-63.6 45.5-99 0-2.6 0-5.3 0-8-56.8 0-113.5 0-172 0zm232.3 69.5c-9 9.7-12.5 21.9-12.5 34.9 0.2 3.4 0.6 6.8 1 10.3 2.7 20.8-5.7 35.7-15.8 53.3q-1.2 2-2.3 4-0.8 1.5-1.7 3c11.1 4.9 22.6 8.9 34 13 0.5-0.8 0.5-0.8 1-1.6q5.4-8.7 11-17.4 0.9-1.5 1.9-2.9c7.9-11.2 19.3-15.8 31.6-20.2 6.5-2.4 11.6-5 16.5-9.9q0.9-0.8 1.9-1.6c7.2-6.4 12.3-16.8 13.3-26.4q0.1-3.2 0.1-6.4 0-1.2 0-2.3c-0.1-5.3-0.8-9.5-3.3-14.3-4.9 5.5-8.1 12.2-11.6 18.6-0.7 1.4-0.7 1.4-1.5 2.8q-0.7 1.2-1.4 2.5c-1.7 2.4-2.6 3.3-5.5 4.1-5.4-0.2-9.3-1.9-13.8-4.7q-0.9-0.5-1.9-1.1-2.9-1.7-5.9-3.5-1.9-1.2-3.9-2.4c-16.1-9.5-16.1-9.5-17.5-12.3-1-7.1 2.2-11.6 5.8-17.6q1.6-2.7 3.3-5.5c0.7-1.2 0.7-1.2 1.5-2.5 1.6-2.8 3-5.5 4.4-8.4-10.9 0-21.1 7.4-28.7 14.5zm-312.3 32.5q-0.4 1.2-0.7 2.4c-2 5.8-3.5 9.9-9.1 12.7q-2.6 1-5.2 1.9c-1.1 0.5-1.1 0.5-2.1 1-5.1 2.2-8.5 2.2-13.9 1q-2-1-4-2c-2-0.1-2-0.1-4 1-1.8 1.9-3.4 3.9-5 6q0.4 0.7 0.9 1.5 0.5 1 1.1 2.1 0.6 0.9 1.1 2c2.3 6.3 0.5 11.7-2.1 17.6q-0.5 1-0.9 2.1c-1.9 3.9-3.3 6.6-7.2 8.6-2 0.6-2 0.6-3.9 1.1q-1.5 0.6-3 1.2-1 0.4-2 0.8c0 3.3 0 6.6 0 10q1.2 0.4 2.5 0.8c9.9 3.6 9.9 3.6 12 7.9q0.8 2.1 1.5 4.3 0.6 1.2 1.1 2.5c2.4 5.2 3.5 8.8 1.9 14.5q-0.8 1.6-1.7 3.2c-1.6 2.6-1.6 2.6-0.8 4.9 1.9 2.4 4.1 4.1 6.5 5.9q0.6-0.6 1.1-1.3c5.5-5.7 11.8-11.2 18.9-14.7q0-1 0-2-1.8-1.6-3.7-3.1c-7.5-6.4-11.7-14.5-12.6-24.4-0.4-12.1 1.9-22.5 10.3-31.5 7.8-8.2 16.9-11.8 28.1-12.3 11 0.2 21.4 3.8 29.2 11.6 9.5 11.2 10.8 22.3 10.7 36.7 9-2.1 17.4-5.4 26-9q0-2 0-4-1.1-0.4-2.2-0.8c-7.1-2.8-10.7-5.2-13.8-12.2q-0.6-1.2-1.2-2.5c-3-6.4-3.5-10.8-1-17.6q1-2.5 2.2-4.9c-1.8-2.2-3.7-4.3-6-6-3.2 0-5.1 0.5-7.9 2.1-5.3 2.4-11.4 0-16.5-1.9-9-3.6-9-3.6-11.3-8.3q-0.7-1.9-1.3-3.9-0.6-1.5-1.2-3-0.4-1-0.8-2c-3.3 0-6.6 0-10 0zm121 22q-0.4 1.6-0.9 3.3c-3.6 13-8.2 23.9-16.8 34.4-2.8 3.2-2.8 3.2-3.3 7.3 1.9 2.2 3.9 4.3 6 6.3q0.9 1 1.9 1.9 3.1 3.2 6.3 6.3 2.2 2.2 4.4 4.4 5.8 5.7 11.5 11.4 5.9 5.9 11.8 11.7 11.5 11.5 23.1 23c4.1-1.6 6.8-4.5 9.8-7.6q0.8-0.8 1.7-1.7 2.8-2.8 5.6-5.6 1.9-2 3.9-3.9 5.1-5.2 10.3-10.4 8.2-8.3 16.4-16.5 2.9-2.9 5.7-5.8 1.8-1.8 3.6-3.5 0.7-0.8 1.6-1.7c3.3-3.3 6.7-6.3 10.4-9.3q-0.5-0.7-1.1-1.5-1.6-2.1-3.2-4.2-1.6-2.1-3.2-4.2c-8.2-10.3-11.8-21.5-14.5-34.1-1 0.6-1 0.6-2 1.1-20.7 11.5-39.5 17-63.2 11.1-7.8-2.4-14.7-6.2-21.8-10.2q-2-1-4-2zm-135 28c-5 7-5.9 12.5-5 21 2.1 6.9 5.9 12.2 12 16q1 0.6 2 1.3c6.3 2.9 11.5 1.1 17.8-1.1q1.2-0.4 2.4-0.9c6.1-2.3 9.5-5.6 12.8-11.3 2.2-6.7 1.9-13.9-1.1-20.4-3.9-6.9-9.3-11.3-16.9-13.6-9.6-1.3-17.7 1.5-24 9zm94 27.1c-7.8 4-16.2 6.8-24.4 9.9q-2.7 1-5.3 2-12 4.4-23.9 8.8-4.8 1.7-9.5 3.5-3.3 1.2-6.6 2.4c-13.8 5-13.8 5-26.1 12.9q-1 0.8-2.1 1.7-1 0.8-2.1 1.7c-1.2 0.9-1.2 0.9-2.5 1.9-11.6 9.8-16.6 23.9-20.5 38.1 0 13.9 0 27.7 0 42 66 0 132 0 200 0 4.2-50.8 4.2-50.8-20.6-82.3q-2.3-2-4.5-3.9-2.6-2.2-5.1-4.4-1.3-1-2.6-2.2c-4.4-3.8-8.6-7.7-12.8-11.7-6.1-5.7-12.3-11.4-18.7-16.9-0.9-0.8-0.9-0.8-1.9-1.7-4.6-3.9-5.6-4.6-10.8-1.8zm165-2.1q-14.1 12.2-27.8 24.9c-4.2 3.9-8.5 7.8-12.9 11.5-1.2 1.1-1.2 1.1-2.6 2.3q-2.3 2-4.7 4c-9.6 8.3-15.1 17.6-23 28.3 0 18.5 0 37 0 56 66.3 0 132.7 0 201 0 1.4-32.7 1.4-32.7-8-63-0.6-1.2-0.6-1.2-1.2-2.5-11.3-21-32.3-28.5-53.4-36.1q-4.8-1.8-9.6-3.6-3.2-1.2-6.5-2.3c-10.8-4-21.5-8.2-32.2-12.4q-2.2-0.8-4.3-1.7-2.8-1.1-5.6-2.2c-3-1.1-6.1-2.2-9.2-3.2z"/>
		<path class="s0" d="m118.2 434.9q1.8-0.1 3.7-0.1 2.1 0 4.1 0 2.1 0 4.2 0 4.4 0 8.7 0 5.6 0 11.3 0 4.3 0 8.6 0 2.1 0 4.1 0 2.9-0.1 5.8 0 1.6 0 3.3 0c3.1 0.2 5.3 0.8 8 2.2 2.3 3.5 2.5 4.9 2 9-1.6 2.7-1.6 2.7-4 5-3.1 0.6-3.1 0.6-6.7 0.6q-1 0-2 0.1-3.3 0-6.6-0.1-2.3 0-4.6 0-4.9 0-9.7 0-6.1 0-12.3 0-4.7 0-9.5 0-2.2 0-4.5 0-3.2 0-6.4-0.1-1.8 0-3.6 0c-3.7-0.6-4.9-1.5-7.1-4.5-0.5-3.7-0.5-6 1.3-9.4 3.4-3.1 7.4-2.7 11.9-2.7z"/>
	</g>
</svg>