<?xml version="1.0" encoding="UTF-8"?>
<svg version="1.1" xmlns="http://www.w3.org/2000/svg" width="512" height="512">
<path d="M0 0 C1.00103886 -0.00424107 1.00103886 -0.00424107 2.02230072 -0.00856781 C5.54351683 -0.02343428 9.06469319 -0.03274679 12.5859375 -0.03710938 C16.20606069 -0.04262381 19.82581346 -0.06674929 23.44581985 -0.09508133 C26.2494616 -0.11373852 29.05301377 -0.11891459 31.85671234 -0.12044525 C33.83642439 -0.12491294 35.81608837 -0.14352339 37.79571533 -0.16241455 C39.00427185 -0.15941345 40.21282837 -0.15641235 41.45800781 -0.15332031 C42.51594543 -0.15696594 43.57388306 -0.16061157 44.66387939 -0.16436768 C48.32695124 0.28315694 50.61107876 1.13094199 53.671875 3.203125 C55.65052457 7.27771516 55.92716348 10.97893223 55.9465332 15.46459961 C55.95606522 16.6828392 55.96559723 17.9010788 55.97541809 19.15623474 C55.97405098 21.11110558 55.97405098 21.11110558 55.97265625 23.10546875 C55.9765486 24.47018055 55.98088437 25.83489116 55.98564148 27.19960022 C55.99308188 30.05327286 55.99282823 32.90682174 55.98754883 35.76049805 C55.98175548 39.40309287 55.99869196 43.045179 56.0218935 46.68768978 C56.03668126 49.50426658 56.03749576 52.32072226 56.03438377 55.13733101 C56.03514127 57.12859972 56.0489712 59.11984974 56.06306458 61.11106873 C56.00394649 72.70342349 56.00394649 72.70342349 52.671875 78.203125 C49.5808175 80.26383 48.89313723 80.45648184 45.39086914 80.49023438 C44.09790672 80.51035583 44.09790672 80.51035583 42.77882385 80.53088379 C41.84763229 80.53616089 40.91644073 80.54143799 39.95703125 80.546875 C38.99091415 80.5614978 38.02479706 80.57612061 37.02940369 80.59118652 C33.93110333 80.63772427 30.8328647 80.671849 27.734375 80.703125 C6.81467535 79.74312459 6.81467535 79.74312459 -12.328125 86.203125 C-15.66591708 90.85219254 -16.43775994 94.79878139 -16.53344727 100.43066406 C-16.55339249 101.47144104 -16.57333771 102.51221802 -16.59388733 103.58453369 C-16.61059982 104.70132507 -16.62731232 105.81811646 -16.64453125 106.96875 C-16.6757029 108.69155182 -16.6757029 108.69155182 -16.70750427 110.44915771 C-16.77287493 114.11708611 -16.83182694 117.78508593 -16.890625 121.453125 C-16.93382207 123.94011154 -16.97743675 126.42709087 -17.02148438 128.9140625 C-17.12854358 135.01034122 -17.23033325 141.10669095 -17.328125 147.203125 C-16.12329216 147.18647041 -16.12329216 147.18647041 -14.89411926 147.16947937 C-7.31691659 147.06920887 0.25996351 146.99312608 7.83765697 146.94406414 C11.73328691 146.91799247 15.62836773 146.88264073 19.52368164 146.82592773 C23.28439526 146.77151836 27.04458144 146.74168617 30.80565834 146.72873878 C32.23901992 146.71951465 33.67235328 146.70150129 35.10548973 146.67447472 C37.11585606 146.63807741 39.12675547 146.63608173 41.13745117 146.63549805 C42.28106613 146.62439499 43.42468109 146.61329193 44.60295105 146.60185242 C48.71874652 147.40823114 50.15932666 148.89109467 52.671875 152.203125 C53.79822655 156.29177277 53.8022435 160.31348564 53.81713867 164.54052734 C53.82351852 165.77556 53.82989838 167.01059265 53.83647156 168.28305054 C53.83800055 169.61838746 53.83911434 170.95372491 53.83984375 172.2890625 C53.84306171 173.67379795 53.84642619 175.05853307 53.84992981 176.44326782 C53.8559011 179.33979073 53.85777176 182.23628388 53.85717773 185.1328125 C53.85707619 188.8267567 53.87072896 192.52050834 53.88794994 196.21440697 C53.89912048 199.07303731 53.9010954 201.93162183 53.90056801 204.79027176 C53.90230677 206.80863115 53.9131139 208.82697625 53.92411804 210.8453064 C53.90820431 217.26606643 53.87935039 223.12877754 51.671875 229.203125 C47.06036716 232.27746356 42.95360504 232.32793189 37.50463867 232.31665039 C36.28375046 232.31657486 35.06286224 232.31649933 33.80497742 232.31642151 C32.49648331 232.31126022 31.1879892 232.30609894 29.83984375 232.30078125 C28.47935539 232.29891461 27.11886635 232.29749187 25.75837708 232.29649353 C22.18932213 232.29268775 18.62030831 232.28287414 15.05126953 232.27178955 C11.40462805 232.26153363 7.75797989 232.25698697 4.11132812 232.25195312 C-3.03517301 232.24125003 -10.18164631 232.22419704 -17.328125 232.203125 C-17.32628141 233.07980426 -17.32443783 233.95648352 -17.32253838 234.85972881 C-17.27838493 256.1834626 -17.24528088 277.50718851 -17.22450066 298.83095837 C-17.2141846 309.1429375 -17.20011796 319.45488614 -17.17724609 329.7668457 C-17.15732232 338.75391307 -17.14441096 347.74095835 -17.13994801 356.72804719 C-17.13733892 361.48738324 -17.13119954 366.2466561 -17.11666489 371.00597191 C-17.103097 375.48498475 -17.09890076 379.96390832 -17.10190964 384.44293976 C-17.10135912 386.0872655 -17.09737695 387.7315942 -17.08971405 389.37590218 C-17.07976518 391.62072161 -17.08215583 393.8652039 -17.08761597 396.11003113 C-17.08577238 397.36643497 -17.08392879 398.6228388 -17.08202934 399.91731548 C-17.32336143 403.139523 -17.86839233 405.33801263 -19.328125 408.203125 C-22.69118798 410.81665995 -26.59711342 410.49902713 -30.67944336 410.49365234 C-31.41326736 410.50036957 -32.14709137 410.50708679 -32.90315247 410.51400757 C-35.32482708 410.53297902 -37.74622449 410.53691111 -40.16796875 410.5390625 C-41.8542136 410.54549039 -43.54045733 410.55221874 -45.22669983 410.55923462 C-48.7598021 410.57120477 -52.29280661 410.57491565 -55.82592773 410.57373047 C-60.34994655 410.57352715 -64.87333811 410.60084376 -69.39720821 410.63527489 C-72.87938815 410.65752629 -76.36141661 410.66156858 -79.84366035 410.66051102 C-81.5114108 410.66286907 -83.17916528 410.67170418 -84.84684563 410.68717575 C-87.18081341 410.70680353 -89.51342178 410.70101178 -91.84741211 410.68896484 C-92.53380768 410.70020386 -93.22020325 410.71144287 -93.92739868 410.72302246 C-97.36092633 410.67805648 -99.28229923 410.23120946 -102.23316956 408.42276001 C-105.93987967 404.49544807 -105.45224676 400.5122346 -105.44837952 395.26824951 C-105.44923394 394.57062791 -105.45008837 393.87300631 -105.45096868 393.15424466 C-105.45261542 390.81732186 -105.4471153 388.48047088 -105.44165039 386.14355469 C-105.44136832 384.46810915 -105.44152664 382.79266349 -105.4420929 381.11721802 C-105.44238009 376.56800238 -105.4364959 372.01881305 -105.42951894 367.46960354 C-105.42327248 362.71567861 -105.42268058 357.9617531 -105.42149353 353.20782471 C-105.41838403 344.20521321 -105.41017577 335.20261383 -105.40014404 326.20000768 C-105.38897108 315.95101846 -105.38346947 305.70202867 -105.37844861 295.45303488 C-105.36799286 274.36972481 -105.35040077 253.28642567 -105.328125 232.203125 C-106.3450367 232.21311775 -106.3450367 232.21311775 -107.38249207 232.22331238 C-114.43894712 232.28968653 -121.49531347 232.33493447 -128.55200195 232.36791992 C-131.18550214 232.38300557 -133.81897721 232.40347666 -136.45239258 232.42944336 C-140.23785604 232.46583519 -144.02298727 232.4828539 -147.80859375 232.49609375 C-148.98584518 232.51157761 -150.16309662 232.52706146 -151.37602234 232.54301453 C-153.02716789 232.54335442 -153.02716789 232.54335442 -154.71166992 232.54370117 C-156.16061897 232.55369392 -156.16061897 232.55369392 -157.63883972 232.56388855 C-160.86924399 232.13053471 -162.73494113 231.15693681 -165.328125 229.203125 C-166.49228095 225.71065715 -166.48381785 222.92690034 -166.52099609 219.24072266 C-166.52917358 218.53630539 -166.53735107 217.83188812 -166.54577637 217.10612488 C-166.57057642 214.77648766 -166.58713077 212.44691107 -166.6015625 210.1171875 C-166.60688618 209.32080242 -166.61220985 208.52441734 -166.61769485 207.70389938 C-166.64440061 203.49010939 -166.66378532 199.27634878 -166.67822266 195.0625 C-166.69157283 191.57623114 -166.71944794 188.09054608 -166.76025391 184.60449219 C-166.80955014 180.39290414 -166.83433941 176.18184639 -166.84144974 171.96998215 C-166.84816393 170.36638982 -166.86339057 168.7628094 -166.88734055 167.15938187 C-166.91897468 164.9137325 -166.91903318 162.67013023 -166.91162109 160.42431641 C-166.91970795 159.14763092 -166.9277948 157.87094543 -166.93612671 156.55557251 C-166.15450526 152.24580688 -164.82308243 150.78583975 -161.328125 148.203125 C-158.60087585 147.60185242 -158.60087585 147.60185242 -155.61987305 147.63549805 C-154.49908859 147.6358757 -153.37830414 147.63625336 -152.22355652 147.63664246 C-151.0244313 147.66244888 -149.82530609 147.68825531 -148.58984375 147.71484375 C-147.35393997 147.72191849 -146.11803619 147.72899323 -144.84468079 147.73628235 C-141.57100958 147.75949786 -138.2985834 147.80435723 -135.02532959 147.85980225 C-131.68041451 147.91110307 -128.33544504 147.93339215 -124.99023438 147.95898438 C-118.43571263 148.01408356 -111.8820206 148.09773539 -105.328125 148.203125 C-105.33256622 147.59163605 -105.33700745 146.98014709 -105.34158325 146.35012817 C-105.38639061 139.89180885 -105.41622512 133.43353479 -105.43798828 126.97509766 C-105.44794575 124.57599082 -105.46151658 122.1768958 -105.47900391 119.77783203 C-105.72594536 84.98813863 -105.72594536 84.98813863 -101.203125 68.578125 C-100.99284668 67.80090088 -100.78256836 67.02367676 -100.56591797 66.22290039 C-97.09803071 54.18332714 -91.09406964 43.01817698 -83.328125 33.203125 C-82.73644531 32.44773438 -82.14476562 31.69234375 -81.53515625 30.9140625 C-65.75546459 11.9784325 -41.26944721 2.7137227 -17.27087402 0.41052246 C-11.51992099 0.00520993 -5.7629948 0.01904898 0 0 Z " fill="#000000" transform="translate(311.328125,50.796875)"/>
</svg>
