<?xml version="1.0" encoding="UTF-8"?>
<svg version="1.1" xmlns="http://www.w3.org/2000/svg" width="512" height="512">
<path d="M0 0 C0.83144531 0.00902344 1.66289063 0.01804687 2.51953125 0.02734375 C9.1825323 0.2144483 14.72107068 1.18986957 20.625 4.4375 C21.48738281 4.90414063 22.34976563 5.37078125 23.23828125 5.8515625 C32.83943444 11.93738753 39.04354858 21.37878141 45.625 30.4375 C46.16382813 31.1785498 46.70265625 31.91959961 47.2578125 32.68310547 C49.3778407 35.60793501 51.49075073 38.53764471 53.59155273 41.47631836 C57.80709353 47.36057676 62.16107923 53.12881772 66.5625 58.875 C67.91297411 60.64436817 69.2632351 62.41389902 70.61328125 64.18359375 C72.60562999 66.79514033 74.59996386 69.40496106 76.60302734 72.00830078 C88.34360075 87.30089262 99.9999717 103.99936325 97.625 124.4375 C95.59677149 139.25635878 89.82460515 153.48808384 77.76806641 162.88476562 C73.24936607 166.27194544 68.6322169 169.51607727 64.00732422 172.75585938 C60.1926577 175.44856516 56.43418858 178.21378993 52.6875 181 C52.01976562 181.48831299 51.35203125 181.97662598 50.6640625 182.47973633 C46.10293966 185.87627933 43.18444403 188.4095154 41.625 194.0625 C40.25649175 211.47119797 66.82669282 236.91367504 77.5 249.5 C79.20016418 251.48647603 80.91104136 253.46284215 82.625 255.4375 C83.54152344 256.50484375 83.54152344 256.50484375 84.4765625 257.59375 C86.17514518 259.55798779 87.89541365 261.50051143 89.625 263.4375 C90.69814453 264.64986328 90.69814453 264.64986328 91.79296875 265.88671875 C97.93102854 272.70995731 104.33285789 279.25078194 110.8125 285.75 C111.65578857 286.59788086 112.49907715 287.44576172 113.36791992 288.31933594 C118.2926584 293.23199095 123.32970246 297.92807194 128.625 302.4375 C129.63440428 303.31477095 130.64353981 304.19235126 131.65234375 305.0703125 C150.19515129 320.94992486 170.04358404 335.22440753 190.70166016 348.21972656 C192.49465195 349.3549694 194.26925866 350.51465986 196.04296875 351.6796875 C201.26944325 354.97852692 205.41205241 357.40837063 211.71875 356.8828125 C214.40101274 356.25621834 216.41240037 355.04666337 218.625 353.4375 C219.285 353.4375 219.945 353.4375 220.625 353.4375 C220.8936084 352.71385254 221.1622168 351.99020508 221.43896484 351.24462891 C222.61595405 348.45891012 223.97991302 346.07259684 225.6015625 343.5234375 C226.18583008 342.60264404 226.77009766 341.68185059 227.37207031 340.7331543 C227.99178711 339.76933838 228.61150391 338.80552246 229.25 337.8125 C229.88518555 336.82354736 230.52037109 335.83459473 231.17480469 334.81567383 C232.98194297 332.01654868 234.79949036 329.22467154 236.625 326.4375 C237.0468457 325.79248535 237.46869141 325.1474707 237.90332031 324.48291016 C247.02332323 310.71992122 259.06857039 301.48852117 275.359375 297.90625 C298.32559172 294.60966387 314.36897629 303.55110952 332.55566406 316.40161133 C343.47500303 324.10299366 354.6145504 331.46682316 365.76000977 338.83569336 C372.72782817 343.45020033 379.65929628 348.10138335 386.46484375 352.953125 C387.031996 353.35703461 387.59914825 353.76094421 388.18348694 354.17709351 C398.06658962 361.2866445 404.32157921 369.53159026 407 381.6875 C408.83439987 393.6016435 406.80444794 405.53481319 399.625 415.4375 C385.07571368 432.92484898 366.79457788 446.98497843 346.625 457.4375 C345.98804199 457.77088379 345.35108398 458.10426758 344.69482422 458.44775391 C333.42411004 464.27875461 321.91853963 468.33200228 309.625 471.4375 C308.94550293 471.61684082 308.26600586 471.79618164 307.56591797 471.98095703 C285.54794898 477.54763912 257.66621516 476.55996607 235.625 471.4375 C234.65546387 471.21707031 233.68592773 470.99664062 232.68701172 470.76953125 C216.02002095 466.87515788 200.30604269 461.25339982 184.625 454.4375 C183.84366699 454.10137695 183.06233398 453.76525391 182.25732422 453.41894531 C162.60804047 444.87577846 144.16316512 433.68427238 126.625 421.4375 C125.99271484 420.99809082 125.36042969 420.55868164 124.70898438 420.10595703 C116.14990981 414.13855578 107.83661042 407.87276464 99.625 401.4375 C98.77421875 400.77105469 97.9234375 400.10460937 97.046875 399.41796875 C90.70335025 394.39430641 84.52647126 389.17772547 78.37207031 383.92578125 C76.56168201 382.38356114 74.74594842 380.84779764 72.9296875 379.3125 C62.13860408 370.16329032 62.13860408 370.16329032 57.31370544 365.1252594 C55.57210225 363.38463188 53.7575331 361.78803554 51.88696289 360.18725586 C47.86773498 356.69184832 44.06773252 353.02542124 40.30859375 349.25390625 C39.64843765 348.59470688 38.98828156 347.93550751 38.30812073 347.2563324 C36.92464494 345.87353165 35.54240917 344.48948924 34.16137695 343.10424805 C32.06768331 341.00519657 29.96870126 338.9115406 27.86914062 336.81835938 C26.51530429 335.46386214 25.16177825 334.10905469 23.80859375 332.75390625 C23.19173203 332.13906876 22.5748703 331.52423126 21.9393158 330.89076233 C18.1818356 327.11335226 14.61226755 323.2167348 11.13182068 319.18243408 C9.21182636 316.95903512 7.2320439 314.79309783 5.25 312.625 C0.51909778 307.37553345 -3.94225747 301.93923188 -8.375 296.4375 C-9.28839164 295.32757259 -10.20248435 294.21822183 -11.1171875 293.109375 C-52.16232112 243.02823736 -86.0469538 179.84857036 -79.6875 113.25 C-75.92826316 78.94477826 -60.94747699 47.35265661 -38.375 21.4375 C-37.9404248 20.93057617 -37.50584961 20.42365234 -37.05810547 19.90136719 C-26.67562248 7.84072088 -16.51931101 -0.21629212 0 0 Z " fill="#000000" transform="translate(92.375,18.5625)"/>
</svg>
