<svg version="1.2" xmlns="http://www.w3.org/2000/svg" viewBox="0 0 512 512" width="512" height="512">
	<title>visitor</title>
	<style>
		.s0 { fill: #000000 } 
	</style>
	<filter id="f0">
		<feFlood flood-color="#ffffff" flood-opacity="1" />
		<feBlend mode="normal" in2="SourceGraphic"/>
		<feComposite in2="SourceAlpha" operator="in" />
	</filter>
	<g id="Folder 1" filter="url(#f0)">
		<path class="s0" d="m36.7 13.9q1.3 0 2.6 0 4.3 0 8.6 0 3.1 0 6.2-0.1 8.4 0 16.8 0 7 0 14 0 16.5 0 33.1 0 17 0 34.1 0 14.6 0 29.3 0 8.7 0 17.5 0 8.2-0.1 16.4 0 3 0 6.1-0.1 4.1 0 8.2 0.1 1.2-0.1 2.4-0.1c3.8 0.1 6.8 0.1 10 2.3 2.1 2.7 2 4.1 1.9 7.6-0.9 3.4-0.9 3.4-2.4 5.1-3.6 1.9-7 1.7-10.9 1.7-1.3 0-1.3 0-2.6 0q-4.3 0-8.6 0-3.1 0-6.2 0-6.6 0-13.3 0-10.5 0-21 0-26.1 0-52.2 0-20.3 0-40.6 0.1-10.5 0-20.9 0-6.5 0-13 0-3 0-6.1 0-4.1 0-8.2 0-1.2 0-2.4 0c-5.5 0-9.9 1.3-14.5 4.5-4.8 5.8-5.1 10.8-5.1 18.2q0 1 0 2.1 0 3.6 0 7.1 0 2.6-0.1 5.1 0 6.9 0 13.9 0 4.3 0 8.6 0 15.2 0 30.3 0 14.1 0 28.1 0 12.1 0 24.2 0 7.3 0 14.5-0.1 6.8 0 13.6 0 2.5-0.1 5 0 3.4 0.1 6.8c0 1.9 0 1.9 0 3.8 0.3 5.5 1 10.2 4.6 14.6 4.7 3.8 8.2 4.4 14.2 4.4q1.2 0 2.4 0 3.9 0 7.8 0 2.9 0 5.7 0 7.8 0 15.6 0 8.4 0 16.8 0 16.5 0 32.9 0 13.4 0 26.8 0 31.8 0.1 63.5 0.1 1 0 2.1 0 5.1 0 10.3 0 1 0 2 0 2.1 0 4.2 0 32.1 0 64.3 0 36.1 0.1 72.3 0.1 19.1 0 38.3 0 16.3 0 32.5 0 8.4 0 16.7 0 7.6 0 15.2 0 2.8 0 5.5 0 3.8 0 7.5 0 1.1 0 2.2 0c5.4 0 8.4-1.5 12.8-4.5 3.7-5.8 4.1-11.3 4.1-18.1q0-1.1 0-2.2 0.1-3.5 0.1-7.1 0-2.5 0-5.1 0-6.9 0-13.8 0-4.4 0-8.7 0-13.6 0-27.1 0-15.6 0.1-31.3 0-12.1 0-24.1 0-7.3 0-14.5 0.1-6.8 0.1-13.6 0-2.4 0-4.9c0.5-14 0.5-14-5.8-25.9-5.5-3.3-10-3.9-16.3-3.9q-1.3 0-2.7 0-4.3 0-8.7 0-3.2 0-6.4 0-6.7 0-13.5 0-10.8 0-21.5 0-26.7-0.1-53.3-0.1-20.7-0.1-41.5-0.1-10.6-0.1-21.3-0.1-6.6 0-13.3 0-3.1 0-6.1 0-4.2 0-8.4 0-1.2 0-2.5 0c-3.3 0-5.7-0.2-8.6-1.7-2.2-2.5-2.4-4.4-2.5-7.7 1.6-3.5 2.7-4.8 6-7 2.8-0.2 5.6-0.3 8.4-0.3q1.3 0 2.6 0 4.4 0 8.8 0 3.1 0 6.2 0 8.6 0 17.1 0 7.1 0 14.2-0.1 16.8 0 33.6 0 17.4 0 34.7 0 14.9-0.1 29.7-0.1 8.9 0 17.8 0 8.3 0 16.7 0 3.1 0 6.1 0c27.3-0.2 27.3-0.2 36.6 8.6q1.1 1 2.3 2c7.8 10.3 7.9 20.1 7.8 32.4q0 2.8 0.1 5.6 0 7.5-0.1 15.1 0 7.8 0 15.7 0 13.3 0 26.6 0 15.3 0 30.6 0 14.7 0 29.5 0 6.2 0 12.5 0 7.4-0.1 14.8 0 2.7 0 5.4c0.1 11.7-0.4 22.1-8.8 31.2-6.4 5.7-13.3 8.8-22 8.7-1.8 0-1.8 0-3.7 0q-2 0-4.1 0-2.1 0-4.3 0-5.8 0-11.7 0-6.1 0-12.2 0-11.6 0-23.2-0.1-13.1 0-26.3 0-27.1 0-54.2-0.1c0 1.7 0 1.7 0 3.5q0.1 2.3 0.1 4.7 0 1.1 0 2.3c0 8.7-1.7 15.8-7.2 22.7-6.9 6.7-13.9 8.9-23.3 8.9q-1 0-2.1 0-3.4 0-6.8 0-2.2 0-4.5-0.1-5.6 0-11.2 0 0 1.1 0 2.2 0.1 10.3 0.2 20.7 0 5.3 0.1 10.6 0.1 6.1 0.1 12.2 0 1.9 0.1 3.9 0 1.7 0 3.5 0 1.6 0 3.2c-0.6 3.4-1.7 4.6-4.5 6.7-3.8 0.5-6 0.5-9.4-1.3-2.9-3.1-2.7-6.2-2.7-10.3q0-1.7 0-3.4 0-1.9 0-3.8c0-1.9 0-1.9 0-3.8q0-5 0-10 0-5.2 0.1-10.3 0-10 0-20.1c-9.9 0-19.8 0-30 0 0 46.2 0 92.4 0 140 9.9 0 19.8 0 30 0 0-3.7-0.1-7.4-0.1-11.2q0-5.4-0.1-10.7 0-3.8 0-7.5-0.1-5.4-0.1-10.7 0-1.7 0-3.4 0-1.6 0-3.2c-0.1-1.3-0.1-1.3-0.1-2.7 0.5-3.2 1.6-5 3.4-7.6 3.1-1.5 5.6-1.3 9-1 2.7 2 3.9 3.2 4.5 6.5q0 1.4 0 2.9c0 1.6 0 1.6 0 3.3q-0.1 1.7-0.1 3.5 0 1.8 0 3.6-0.1 5.7-0.2 11.5 0 3.8 0 7.7-0.1 9.5-0.2 19 1.1 0 2.3 0 10.9-0.1 21.8-0.2 5.6 0 11.2-0.1 5.4-0.1 10.9-0.1 2 0 4.1 0c12-0.2 20.8 1.7 29.7 10.1 7 8.1 8.2 16.8 8.3 27.1q0.1 1.2 0.1 2.5c0.1 7-1.3 13.3-6.1 18.6-6 5.7-12.8 6.4-20.8 6.4q-1.2 0-2.5 0-4.1 0-8.2 0-3 0-5.9 0-8.1 0-16.1 0-6.8 0-13.5 0-15.8 0-31.7 0-16.3 0-32.7 0-14 0.1-28.1 0.1-8.4 0-16.8 0-7.8 0-15.7 0-2.9 0-5.8 0-4 0-7.9 0-1.1 0-2.3 0c-8.2-0.1-14.4-2.7-20.3-8.4-6.2-8.8-5-22-3.5-32.3 2.2-8.4 7.4-14.2 14.2-19.4 21.7-12.4 50.9-4.3 73.3-4.3 0-46.2 0-92.4 0-140-10.6 0-21.1 0-32 0-10-4-16.5-7.2-21-17-1.7-5.8-2.3-10.9-2.1-17q0-1.2 0-2.3 0-2.9 0.1-5.7-1.1 0-2.3 0-27.1 0.1-54.3 0.2-13.1 0-26.3 0.1-11.4 0.1-22.9 0.1-6 0-12.1 0-5.7 0.1-11.4 0.1-2.1 0-4.2 0c-10.6 0.1-19.9-1.2-27.9-8.7-6.4-7.3-8.7-13.9-8.7-23.4q-0.1-1.2-0.1-2.4 0-3.9 0-7.8 0-2.7 0-5.5 0-9.2 0-18.3 0-3.2-0.1-6.3 0-14.9 0-29.7 0-17.1-0.1-34.2 0-13.2 0-26.4 0-7.9-0.1-15.8 0-7.4 0-14.8 0-2.8 0-5.5c-0.1-12.5 0.9-21.5 9.7-31 8-7.7 16.8-8.9 27.5-8.8zm149.3 238.1c-0.8 13-0.8 13 4 23 4.8 4.2 10.6 3.4 16.6 3.4q1.7 0 3.5 0 5.8 0 11.6 0 4.1 0 8.1 0 8.5 0 16.9 0 9.8 0 19.6 0 8.4 0 16.8 0 5 0 10 0 5.6 0 11.2 0 1.6 0 3.3 0c5.6 0 9.6-0.2 14.4-3.4 6-6.2 4-15.1 4-23-46.2 0-92.4 0-140 0zm-29.3 203.4c-3.3 5-4 9.1-4.1 15.2q0 1.9-0.1 3.9c0.2 3.5 0.2 3.5 2 5.7 3.4 2.5 6.4 2.4 10.5 2.3q1.2 0 2.4 0 4.1 0 8.2 0 2.9 0 5.8 0 7.9 0.1 15.9 0 8.2 0 16.5 0 14 0.1 27.9 0 16.1 0 32.2 0 13.8 0.1 27.6 0 8.3 0 16.5 0 7.8 0.1 15.6 0 2.8 0 5.7 0 3.8 0 7.7 0 1.2 0 2.3 0c3.5 0 5.4-0.3 8.2-2.3 3.3-4.8 2.1-11.6 1.5-17.2-1.5-5.4-4.2-8.9-9-12-3.5-1.2-6.6-1.1-10.2-1.1-1.1 0-1.1 0-2.3 0q-3.7-0.1-7.5-0.1-2.6 0-5.3 0-7.3 0-14.6 0-4.5 0-9 0-14.3 0-28.5 0-16.4 0-32.8-0.1-12.7 0-25.4 0-7.6 0-15.2 0-7.1-0.1-14.2-0.1-2.6 0-5.2 0-3.6 0-7.2 0-1 0-2.1 0c-5.7 0.1-9.8 1.6-13.8 5.8z"/>
		<path class="s0" d="m379 100c10.4 9.5 14.3 19 15 33-0.4 11-5.6 21.8-13.6 29.2-11 8.2-22.1 9.9-35.4 8.8-10.8-2.3-19.7-9-26-18-6.2-11.2-7.4-22.6-4.1-34.9 3.8-10.5 10.7-18.4 20.8-23.4 14.7-6.3 30.7-5 43.3 5.3zm-41.8 13.2c-5.3 6.7-8.8 12-8.2 20.8 1.5 7.7 4.7 12.4 10.7 17.4 6.4 4.4 12.8 4.3 20.3 3.6 6.7-1.8 11-6.5 15-12 3.1-5.7 3.6-11.8 2-18-2.3-6.8-6.6-11.8-12.7-15.4-9.5-4.5-18.9-2.9-27.1 3.6z"/>
		<path class="s0" d="m425.1 90.7q1.5 0 3-0.1c9.7 0 18.1 1.5 25.2 8.4 5.1 6 6.4 12.2 6.1 20-1 7-3.9 12.2-9.5 16.5-2.5 1.7-5.1 3.2-7.9 4.5q1 1 1.9 2.1 4.1 4.4 8.1 8.9 1.1 1.2 2.2 2.5c3 3.5 4.7 5.7 5.5 10.3-0.7 3.2-0.7 3.2-2.2 5.6-2.8 1.8-5 2.4-8.4 2.2-7.2-2.1-12.5-11.4-16.9-17-2.3-2.7-4.7-5.1-7.2-7.6q0 0.9 0 1.8-0.1 4-0.3 7.9c0 1.4 0 1.4 0 2.8-0.2 6.8-0.2 6.8-2.5 10.1-3.2 2.1-5.5 1.9-9.2 1.4-2.5-1.3-3.7-2.1-4.6-4.7-0.5-2.9-0.5-5.8-0.6-8.7q0-2 0-4 0-2.1 0-4.3 0-2.1 0-4.3 0-4.6 0-9.2-0.1-5.9-0.1-11.8 0-4.5 0-9 0-2.2 0-4.4-0.1-3-0.1-6 0-1.8 0-3.5c0.4-3.5 1.3-5.3 3.4-8.1 4.5-3 8.8-2.3 14.1-2.3zm-1.1 16.3c0.3 5.9 0.7 11.9 1 18 8.7 0.1 8.7 0.1 16-3 2.3-3.5 2.6-4.9 2-9-2.2-2.6-4-4.5-7-6q-3.1-0.1-6.1-0.1-2.9 0.1-5.9 0.1z"/>
		<path class="s0" d="m206 97.4c2.2 1.7 3.1 3 4 5.6-0.1 3.9-0.6 5.5-3.1 8.4-3.9 2.1-5.7 1.8-9.9 0.6q-2.6-1.5-5.1-3.1c-3.5-1.7-7.1-2.1-10.9-1.9-3.5 1.3-3.5 1.3-6 3q0 2.5 0 5 2.3 1.1 4.6 2.1 1.5 0.7 3.1 1.4 3.4 1.5 6.9 2.9c9.2 3.7 16.7 7.1 20.9 16.6 2.2 6.4 2.1 11.7-0.5 18-4 7.8-9.9 11.3-18 14-13.4 0.9-23.5-0.6-34.2-9.3-2.5-2.4-3.7-4.1-4.2-7.6 0.4-3.1 0.4-3.1 2.5-6 3.5-2.5 4.7-2.6 8.9-2.1 2.7 1.5 2.7 1.5 5.2 3.4 6.2 4.8 11.1 5.2 18.8 4.6 3.5-1.3 4.5-2 6.1-5.4-0.1-3.1-1.1-4.2-3.3-6.3-4.6-3.3-10.3-4.9-15.6-6.8-7.2-2.8-12.5-5.9-17.1-12.1-2.1-6.4-2.3-13.5 0.5-19.8 4-6.7 9.3-10.2 16.9-12.1 11-2.1 20 1.3 29.5 6.9z"/>
		<path class="s0" d="m52 90.4c4.1 0.8 5.3 2.3 8 5.6 1.5 3.2 2.7 6.5 3.8 9.9 0.5 1.4 0.5 1.4 1 2.9q1.5 4.5 3 9 1.1 3.1 2.1 6.2 2.6 7.5 5.1 15 0.6-1.8 1.2-3.7 2.3-6.8 4.6-13.5 1-3 2-5.9 1.4-4.2 2.8-8.4 0.5-1.3 0.9-2.7c3.6-10.6 3.6-10.6 8.5-13.8 3.4 0.2 6 0.4 8.9 2.2 2.1 3.4 2.3 6.8 1.5 10.8q-0.5 1.5-1.1 3.1c-0.6 1.7-0.6 1.7-1.2 3.5q-0.6 2-1.3 3.9-0.6 1.9-1.3 3.9-1.4 4.2-2.8 8.3-1.8 5.3-3.6 10.6-1.7 5-3.4 10.1-0.3 1-0.6 1.9c-5.9 17.3-5.9 17.3-8.8 20.6-3.3 1.6-6.7 2-10.3 1.1-3.7-3.1-5.1-6.1-6.7-10.7q-0.4-1-0.7-2.1-0.9-2.3-1.7-4.6-1.5-4.2-3-8.4-2.8-8-5.6-16-1.2-3.4-2.4-6.7-1.7-4.9-3.4-9.8-0.5-1.4-1.1-3c-3.1-8.9-3.1-8.9-2.4-13.7 2.5-3.3 3.9-4.8 8-5.6z"/>
		<path class="s0" d="m278.1 88.6q1.3 0 2.6 0 2.7-0.1 5.5 0 4.2 0 8.4-0.1 2.7 0 5.3 0c1.3 0 1.3 0 2.6 0 4 0 6 0.2 9.5 2.4 2.4 2.5 3 3.6 3 7.1-2.3 5.6-2.3 5.6-5 7q-3.3 0.1-6.6 0.1-1.8-0.1-3.6-0.1-1.4 0-2.8 0 0 1.1 0 2.2 0.1 10.3 0.2 20.6 0 5.3 0.1 10.6 0.1 6.1 0.1 12.2 0 1.9 0.1 3.8 0 1.8 0 3.6 0 1.6 0 3.2c-0.6 3.5-2 5.2-4.5 7.8-2 0.6-2 0.6-4 0.6q-1 0-2 0c-2.9-0.9-4.1-2.3-6-4.6-0.5-2.8-0.5-2.8-0.5-6q0-1.8 0-3.6 0.1-1.9 0.1-3.9 0-2 0-4 0.1-5.3 0.1-10.6 0.1-5.4 0.1-10.8 0.1-10.5 0.2-21.1-1.3 0-2.7 0.1c-1.8 0-1.8 0-3.6 0q-1.7 0.1-3.5 0.1c-3.2-0.2-3.2-0.2-6.6-2.2-1.9-3.5-1.9-5.3-1.5-9.1 2.8-5.9 9.4-5.4 15-5.3z"/>
		<path class="s0" d="m241.6 91c3.2 0.9 4.5 1.4 6.4 4 1.4 2.9 1.2 5.3 1.2 8.5q0 1 0 2 0 3.3 0 6.6 0 1.1 0.1 2.3 0 6 0 12 0 6.1 0.1 12.3 0 4.8 0 9.5 0 2.3 0.1 4.6 0 3.1 0 6.3c0 1.8 0 1.8 0 3.7-0.6 3.8-1.8 5.5-4.5 8.2-2 0.6-2 0.6-4 0.6q-1 0-2 0c-2.9-0.9-4.1-2.2-6-4.6-0.5-3.1-0.5-3.1-0.5-6.9q0-1-0.1-2.1 0-3.4 0-6.7 0-2.4 0-4.8 0-4.9 0-9.9 0-6.3 0-12.6 0-4.9 0-9.8 0-2.3-0.1-4.6 0-3.3 0.1-6.6 0-1.8 0-3.7c1-5.5 3.6-8.3 9.2-8.3z"/>
		<path class="s0" d="m134 92c2.4 2.3 3 3.7 3.4 7.1q0 1.8 0 3.7 0 1 0 2 0 3.4 0 6.7 0 2.4 0 4.7 0.1 4.9 0 9.7 0 6.3 0.1 12.5 0 4.8 0 9.6 0 2.3 0 4.6 0 3.3 0 6.5 0 1.8 0 3.7c-0.6 3.8-1.8 5.5-4.5 8.2-2 0.6-2 0.6-4 0.6q-1 0-2 0c-2.9-0.9-4.1-2.2-6-4.6-0.5-3.1-0.5-3.1-0.5-6.9q0-1 0-2.1 0-3.4 0-6.8 0-2.3 0-4.7 0-5 0-9.9 0.1-6.4 0-12.7 0-4.9 0.1-9.8 0-2.3 0-4.7 0-3.2 0-6.5 0-1.8 0-3.8c0.4-3.3 1-4.7 3.4-7.1 3.8-1.3 6.1-0.9 10 0z"/>
		<path class="s0" d="m62 53c2.9 1.5 2.9 1.5 5 4 0.7 2.8 0.6 5.2 0 8-1.6 2.5-1.6 2.5-4 4-3.9 0.6-6 0.7-9.4-1.6-2-2.9-2.5-4.9-2.6-8.4 1.8-5.5 5.5-6.7 11-6z"/>
		<path class="s0" d="m452.5 197.6q1.2 0 2.3 0c2.7 0.5 3.6 1.3 5.2 3.4 1.1 3.7 1.3 5.3-0.4 8.8-1.6 2.2-1.6 2.2-2.6 3.2-4 0.5-7.7 0.9-11.1-1.5-1.4-3.8-1.3-6.5-0.9-10.5 2.2-3 3.9-3.4 7.5-3.4z"/>
		<path class="s0" d="m456 53c2.6 1.9 3.7 3.4 4.9 6.4 0.1 3.5-1.1 5.6-2.9 8.6-2.9 1.4-4.8 1.3-8 1-2.9-1.5-2.9-1.5-5-4-0.7-2.8-0.7-5.2 0-8 3.3-3.8 6-4.8 11-4z"/>
		<path class="s0" d="m58.8 197.7c3 0 4.1 0.2 6.7 1.9 2.1 3.3 2 5.5 1.5 9.4-0.9 2.4-0.9 2.4-3 4-3.1 0.5-5.9 0.6-9 0-2.4-1.9-3-2.9-3.9-5.9-0.1-3.7 0.7-5.2 2.9-8.1 1-1 1-1 4.8-1.3z"/>
	</g>
</svg>