<?xml version="1.0" encoding="UTF-8"?>
<svg version="1.1" xmlns="http://www.w3.org/2000/svg" width="512" height="512">
<path d="M0 0 C1.63548865 -0.00967334 1.63548865 -0.00967334 3.30401748 -0.0195421 C4.50652635 -0.01644489 5.70903521 -0.01334769 6.94798374 -0.01015663 C8.22179309 -0.01468774 9.49560244 -0.01921886 10.80801207 -0.02388728 C14.3508285 -0.0361526 17.89355076 -0.03585268 21.43638361 -0.03349853 C25.25445386 -0.03309125 29.07249356 -0.04412087 32.89054966 -0.05361366 C40.37321884 -0.07024355 47.85585652 -0.07572409 55.33854263 -0.07683842 C61.4187243 -0.07778787 67.49889554 -0.08189302 73.57907391 -0.08823967 C90.80640096 -0.10585686 108.03370306 -0.1150777 125.26103919 -0.11357872 C126.19023471 -0.11349881 127.11943022 -0.1134189 128.07678318 -0.11333656 C129.47227227 -0.11321392 129.47227227 -0.11321392 130.89595307 -0.1130888 C145.97950919 -0.11227558 161.06296552 -0.13142113 176.14649277 -0.1596133 C191.62326403 -0.18831293 207.09998658 -0.20215523 222.57678515 -0.20042574 C231.2702522 -0.19976087 239.96361463 -0.20529575 248.65705776 -0.22678185 C256.05772468 -0.24495521 263.45823955 -0.24937273 270.85891908 -0.235763 C274.63666402 -0.229214 278.41411694 -0.22918514 282.19183445 -0.2464695 C286.28273043 -0.26499472 290.37294458 -0.2526965 294.46385288 -0.23720741 C296.2642701 -0.2526381 296.2642701 -0.2526381 298.10105938 -0.26838052 C299.19399289 -0.25918293 300.28692641 -0.24998534 301.41297913 -0.24050903 C302.82993439 -0.24116114 302.82993439 -0.24116114 304.27551502 -0.24182642 C307.51692876 0.40686744 308.69528372 1.74356152 310.76941013 4.25726891 C312.18828565 7.09501994 311.89211772 9.47365202 311.88966465 12.64792442 C311.89094629 13.64279092 311.89094629 13.64279092 311.89225382 14.65775573 C311.89390693 16.89033538 311.88839 19.12284066 311.88293552 21.35541344 C311.88265359 22.95174724 311.88281151 24.54808117 311.88337803 26.1444149 C311.88366576 30.48714446 311.87777293 34.82984659 311.87080407 39.17256975 C311.86456652 43.70762717 311.86396642 48.24268516 311.86277866 52.7777462 C311.85966654 61.36959935 311.85145474 69.96143983 311.84142917 78.55328739 C311.83026436 88.33307341 311.82475666 98.11286003 311.81973374 107.89265084 C311.80927204 128.01419728 311.79167488 148.1357323 311.76941013 168.25726891 C312.39931355 168.55129097 313.02921696 168.84531303 313.67820835 169.14824486 C316.19292389 170.48187035 317.06588653 171.74568286 318.58581638 174.13617516 C319.10031345 174.94457848 319.61481052 175.7529818 320.14489841 176.58588219 C323.07891811 181.41065578 325.90857647 186.29025842 328.70691013 191.19476891 C329.69933152 192.92461451 330.69175778 194.65445733 331.68447971 196.38413048 C332.70705104 198.16666762 333.72831148 199.94995087 334.7493906 201.73334312 C337.90910925 207.24916678 341.09052735 212.75247636 344.26941013 218.25726891 C345.51950889 220.4238786 346.76950864 222.59054541 348.01941013 224.75726891 C348.63816013 225.82976891 349.25691013 226.90226891 349.89441013 228.00726891 C351.76941013 231.25726891 353.64441013 234.50726891 355.51941013 237.75726891 C356.44910618 239.36855675 356.44910618 239.36855675 357.39758396 241.01239586 C358.63743737 243.16172306 359.87686364 245.31129671 361.11584568 247.46112633 C364.04104776 252.53561379 366.97052736 257.60748508 369.91531467 262.6706295 C371.30489643 265.06042558 372.69203185 267.45163727 374.07898045 269.84296227 C375.05804266 271.52867479 376.04063619 273.21233477 377.02331638 274.89594078 C377.61628513 275.91881187 378.20925388 276.94168297 378.82019138 277.99555016 C379.34266453 278.89314049 379.86513767 279.79073082 380.40344334 280.71552086 C384.45794033 288.26000131 385.26876296 296.31679505 383.15222263 304.70258141 C378.83453023 314.44604656 368.40972931 319.46441332 359.51941013 324.25726891 C357.38860176 325.4228393 355.25839173 326.58950421 353.12878513 327.75726891 C352.08254978 328.32767906 351.03631443 328.89808922 349.95837498 329.48578453 C345.70491552 331.84860047 341.52375261 334.3268609 337.34899998 336.82562828 C330.73511708 340.49625191 324.09390444 341.00335578 316.76941013 339.25726891 C310.64304746 336.82617261 306.59967542 333.57021753 302.76941013 328.25726891 C297.08438478 329.90293414 292.00259377 332.54759675 286.76941013 335.25726891 C287.25087498 336.53344078 287.25087498 336.53344078 287.74206638 337.83539391 C290.01407607 345.40300033 290.01075908 353.62781215 286.58191013 360.81976891 C284.4426734 364.52696892 281.97538816 367.39788309 278.76941013 370.25726891 C278.10941013 371.24726891 277.44941013 372.23726891 276.76941013 373.25726891 C277.39686925 374.93908854 278.07037411 376.6039175 278.76941013 378.25726891 C279.78743963 388.58299667 278.6971603 395.966444 272.14441013 404.00726891 C267.56981654 408.84948041 262.93022317 411.88418689 256.19909763 412.48773766 C254.05455793 412.50454439 251.90970601 412.39316071 249.76941013 412.25726891 C249.68691013 413.41226891 249.60441013 414.56726891 249.51941013 415.75726891 C248.48130458 423.60534689 245.01725699 428.81501626 238.91784763 433.78070641 C233.81247348 437.28949083 228.99063735 438.72386095 222.76941013 438.25726891 C222.87253513 439.20601891 222.97566013 440.15476891 223.08191013 441.13226891 C223.04421192 447.33990771 219.95387267 452.76539799 215.93737888 457.34711266 C209.41160074 463.43526465 203.29456259 465.5661356 194.45691013 465.65570641 C187.13910548 464.57079932 180.84400531 460.81559964 174.51941013 457.19476891 C172.9520793 456.30738307 171.38438361 455.42064127 169.81628513 454.53461266 C169.13404881 454.14523521 168.45181248 453.75585777 167.74890232 453.35468102 C165.78145183 452.26394471 163.78855168 451.24849924 161.76941013 450.25726891 C161.40589451 450.77676109 161.04237888 451.29625328 160.66784763 451.83148766 C155.59809921 458.86413868 150.51470776 464.29711599 141.76941013 466.25726891 C133.18044269 467.2991259 126.4194353 465.84047569 119.53894138 460.53851891 C116.95507799 458.31705529 114.47276484 456.10389957 112.29284763 453.47992516 C111.79011326 453.07644859 111.28737888 452.67297203 110.76941013 452.25726891 C108.85940175 452.52005776 108.85940175 452.52005776 106.76941013 453.25726891 C96.56362162 454.0154132 89.79784973 453.06345538 81.95691013 446.38226891 C78.8848676 443.60927476 76.65525677 440.95757367 74.76941013 437.25726891 C74.76941013 436.26726891 74.76941013 435.27726891 74.76941013 434.25726891 C74.0075742 434.30367516 73.24573826 434.35008141 72.46081638 434.39789391 C62.76102601 434.73696273 55.55844145 432.75813238 48.34362888 426.08148766 C44.06711955 421.12583044 41.47765396 415.71843508 41.45691013 409.13226891 C41.56003513 407.85351891 41.66316013 406.57476891 41.76941013 405.25726891 C40.82066013 405.21601891 39.87191013 405.17476891 38.89441013 405.13226891 C32.61897671 404.19031744 26.97155626 400.8302076 22.86706638 396.03461266 C17.80380623 388.61922676 15.69633196 382.27359238 16.76941013 373.25726891 C17.67092216 370.77150979 18.70980645 368.53971998 19.99206638 366.22992516 C21.01169321 363.64242994 20.87190747 362.81730508 19.76941013 360.25726891 C18.21783723 358.07691599 16.64454767 356.01423407 14.95691013 353.94476891 C14.47568699 353.34390465 13.99446384 352.74304039 13.49865818 352.12396812 C12.46898969 350.83949021 11.43642084 349.55733293 10.40124607 348.27728844 C8.71674394 346.19207439 7.04261202 344.09889914 5.37097263 342.00336266 C2.50947891 338.41673898 -0.35883732 334.83568307 -3.23058987 331.25726891 C-3.78746487 331.73937828 -4.34433987 332.22148766 -4.91808987 332.71820641 C-11.45932466 338.13240412 -16.33813793 340.55597883 -24.85558987 340.31976891 C-32.01630096 339.32762219 -38.03302608 335.7587617 -44.23058987 332.25726891 C-45.63921291 331.46304527 -45.63921291 331.46304527 -47.07629299 330.65277672 C-50.26044751 328.84655456 -53.43506526 327.02480552 -56.60558987 325.19476891 C-57.62797756 324.60542564 -58.65036526 324.01608238 -59.7037344 323.40888023 C-79.06975172 312.07062936 -79.06975172 312.07062936 -82.04699612 302.68305016 C-84.2013229 292.96825581 -81.927659 285.60459035 -76.98058987 277.19476891 C-76.54440334 276.43148277 -76.10821682 275.66819664 -75.65881252 274.88178062 C-74.19619317 272.33223734 -72.71502844 269.79416409 -71.23058987 267.25726891 C-70.16012634 265.41751302 -69.0898184 263.57766661 -68.01965237 261.73773766 C-66.29211053 258.77219102 -64.56215308 255.80812701 -62.82726955 252.84686852 C-58.24008139 245.01461942 -53.72317189 237.14395152 -49.23058987 229.25726891 C-43.60652099 219.38734207 -37.93439902 209.54712117 -32.19006252 199.74652672 C-29.45156206 195.07343116 -26.72999015 190.392736 -24.05480862 185.68305016 C-23.55569973 184.80785728 -23.05659084 183.93266441 -22.54235744 183.03095055 C-21.61626455 181.40426877 -20.69513749 179.77474485 -19.78015041 178.14179039 C-17.63100791 174.37583858 -15.64255522 171.03955825 -12.23058987 168.25726891 C-11.57058987 168.25726891 -10.91058987 168.25726891 -10.23058987 168.25726891 C-10.23243345 167.42605145 -10.23427704 166.59483398 -10.23617649 165.73842812 C-10.2803207 145.5249574 -10.31342947 125.31149497 -10.33421421 105.09798622 C-10.34453238 95.32293785 -10.35860305 85.54792164 -10.38146877 75.77289391 C-10.40138609 67.2542496 -10.41430237 58.73562857 -10.41876686 50.21696162 C-10.42137705 45.70525465 -10.42752336 41.19361429 -10.44204998 36.68192863 C-10.4556077 32.43683872 -10.45981618 28.19184298 -10.45680523 23.94673347 C-10.4573562 22.38745296 -10.46134443 20.82816936 -10.46900082 19.26890755 C-10.47893383 17.14196662 -10.4765649 15.01538243 -10.4710989 12.88843346 C-10.47294249 11.69747692 -10.47478607 10.50652039 -10.47668552 9.27947426 C-10.23523706 6.31433926 -9.8983576 4.69042984 -8.23058987 2.25726891 C-4.90318675 0.03900016 -3.87607149 0.00578184 0 0 Z M6.76941013 17.25726891 C6.76941013 65.43726891 6.76941013 113.61726891 6.76941013 163.25726891 C12.70941013 165.73226891 12.70941013 165.73226891 18.76941013 168.25726891 C20.78618596 169.29343347 22.78350471 170.37111881 24.73425388 171.52680016 C25.71289402 172.10164146 26.69153416 172.67648277 27.69983006 173.26874352 C28.69216648 173.86308189 29.68450291 174.45742027 30.70691013 175.06976891 C31.75016453 175.689244 32.79341892 176.3087191 33.86828709 176.94696617 C35.91868903 178.16654263 37.96719464 179.38931441 40.01355076 180.61566734 C42.34139709 182.00231145 44.68097346 183.36120605 47.03503513 184.70258141 C54.55117843 189.07841826 58.86713329 192.36569987 62.08191013 200.63226891 C62.64537157 203.60324741 62.84240502 205.997596 62.81237888 208.98383141 C62.80307346 210.18773521 62.80307346 210.18773521 62.79358006 211.41596031 C62.78560398 212.02359215 62.77762791 212.63122398 62.76941013 213.25726891 C68.67216377 215.4269325 74.58086477 217.57973901 80.49401951 219.72089195 C82.50519805 220.45138861 84.51497932 221.18574415 86.52331638 221.92401695 C89.40905617 222.98407008 92.29952381 224.03017884 95.19128513 225.07367516 C96.08933872 225.40694313 96.98739231 225.74021111 97.91265965 226.08357811 C98.7532291 226.38396492 99.59379856 226.68435173 100.45983982 226.99384117 C101.19708286 227.26253517 101.9343259 227.53122917 102.69390965 227.80806541 C105.11106025 228.33121272 106.46064294 228.10044144 108.76941013 227.25726891 C110.31410127 226.08475878 111.80994471 224.84680115 113.26941013 223.56976891 C123.1678142 215.42588254 134.06815115 210.85833477 146.89441013 210.81976891 C147.78821384 210.81662682 148.68201756 210.81348473 149.60290623 210.81024742 C158.96917809 210.96796346 167.98056829 212.69381406 177.16833591 214.39252281 C197.33548298 218.08127832 219.09542049 219.16850649 238.76941013 212.25726891 C238.70753513 211.12289391 238.64566013 209.98851891 238.58191013 208.81976891 C238.60576786 202.07996247 240.48716217 196.04039331 244.95568943 190.89496422 C249.10930181 187.14446862 254.21394275 184.64454832 259.08191013 181.94476891 C260.25597975 181.28342098 261.42947961 180.6210606 262.60241795 179.95770836 C264.92049353 178.64893467 267.2423623 177.34782823 269.56677341 176.05023766 C272.33177003 174.50227797 275.08358386 172.93505414 277.82800388 171.35101891 C279.22504376 170.54876918 280.62217036 169.74667044 282.01941013 168.94476891 C282.63082859 168.59051842 283.24224705 168.23626793 283.87219334 167.87128258 C287.52544821 165.80194916 290.68642042 164.61826548 294.76941013 163.25726891 C294.76941013 115.07726891 294.76941013 66.89726891 294.76941013 17.25726891 C199.72941013 17.25726891 104.68941013 17.25726891 6.76941013 17.25726891 Z M-3.23058987 184.25726891 C-5.11203056 186.90969084 -5.11203056 186.90969084 -6.72668362 189.92914391 C-7.36025784 191.05578453 -7.99383205 192.18242516 -8.64660549 193.34320641 C-9.32045519 194.56454867 -9.99428275 195.78590315 -10.66808987 197.00726891 C-11.37845321 198.27618474 -12.09005995 199.54440523 -12.80285549 200.81195641 C-13.89291625 202.75045561 -14.98234727 204.68926859 -16.06808376 206.63019371 C-19.38098104 212.5499533 -22.7937621 218.40865829 -26.23058987 224.25726891 C-31.28835447 232.89138399 -36.27656251 241.56340743 -41.23058987 250.25726891 C-46.48079 259.46923842 -51.76471313 268.65999806 -57.10558987 277.81976891 C-57.69469143 278.83103844 -58.28379299 279.84230797 -58.89074612 280.88422203 C-60.94191647 284.3945979 -62.97481907 287.87361271 -65.23058987 291.25726891 C-65.73066781 294.71512906 -65.73066781 294.71512906 -65.23058987 298.25726891 C-62.45922503 301.59134536 -59.28064941 303.5846258 -55.53918362 305.71820641 C-53.8733926 306.67340172 -53.8733926 306.67340172 -52.17394924 307.64789391 C-51.00536373 308.3094128 -49.83674379 308.97087088 -48.66808987 309.63226891 C-47.53822659 310.27937828 -46.4083633 310.92648766 -45.24426174 311.59320641 C-41.91401925 313.49510655 -38.57356524 315.37785989 -35.23058987 317.25726891 C-34.18250149 317.85644127 -33.13441311 318.45561363 -32.05456448 319.07294273 C-30.59095486 319.89701622 -30.59095486 319.89701622 -29.09777737 320.73773766 C-28.23652248 321.22653404 -27.3752676 321.71533043 -26.48791409 322.21893883 C-24.14297475 323.4958336 -24.14297475 323.4958336 -20.91808987 323.19476891 C-13.71825772 318.00419224 -9.60999951 307.88581755 -5.29308987 300.31976891 C-4.30066848 298.5899233 -3.30824222 296.86008048 -2.31552029 295.13040733 C-1.29294896 293.34787019 -0.27168852 291.56458694 0.7493906 289.78119469 C3.90910903 284.26537141 7.09043026 278.76200501 10.26941013 273.25726891 C14.046883 266.71270955 17.82223468 260.16695731 21.58972263 253.61664391 C22.21991306 252.52190758 22.85010349 251.42717125 23.4993906 250.29926109 C24.75193859 248.12335836 26.00358243 245.94693487 27.25427341 243.76996422 C30.31004324 238.46466211 33.40044116 233.18523715 36.56628513 227.94476891 C37.46999851 226.44284996 37.46999851 226.44284996 38.39196873 224.91058922 C39.52716902 223.02987009 40.67024688 221.15387428 41.82263279 219.28363609 C45.65419039 213.19959689 45.65419039 213.19959689 46.76941013 206.25726891 C43.97035448 202.05467531 40.94315627 199.89046271 36.57019138 197.44476891 C35.97570698 197.10856529 35.38122257 196.77236168 34.76872349 196.42597008 C32.87842957 195.35993682 30.98048874 194.30846205 29.08191013 193.25726891 C27.82682065 192.55248664 26.57225824 191.84676489 25.31823826 191.14008141 C22.90278243 189.78069439 20.48229529 188.43106111 18.05700779 187.08930016 C16.03032058 185.95991795 14.01223819 184.81472581 12.00915623 183.64398766 C11.2223447 183.18637047 10.43553318 182.72875328 9.62487888 182.25726891 C8.63524143 181.66945641 8.63524143 181.66945641 7.62561131 181.06976891 C2.72554469 178.92490218 0.24959231 180.93782702 -3.23058987 184.25726891 Z M286.45691013 185.06976891 C285.58550388 185.56879723 284.71409763 186.06782555 283.81628513 186.58197594 C282.01436765 187.61729391 280.21668525 188.66001622 278.42321873 189.70990562 C275.90244036 191.17970261 273.36553287 192.61570102 270.82019138 194.04242516 C269.30260597 194.90454858 267.78564687 195.76777573 266.26941013 196.63226891 C265.57033543 197.02390221 264.87126072 197.41553551 264.15100193 197.81903648 C260.21740837 200.10743407 257.07506555 202.19784368 254.76941013 206.25726891 C254.75529285 211.4241958 257.24188662 215.24274326 259.89441013 219.50726891 C260.81125712 221.02330047 261.72651881 222.54029148 262.64050388 224.05805016 C263.14178806 224.88643394 263.64307224 225.71481773 264.15954685 226.56830406 C267.15597174 231.57325154 270.04993825 236.63752719 272.95691013 241.69476891 C274.25236067 243.94353733 275.54793522 246.19223431 276.84362888 248.44086266 C277.49379978 249.56992027 278.14397068 250.69897789 278.81384373 251.86224937 C282.58117442 258.40263646 286.35425322 264.93970991 290.12780857 271.47650719 C293.34611446 277.05248766 296.55973778 282.63110119 299.76550388 288.21430016 C302.89213883 293.65728828 306.0300746 299.09353872 309.18200779 304.52191734 C310.16374051 306.21360196 311.14307423 307.9066844 312.11853123 309.60199547 C313.19838379 311.47373991 314.29245301 313.3359836 315.39441013 315.19476891 C315.94355076 316.13191734 316.49269138 317.06906578 317.05847263 318.03461266 C319.11014805 320.69991702 320.63335592 322.0111242 323.76941013 323.25726891 C328.00201571 322.13509012 331.63215564 320.38361827 335.43737888 318.24555016 C336.49634373 317.65193687 337.55530857 317.05832359 338.64636326 316.44672203 C339.73884373 315.8273275 340.8313242 315.20793297 341.95691013 314.56976891 C343.03005466 313.96971031 344.1031992 313.36965172 345.20886326 312.75140953 C357.46901207 307.03519738 357.46901207 307.03519738 366.76941013 298.25726891 C367.8499284 291.03787694 364.41405789 286.43674218 360.70691013 280.44476891 C359.41167212 278.29040218 358.1174347 276.13543362 356.82409763 273.97992516 C356.15217381 272.87020348 355.48024998 271.7604818 354.78796482 270.61713219 C351.56220196 265.24788345 348.44918569 259.81497627 345.33191013 254.38226891 C344.0731423 252.19717328 342.81402582 250.01227847 341.55456638 247.82758141 C340.9295322 246.74251305 340.30449802 245.65744469 339.66052341 244.53949547 C337.77992907 241.27552563 335.89800468 238.01232702 334.01550388 234.74945641 C333.39659275 233.67663414 332.77768162 232.60381187 332.1400156 231.49847984 C330.89875628 229.34774129 329.65689987 227.19734722 328.41442966 225.04730797 C325.506004 220.01234897 322.60402626 214.97403491 319.72665501 209.92127037 C318.71133356 208.13907747 317.69382739 206.35814978 316.67566013 204.57758141 C315.40177951 202.34829031 314.13197103 200.11666522 312.86706638 197.88226891 C307.54683155 187.36689061 307.54683155 187.36689061 298.97644138 179.95648766 C294.11970566 180.41199149 290.61057742 182.61772919 286.45691013 185.06976891 Z M113.64831638 245.33930016 C111.84662976 247.17844388 109.98208316 248.84282545 108.01941013 250.50726891 C104.29867435 253.70814141 100.80684781 257.10717559 97.33191013 260.56976891 C96.79920506 261.09796227 96.26649998 261.62615562 95.71765232 262.17035484 C90.70271831 267.20478957 90.51091155 270.51640799 90.20691013 277.44476891 C90.16445164 278.3628231 90.12199314 279.2808773 90.07824802 280.22675133 C89.63126528 290.9012748 89.67407957 301.57584605 89.76941013 312.25726891 C93.35480207 313.45239955 94.49517564 313.00599867 98.01941013 311.81976891 C98.93206638 311.53230797 99.84472263 311.24484703 100.78503513 310.94867516 C108.22671474 306.73107402 111.56522634 300.05371616 114.83801365 292.42426109 C119.1081349 282.54517908 122.61956519 275.28236133 132.90905857 271.17889977 C134.24020039 270.70752008 135.580176 270.26019022 136.92858982 269.840765 C138.99387661 269.21949948 138.99387661 269.21949948 141.77722263 267.96430016 C151.0401582 264.00797345 162.21900148 262.52545053 171.76941013 266.25726891 C183.01539395 271.52656812 193.62949669 278.20378699 204.32800388 284.48383141 C210.74917893 288.25157184 217.19352655 291.97817642 223.64441013 295.69476891 C224.71070652 296.30957115 225.77700291 296.9243734 226.87561131 297.55780602 C231.95355185 300.48491005 237.03302836 303.40932661 242.11447239 306.33034325 C243.89442353 307.35376146 245.67401683 308.37779904 247.45349216 309.4020443 C249.6829035 310.68505518 251.91300389 311.96686979 254.14392185 313.24725914 C255.15728611 313.83064049 256.17065037 314.41402184 257.21472263 315.01508141 C258.17024021 315.56196617 259.12575779 316.10885094 260.11023045 316.67230797 C262.55199942 318.12768478 264.86266656 319.69577032 267.19909763 321.31195641 C269.96144236 323.10012097 269.96144236 323.10012097 273.18737888 322.85883141 C274.0394492 322.33031578 274.89151951 321.80180016 275.76941013 321.25726891 C277.2399491 320.52633781 278.71581356 319.80607834 280.19519138 319.09320641 C281.8251262 318.27493954 283.45400769 317.45457164 285.08191013 316.63226891 C285.91786716 316.21203453 286.7538242 315.79180016 287.61511326 315.35883141 C289.66746713 314.3267906 291.71885992 313.29288747 293.76941013 312.25726891 C292.47832822 308.86724169 291.01159472 305.73566059 289.22253513 302.58148766 C288.71488621 301.68405846 288.20723728 300.78662926 287.68420506 299.86200523 C287.13482273 298.89931725 286.58544041 297.93662926 286.01941013 296.94476891 C285.44231297 295.92858482 284.8652158 294.91240074 284.27063084 293.8654232 C279.65243727 285.75477138 274.95851964 277.68925884 270.23791599 269.63788414 C266.93541973 263.99762972 263.66554273 258.34042164 260.43347263 252.65961266 C260.07004261 252.02118935 259.70661259 251.38276604 259.33216953 250.72499657 C257.55429617 247.60035532 255.78002499 244.47373372 254.01037693 241.34442711 C253.3701157 240.21738365 252.72985447 239.09034019 252.07019138 237.92914391 C251.50469578 236.9297982 250.93920017 235.9304525 250.35656834 234.90082359 C248.94912954 232.55660774 247.45766921 230.40462996 245.76941013 228.25726891 C244.52675388 228.54601891 243.28409763 228.83476891 242.00378513 229.13226891 C215.93153622 234.67462499 188.74187454 233.93379043 162.76941013 228.25726891 C142.39947224 223.87688988 127.81808671 230.53976226 113.64831638 245.33930016 Z M54.76941013 229.25726891 C54.39356785 229.90872887 54.01772556 230.56018883 53.63049412 231.23139 C35.96081638 261.85883141 35.96081638 261.85883141 34.1087656 265.06879234 C32.87962402 267.19947843 31.65078427 269.33033867 30.42224216 271.46137047 C27.51204959 276.50855665 24.59903086 281.55404026 21.6750803 286.59326744 C20.64198074 288.37406892 19.60984842 290.15542749 18.57800388 291.93695641 C17.28434926 294.16983973 15.98888849 296.40167801 14.69128513 298.63226891 C11.52838445 304.09609295 8.51642499 309.57237959 5.76941013 315.25726891 C6.50804295 316.10547203 7.24667576 316.95367516 8.00769138 317.82758141 C15.79966304 326.82100396 23.60967908 335.90674717 30.45300388 345.65570641 C30.88741795 346.18422203 31.32183201 346.71273766 31.76941013 347.25726891 C32.42941013 347.25726891 33.08941013 347.25726891 33.76941013 347.25726891 C35.6658497 344.66673246 37.41097481 342.02058159 39.14050388 339.31781578 C43.54426527 332.66708399 48.86450936 328.08580467 56.76941013 326.25726891 C64.92120533 325.16145381 72.15738048 326.99219061 78.88269138 331.75336266 C81.7155032 334.10524161 83.71122859 336.16999659 85.76941013 339.25726891 C87.13066013 338.76226891 87.13066013 338.76226891 88.51941013 338.25726891 C97.73865796 335.68705436 106.38448996 336.8172835 114.76941013 341.25726891 C120.52649623 344.71152056 123.66935367 350.50346798 125.52722263 356.84320641 C126.00319063 358.96830295 126.39483547 361.11197763 126.76941013 363.25726891 C128.06878513 363.46351891 129.36816013 363.66976891 130.70691013 363.88226891 C137.34687818 365.35898104 142.43596422 368.86241652 147.14441013 373.69476891 C152.13453885 381.56381803 153.2454615 389.40257579 151.25378513 398.65180016 C151.01401951 399.44650719 151.01401951 399.44650719 150.76941013 400.25726891 C151.32628513 400.46480797 151.88316013 400.67234703 152.45691013 400.88617516 C159.40787701 403.6923932 165.54265118 407.05465342 169.15612888 413.87445641 C172.11866484 421.3795475 172.43400365 427.3808996 170.76941013 435.25726891 C174.43909634 437.4757427 178.13255922 439.65118389 181.83191013 441.81976891 C182.87024998 442.44818687 183.90858982 443.07660484 184.97839451 443.72406578 C191.00049551 447.49789931 191.00049551 447.49789931 197.83191013 448.31976891 C201.72143287 446.91292026 203.96827112 444.92274478 205.76941013 441.25726891 C206.57984924 438.11374752 206.35689373 436.62194771 205.76941013 433.25726891 C199.90270547 427.24570734 191.97175257 423.6714233 184.69909763 419.61762047 C182.94323449 418.63612338 181.19218328 417.64603341 179.44128513 416.65570641 C178.40068943 416.07482262 177.36009373 415.49393883 176.28796482 414.8954525 C173.76941013 413.25726891 173.76941013 413.25726891 171.76941013 410.25726891 C171.29778266 407.53718485 171.31556508 404.98033922 171.76941013 402.25726891 C173.82734422 399.72442695 175.13682441 399.34777584 178.33581638 398.89008141 C183.28379107 399.41921636 186.82217719 401.66263265 191.08191013 404.13226891 C191.95549168 404.62388512 192.82907322 405.11550133 193.72912693 405.622015 C198.06439044 408.07519716 202.3540229 410.59625128 206.61316013 413.17914391 C207.36814793 413.6343441 208.12313572 414.0895443 208.90100193 414.55853844 C210.31601372 415.41739816 211.72424967 416.28756097 213.12414646 417.17084312 C217.30855099 419.72526696 220.74182682 421.12960355 225.76941013 421.25726891 C228.87788054 419.78972411 231.22320592 417.34967734 232.76941013 414.25726891 C233.27011334 410.88369556 233.27011334 410.88369556 232.76941013 407.25726891 C229.49028976 403.44036082 225.94579632 400.93280982 221.62097263 398.40961266 C221.04535587 398.07103737 220.46973911 397.73246208 219.87667942 397.38362694 C218.05336575 396.31346001 216.22408459 395.25401592 214.39441013 394.19476891 C213.17525355 393.48127048 211.95649993 392.76708303 210.73816013 392.05219078 C206.02634801 389.2931497 201.31335966 386.54811118 196.51550388 383.94086266 C193.76941013 382.25726891 193.76941013 382.25726891 192.20691013 379.38226891 C191.69123193 375.69885316 192.20961345 373.61083178 193.76941013 370.25726891 C197.16415787 368.55989504 200.12807619 368.55483708 203.76941013 369.25726891 C208.46214556 371.35530539 212.8113541 373.98525 217.20691013 376.63226891 C218.45872866 377.36709893 219.71158523 378.10016334 220.96545506 378.83148766 C226.39349672 382.00811742 231.77903699 385.25208548 237.13659763 388.54633141 C237.90302586 389.01248863 238.66945408 389.47864586 239.4591074 389.95892906 C240.82585177 390.79485161 242.18399771 391.6450848 243.53088474 392.51264 C247.7527595 395.10906183 250.84004237 395.86524413 255.76941013 395.25726891 C259.64890031 392.05247267 261.57767458 389.95093294 262.14441013 384.94476891 C261.66448607 380.22551558 260.28665094 379.33185355 256.76941013 376.25726891 C254.76220949 374.94994743 252.70541857 373.71659887 250.61316013 372.55023766 C249.73778599 372.05660477 249.73778599 372.05660477 248.84472752 371.5529995 C246.99055155 370.50909176 245.13044627 369.47638808 243.26941013 368.44476891 C235.98330002 364.37523354 228.70429697 360.29503163 221.55066013 355.99555016 C220.50974216 355.3733358 219.4688242 354.75112144 218.39636326 354.11005211 C215.85150605 352.31517094 214.30610688 350.9507862 212.76941013 348.25726891 C212.83524276 344.50480939 212.95342208 342.19414408 215.45691013 339.31976891 C218.47167402 337.93460712 220.46196104 337.99223208 223.76941013 338.25726891 C226.66272068 339.53900719 226.66272068 339.53900719 229.65612888 341.32758141 C230.76021091 341.97726891 231.86429295 342.62695641 233.00183201 343.29633141 C234.15382421 343.9911476 235.30551587 344.6864623 236.45691013 345.38226891 C239.8169776 347.37628249 243.17906264 349.36674017 246.54431248 351.35199547 C248.65106946 352.59659285 250.75074642 353.85327515 252.84216404 355.12347984 C253.79397556 355.68067711 254.74578709 356.23787437 255.72644138 356.81195641 C256.557645 357.3093734 257.38884861 357.80679039 258.24524021 358.31928062 C261.51070821 359.53273725 263.4457098 359.20058452 266.76941013 358.25726891 C270.22651815 355.1759335 272.07199959 352.91928679 272.51941013 348.25726891 C272.30447673 345.83263719 272.04476993 344.57822614 270.44397068 342.71234703 C266.14050577 339.16093803 261.76185413 336.3552551 256.83191013 333.75726891 C255.22772279 332.88861353 253.62492995 332.01737942 252.02331638 331.14398766 C251.17269627 330.68040855 250.32207615 330.21682945 249.44567966 329.7392025 C244.67347095 327.09668226 239.97418374 324.3300207 235.26941013 321.56976891 C226.82707021 316.62499873 218.37134236 311.70502948 209.89441013 306.81976891 C208.29786594 305.89949913 208.29786594 305.89949913 206.66906834 304.96063805 C203.36940293 303.05913174 200.06940991 301.15819484 196.76941013 299.25726891 C192.57309703 296.83943228 188.3772073 294.42086229 184.18170261 292.00162315 C182.49842791 291.03120418 180.81483126 290.06134372 179.13122654 289.09149742 C178.10819431 288.50167076 177.08516209 287.9118441 176.03112888 287.30414391 C175.13353855 286.78690758 174.23594822 286.26967125 173.31115818 285.73676109 C171.57733491 284.72754306 169.8603681 283.68893695 168.15930271 282.62543297 C163.55892993 279.99181471 159.72811773 279.81649779 154.67956638 280.95258141 C151.31829833 281.94880321 148.04936917 283.0175114 144.76941013 284.25726891 C143.66230686 284.60446983 143.66230686 284.60446983 142.53283787 284.95868492 C137.85922626 286.63498912 135.35372916 288.19622217 132.98425388 292.63617516 C132.19993802 294.3527472 131.44159712 296.08137712 130.70691013 297.81976891 C129.87018295 299.62902291 129.02644781 301.43505278 128.17566013 303.23773766 C127.5665781 304.53783775 127.5665781 304.53783775 126.94519138 305.8642025 C121.95229719 316.02623508 115.01489749 323.1012648 104.33191013 327.06976891 C96.07307051 329.4684232 88.63259293 330.29763951 80.76941013 326.25726891 C77.0542319 323.25350778 75.2424311 320.75390198 73.76941013 316.25726891 C73.52649021 313.45258141 73.52649021 313.45258141 73.53894138 310.38226891 C73.54075413 308.67152184 73.54075413 308.67152184 73.54260349 306.92621422 C73.56206028 305.11008629 73.56206028 305.11008629 73.58191013 303.25726891 C73.58908054 302.01300133 73.59625095 300.76873375 73.60363865 299.48676109 C73.69043365 289.45968868 73.85428398 279.40177979 74.62658787 269.39984703 C74.79947248 267.27688729 74.79947248 267.27688729 74.72668552 265.22406578 C74.8537603 259.32779617 77.78698847 256.50296688 81.90026951 252.51117516 C82.70271091 251.76738609 83.50515232 251.02359703 84.33191013 250.25726891 C85.54137302 249.09517906 85.54137302 249.09517906 86.77526951 247.90961266 C88.7583851 246.00863795 90.75592346 244.12595766 92.76941013 242.25726891 C89.58290403 240.1329315 86.41204388 238.92262344 82.83581638 237.65570641 C82.16147053 237.41437981 81.48712467 237.17305321 80.79234409 236.92441368 C79.36838031 236.41638384 77.9436415 235.9105218 76.51818943 235.40668297 C74.34065 234.6353647 72.16730264 233.85298718 69.99401951 233.06976891 C68.60819294 232.57690285 67.22213269 232.08469327 65.83581638 231.59320641 C65.18778553 231.35886894 64.53975468 231.12453148 63.87208652 230.88309288 C60.58989488 229.73409711 58.3071377 229.25726891 54.76941013 229.25726891 Z M54.76941013 345.25726891 C52.82138339 347.58868389 51.17538096 350.0880413 49.51941013 352.63226891 C48.55923951 354.07678936 47.59829006 355.5207924 46.63659763 356.96430016 C46.15932224 357.68569176 45.68204685 358.40708336 45.19030857 359.15033531 C43.86303824 361.11843547 42.49318621 363.04224682 41.08972263 364.95648766 C40.67625584 365.52641441 40.26278904 366.09634117 39.83679295 366.68353844 C38.71387107 368.22445211 37.58177835 369.75867066 36.44909763 371.29242516 C34.49513558 374.74139538 33.90346433 377.30498135 33.76941013 381.25726891 C35.23695492 384.36573931 37.6770017 386.71106469 40.76941013 388.25726891 C44.14298348 388.75797211 44.14298348 388.75797211 47.76941013 388.25726891 C51.8043698 384.74718204 54.90478438 380.63072983 58.01941013 376.31976891 C58.48959568 375.66951744 58.95978123 375.01926598 59.44421482 374.34930992 C60.89590227 372.32550121 62.33449932 370.29299962 63.76941013 368.25726891 C64.23089451 367.6085482 64.69237888 366.9598275 65.16784763 366.29144859 C66.47338234 364.43974005 67.75062217 362.57179289 69.01941013 360.69476891 C69.41418552 360.13604088 69.80896091 359.57731285 70.2156992 359.00165367 C72.10583097 356.13236458 72.77935617 354.49889898 72.63659763 351.03070641 C71.45589576 347.25458781 69.90853418 345.64573286 66.76941013 343.25726891 C61.53384091 341.76139198 59.07788448 342.01946333 54.76941013 345.25726891 Z M87.76941013 362.25726891 C87.36496677 362.82719566 86.96052341 363.39712242 86.5438242 363.98431969 C84.22621317 367.26890988 81.95605515 370.58301166 79.71081638 373.91742516 C76.69414327 378.3921061 73.58064414 382.79447154 70.45691013 387.19476891 C69.45526543 388.61770487 68.4539499 390.04087262 67.45300388 391.46430016 C65.88546725 393.69058517 64.29946771 395.89234998 62.67956638 398.08148766 C60.22769294 401.47949579 58.86827709 403.80856501 57.95691013 407.94476891 C58.96140203 412.04000512 60.4319728 413.66027706 63.77722263 416.13226891 C67.22821628 418.08106532 68.91352376 418.27197585 72.76941013 417.25726891 C80.18830795 411.53270917 85.19696713 401.97578411 90.37487888 394.27680016 C94.0993261 388.74318261 97.94546549 383.2999683 101.81140232 377.86469078 C103.13607679 375.99923853 104.45473158 374.12977592 105.76941013 372.25726891 C106.16748875 371.69475426 106.56556736 371.13223961 106.97570896 370.55267906 C108.72242869 368.02674918 109.75815507 366.31729589 110.33191013 363.25726891 C109.57647403 359.22827635 108.04405113 356.64851838 104.76941013 354.25726891 C96.25922899 350.47137083 92.46591023 355.62239514 87.76941013 362.25726891 Z M116.76941013 385.25726891 C114.49065887 388.27922674 112.34423397 391.38419786 110.20691013 394.50726891 C108.97327276 396.29684011 107.73888358 398.08589327 106.50378513 399.87445641 C105.8843906 400.7726107 105.26499607 401.670765 104.62683201 402.59613609 C102.85536598 405.13411975 101.04912019 407.64156669 99.22253513 410.14008141 C98.67154148 410.89901695 98.12054783 411.6579525 97.5528574 412.43988609 C96.51478882 413.86590044 95.46878887 415.28618614 94.41369724 416.69965172 C91.67129406 420.49383827 89.89425256 423.41615713 89.76941013 428.25726891 C91.38753583 431.37365913 92.80246281 433.5481742 95.64441013 435.63226891 C98.56767654 436.49205314 100.7327599 436.62910363 103.76941013 436.25726891 C108.29959633 433.25453035 110.90376632 429.5250515 113.83191013 425.06976891 C114.79170338 423.64061436 115.75268411 422.21225675 116.71472263 420.78461266 C117.21133396 420.04452965 117.70794529 419.30444664 118.21960545 418.54193687 C121.31139427 413.98412972 124.51907245 409.5075308 127.7091074 405.01825523 C129.06800426 403.10170771 130.41952857 401.18017197 131.76941013 399.25726891 C132.17038914 398.69692955 132.57136814 398.13659019 132.98449802 397.55927086 C135.7678859 393.57336034 136.57021643 391.15108515 135.76941013 386.25726891 C132.5646139 382.37777873 130.46307417 380.44900446 125.45691013 379.88226891 C120.94931579 380.34066833 119.52576375 381.94190064 116.76941013 385.25726891 Z M134.12878513 424.59711266 C133.25402188 425.79270974 132.38427174 426.99198981 131.51941013 428.19476891 C131.07339451 428.78967125 130.62737888 429.38457359 130.16784763 429.99750328 C127.50898584 433.68365258 125.9349916 436.57462512 125.76941013 441.25726891 C127.38753583 444.37365913 128.80246281 446.5481742 131.64441013 448.63226891 C134.61002769 449.50450936 136.68866561 449.69737527 139.76941013 449.25726891 C143.77819568 445.7056837 146.90971793 441.64447558 150.01941013 437.31976891 C150.46542576 436.72486656 150.91144138 436.12996422 151.37097263 435.51703453 C154.02983442 431.83088523 155.60382867 428.9399127 155.76941013 424.25726891 C154.15128444 421.14087868 152.73635745 418.96636361 149.89441013 416.88226891 C141.84528018 414.51487774 138.79796698 418.53089362 134.12878513 424.59711266 Z " fill="#000000" transform="translate(105.23058986663818,22.74273109436035)"/>
<path d="M0 0 C1.08936356 -0.00571014 2.17872711 -0.01142029 3.30110168 -0.01730347 C4.50165192 -0.01842133 5.70220215 -0.01953918 6.93913269 -0.02069092 C8.19935745 -0.02565582 9.45958221 -0.03062073 10.75799561 -0.03573608 C14.22091184 -0.04886803 17.68380867 -0.05530673 21.14674592 -0.05974674 C23.31001882 -0.06267654 25.4732864 -0.0667812 27.63655663 -0.07125092 C34.40419834 -0.08492872 41.17182793 -0.09459366 47.93948251 -0.09845281 C55.75292866 -0.10293266 63.56619979 -0.12047587 71.37959272 -0.1494534 C77.41788142 -0.17107043 83.4561209 -0.18115712 89.49444789 -0.18249393 C93.10131503 -0.18354206 96.70801771 -0.18945135 100.31484413 -0.20731354 C104.33945454 -0.22685641 108.36369885 -0.2225052 112.38835144 -0.21600342 C113.58282898 -0.2252182 114.77730652 -0.23443298 116.00798035 -0.243927 C117.65471489 -0.23557327 117.65471489 -0.23557327 119.3347168 -0.22705078 C120.2861749 -0.22851734 121.237633 -0.2299839 122.21792316 -0.2314949 C125.38771176 0.21509635 127.27724275 1.2759314 129.85783386 3.14044189 C131.42254619 6.26986655 131.55485344 9.75126413 130.85783386 13.14044189 C128.78800062 15.72075811 127.5886098 16.99664664 124.29970551 17.64380646 C123.32780022 17.64531456 122.35589493 17.64682266 121.35453796 17.64837646 C119.6763372 17.66529541 119.6763372 17.66529541 117.9642334 17.68255615 C116.12975899 17.67041077 116.12975899 17.67041077 114.25822449 17.65802002 C112.32114876 17.66853394 112.32114876 17.66853394 110.34494019 17.67926025 C106.80561235 17.69749112 103.26675105 17.69042746 99.72741508 17.67774391 C96.02303182 17.66761484 92.31868843 17.67700932 88.61430359 17.68328857 C82.39348684 17.69056528 76.17286005 17.68097679 69.95207214 17.66192627 C62.76056205 17.6401573 55.56950556 17.64720866 48.37800646 17.66923189 C42.20292799 17.68738535 36.02798606 17.68994454 29.85288954 17.67947721 C26.16503432 17.67324191 22.47739229 17.67240744 18.78955078 17.68562317 C14.6785751 17.69932625 10.56838107 17.68033306 6.45744324 17.65802002 C5.2344603 17.66611694 4.01147736 17.67421387 2.75143433 17.68255615 C1.63263382 17.67127686 0.51383331 17.65999756 -0.63887024 17.64837646 C-1.61077553 17.64686836 -2.58268082 17.64536026 -3.58403778 17.64380646 C-6.90378356 16.99057794 -8.07234822 15.7697694 -10.14216614 13.14044189 C-11.14216614 9.70294189 -11.14216614 9.70294189 -11.14216614 6.14044189 C-7.93924758 1.05995038 -5.80831635 0.01818088 0 0 Z " fill="#000000" transform="translate(236.1421661376953,169.85955810546875)"/>
<path d="M0 0 C1.10756653 -0.00852997 2.21513306 -0.01705994 3.35626221 -0.02584839 C4.57191864 -0.02494202 5.78757507 -0.02403564 7.04006958 -0.02310181 C8.31994751 -0.02981903 9.59982544 -0.03653625 10.91848755 -0.04345703 C14.43094937 -0.06113624 17.94331378 -0.06581323 21.45581579 -0.0670886 C24.38819284 -0.0689875 27.32054719 -0.07634498 30.2529155 -0.08343279 C37.17188741 -0.09972188 44.09080727 -0.1046013 51.00979614 -0.10317993 C58.14613733 -0.10197854 65.28217605 -0.12307847 72.4184407 -0.15466726 C78.54593162 -0.18082375 84.67332374 -0.19154749 90.80087006 -0.19026911 C94.46029992 -0.18975926 98.11946106 -0.19545477 101.7788353 -0.21662521 C105.86091514 -0.23959595 109.94231802 -0.23049066 114.02444458 -0.21841431 C115.23605255 -0.22965332 116.44766052 -0.24089233 117.69598389 -0.25247192 C125.82607353 -0.19120463 125.82607353 -0.19120463 129.91241455 2.05169678 C132.0048136 4.70210298 132.2591634 6.82226874 132.32571411 10.16976929 C131.27003302 13.50447957 129.64046114 15.53233576 126.66165161 17.26742554 C122.49843221 18.02950586 118.37020197 17.93969863 114.14797974 17.89852905 C112.87756332 17.90568436 111.60714691 17.91283966 110.29823303 17.92021179 C106.82076488 17.93870615 103.3440647 17.92580069 99.86662865 17.90612149 C96.22411606 17.88971689 92.58165142 17.89855039 88.93911743 17.90364075 C82.82257848 17.90815972 76.70634554 17.89230439 70.58987427 17.86434937 C63.52274734 17.83229805 56.45617225 17.83231365 49.38900614 17.84956414 C42.58499655 17.86543915 35.78118889 17.85868949 28.97718811 17.84162712 C26.08411775 17.83476233 23.19120953 17.8357831 20.29814148 17.84317207 C16.25689139 17.85227012 12.21649076 17.82827875 8.17532349 17.8008728 C6.97620834 17.80739868 5.7770932 17.81392456 4.54164124 17.82064819 C-3.52097686 17.7275433 -3.52097686 17.7275433 -7.56185913 15.45283508 C-10.02886318 12.41796495 -10.26924798 10.13704866 -10.33834839 6.26742554 C-8.61481881 0.95320934 -5.22141433 0.0181512 0 0 Z " fill="#000000" transform="translate(235.33834838867188,84.73257446289063)"/>
<path d="M0 0 C2.5 1.5 2.5 1.5 4 4 C4.72988433 7.98118726 5.09397491 10.40831189 2.76416016 13.7980957 C2.21550293 14.39710693 1.6668457 14.99611816 1.1015625 15.61328125 C0.46790771 16.30599121 -0.16574707 16.99870117 -0.81860352 17.71240234 C-4.92246204 22.016057 -9.09846949 26.24185799 -13.3125 30.4375 C-14.21806641 31.34693359 -15.12363281 32.25636719 -16.05664062 33.19335938 C-17.35311523 34.48790039 -17.35311523 34.48790039 -18.67578125 35.80859375 C-19.45864502 36.59032959 -20.24150879 37.37206543 -21.0480957 38.17749023 C-23.55580195 40.51895704 -24.69638135 40.95142102 -28.125 41.5 C-33.70090712 40.78052811 -36.14522339 37.89128018 -40 34 C-40.7425 33.28199219 -41.485 32.56398437 -42.25 31.82421875 C-48.8433262 25.38395191 -48.8433262 25.38395191 -49.375 20.6875 C-49 17 -49 17 -46.875 14.0625 C-44 12 -44 12 -41.1875 11.25 C-36.34791483 12.38872592 -33.46107632 15.5564926 -30 19 C-26.88317581 17.61950251 -24.80407751 16.03207315 -22.43359375 13.59375 C-21.78326172 12.93246094 -21.13292969 12.27117187 -20.46289062 11.58984375 C-19.79451172 10.90019531 -19.12613281 10.21054688 -18.4375 9.5 C-17.10516275 8.13317272 -15.77061385 6.7684969 -14.43359375 5.40625 C-13.84634521 4.80103516 -13.25909668 4.19582031 -12.65405273 3.57226562 C-8.73243854 -0.1554385 -5.23266569 -0.82122319 0 0 Z " fill="#000000" transform="translate(194,72)"/>
<path d="M0 0 C2.875 1.4375 2.875 1.4375 5 4 C5.78686099 7.77018481 5.84895031 11.45445064 3.96658325 14.88137817 C2.47128799 16.71624991 0.89141605 18.35690774 -0.80859375 20.00390625 C-1.40873795 20.61266098 -2.00888214 21.22141571 -2.62721252 21.84861755 C-3.89660486 23.12410884 -5.17733339 24.38840701 -6.46850586 25.6418457 C-8.43286755 27.55798128 -10.34452488 29.51745442 -12.25585938 31.48632812 C-13.49972893 32.72424994 -14.74638774 33.95937671 -15.99609375 35.19140625 C-16.84511513 36.06775475 -16.84511513 36.06775475 -17.71128845 36.96180725 C-20.91907343 40.00705807 -23.17560856 41.38470423 -27.6640625 41.56420898 C-31.47037571 41.29493873 -33.61620842 40.52716092 -36.37890625 37.78125 C-37.07177734 37.09546875 -37.76464844 36.4096875 -38.47851562 35.703125 C-39.16623047 34.97609375 -39.85394531 34.2490625 -40.5625 33.5 C-41.28501953 32.80390625 -42.00753906 32.1078125 -42.75195312 31.390625 C-46.07731784 27.99290136 -48.45483404 25.52888562 -48.52734375 20.62109375 C-47.72783293 15.13111948 -47.72783293 15.13111948 -45 13 C-40.17533414 11.44629405 -40.17533414 11.44629405 -37 12 C-34.64216585 13.61943769 -32.7461824 15.37667504 -30.76171875 17.43359375 C-29.01923917 19.33223334 -29.01923917 19.33223334 -26 19 C-23.93124359 17.33186792 -23.93124359 17.33186792 -21.83984375 15.09765625 C-21.04642578 14.29005859 -20.25300781 13.48246094 -19.43554688 12.65039062 C-18.61119141 11.79638672 -17.78683594 10.94238281 -16.9375 10.0625 C-15.30290106 8.38465097 -13.66628197 6.70876689 -12.02734375 5.03515625 C-11.30281006 4.2862915 -10.57827637 3.53742676 -9.83178711 2.76586914 C-6.65816184 -0.2935513 -4.34042199 -0.42553157 0 0 Z " fill="#000000" transform="translate(193,158)"/>
</svg>
