<?xml version="1.0" encoding="UTF-8"?>
<svg version="1.1" xmlns="http://www.w3.org/2000/svg" width="512" height="512">
<path d="M0 0 C1.23503265 -0.0127597 2.47006531 -0.02551941 3.74252319 -0.03866577 C5.07785891 -0.04172375 6.41319674 -0.04395134 7.74853516 -0.04541016 C9.13327163 -0.05184609 10.51800678 -0.05857503 11.90274048 -0.06558228 C14.79928742 -0.07752495 17.69571536 -0.08126619 20.59228516 -0.08007812 C24.28646744 -0.07987503 27.97987963 -0.10717963 31.67387962 -0.14162254 C34.53253621 -0.16396381 37.3910095 -0.16791349 40.24974442 -0.16685867 C42.26814736 -0.17033626 44.2864931 -0.19195095 46.30477905 -0.21395874 C54.04261723 -0.17560258 60.30991412 0.11784564 66.17245483 5.73794556 C69.83058279 9.89834749 71.66259766 12.77001447 71.66259766 18.29052734 C72.50951172 18.54189453 73.35642578 18.79326172 74.22900391 19.05224609 C98.36038422 27.75491681 117.53865999 50.17433057 128.35009766 72.60302734 C134.34665012 86.50044284 138.2684862 101.07599285 137.66259766 116.29052734 C138.52884766 116.37302734 139.39509766 116.45552734 140.28759766 116.54052734 C147.10967306 118.0565441 151.8522305 122.61980446 155.66259766 128.29052734 C158.88997403 134.58157259 159.2655332 140.44765076 157.66259766 147.29052734 C155.3646605 154.28370908 150.94243335 159.0757872 144.42822266 162.44677734 C140.87573601 163.53058683 137.52202989 163.50688642 133.85009766 163.41552734 C133.15722656 163.40650391 132.46435547 163.39748047 131.75048828 163.38818359 C130.0543737 163.36478891 128.35843895 163.32892375 126.66259766 163.29052734 C126.64841797 164.07169922 126.63423828 164.85287109 126.61962891 165.65771484 C125.45772318 193.85748091 117.50724692 222.69053072 103.66259766 247.29052734 C103.10056641 248.33724609 102.53853516 249.38396484 101.95947266 250.46240234 C97.54373919 258.42723 92.14957563 266.80354937 85.66259766 273.29052734 C85.56058144 289.87836453 89.70253248 305.32397781 101.41259766 317.60302734 C108.55336787 324.35838867 116.6325581 328.58254009 125.66259766 332.29052734 C125.93209229 331.56833008 126.20158691 330.84613281 126.47924805 330.10205078 C127.65210214 327.31546367 129.01466001 324.8799444 130.59619141 322.30615234 C131.44600586 320.90236328 131.44600586 320.90236328 132.31298828 319.47021484 C133.49639137 317.53020978 134.68384101 315.59266685 135.87548828 313.65771484 C141.25192311 304.74784555 144.19618365 297.49776068 143.91259766 287.04052734 C143.90744141 286.26451172 143.90228516 285.48849609 143.89697266 284.68896484 C143.8430474 280.73894017 143.45080123 277.16433404 142.66259766 273.29052734 C141.5360701 254.85979788 144.52408142 238.36322666 157.03759766 224.04052734 C158.56318314 222.44169355 160.10399484 220.8571919 161.66259766 219.29052734 C162.56751953 218.33339844 162.56751953 218.33339844 163.49072266 217.35693359 C174.22442007 206.87991155 189.27880554 202.92909755 203.85009766 202.97802734 C204.82140625 202.96191406 205.79271484 202.94580078 206.79345703 202.92919922 C215.70524554 202.92309107 215.70524554 202.92309107 219.66259766 206.29052734 C221.10407404 209.17348011 220.95991106 211.07276836 220.66259766 214.29052734 C219.44389331 216.91520738 218.20866897 219.26542646 216.72509766 221.72802734 C216.12580444 222.75669922 216.12580444 222.75669922 215.5144043 223.80615234 C214.24459113 225.97631537 212.95558439 228.13410316 211.66259766 230.29052734 C210.79522593 231.75005329 209.92803599 233.20968729 209.06103516 234.66943359 C206.94500564 238.22011541 204.80932242 241.75832773 202.66259766 245.29052734 C205.24454971 246.91775759 207.82808109 248.54237939 210.41259766 250.16552734 C211.14220703 250.62572266 211.87181641 251.08591797 212.62353516 251.56005859 C213.33251953 252.00478516 214.04150391 252.44951172 214.77197266 252.90771484 C215.42133789 253.31618652 216.07070313 253.7246582 216.73974609 254.14550781 C218.6725297 255.29644167 220.63876268 256.31010923 222.66259766 257.29052734 C223.18692383 256.39744873 223.71125 255.50437012 224.25146484 254.58422852 C226.20378655 251.26386132 228.166903 247.94998657 230.13330078 244.63793945 C230.98195224 243.20511132 231.8276884 241.77055222 232.67041016 240.33422852 C233.8840849 238.26683091 235.10819854 236.20593908 236.33447266 234.14599609 C236.70755554 233.50526657 237.08063843 232.86453705 237.46502686 232.20439148 C239.4752731 228.85243491 241.23899137 226.25704749 244.66259766 224.29052734 C248.28160659 223.75152601 250.00255681 223.86462619 253.09619141 225.86083984 C256.15719969 228.75878071 257.96262809 231.8623786 259.78759766 235.60302734 C260.13306641 236.30508301 260.47853516 237.00713867 260.83447266 237.73046875 C268.39154778 253.83612456 268.41076318 271.29956892 262.47509766 287.91552734 C259.97744675 294.04612503 256.75791883 299.1156117 252.66259766 304.29052734 C252.16373047 304.97630859 251.66486328 305.66208984 251.15087891 306.36865234 C243.25827532 316.46800403 231.71462546 321.5351431 220.01196289 325.83764648 C204.23972212 331.69834189 197.76387127 342.30232824 189.66259766 356.29052734 C191.43763672 357.03496094 191.43763672 357.03496094 193.24853516 357.79443359 C216.26818944 367.61579541 234.24434632 382.54164984 244.20947266 405.91943359 C248.3741797 417.07839863 249.97389321 427.68866023 250.03369141 439.56396484 C250.04271988 440.69073639 250.05174835 441.81750793 250.06105042 442.97842407 C250.07545615 445.33975603 250.0844153 447.70112703 250.08813477 450.0625 C250.10013554 453.67693836 250.14950461 457.28972406 250.19970703 460.90380859 C250.20916129 463.20718574 250.21640108 465.51057328 250.22119141 467.81396484 C250.24072372 468.89108734 250.26025604 469.96820984 250.28038025 471.07797241 C250.27430252 472.08316925 250.26822479 473.08836609 250.26196289 474.12402344 C250.26703354 475.00351654 250.27210419 475.88300964 250.27732849 476.78915405 C249.36877639 480.48610209 247.59110882 481.90781442 244.66259766 484.29052734 C241.95923059 484.78265526 239.88536466 484.96369734 237.18968201 484.91693974 C236.44252635 484.92390734 235.69537069 484.93087495 234.92557395 484.9380537 C232.41348662 484.95534525 229.90293193 484.93690868 227.39086914 484.91871643 C225.57519803 484.92375989 223.75953189 484.93098716 221.94387722 484.94021457 C216.94796802 484.95919235 211.95254643 484.94687197 206.9566493 484.92949164 C201.57142487 484.91615012 196.18627332 484.93154316 190.80105591 484.9433136 C180.24883761 484.96171859 169.69680416 484.95315877 159.14459157 484.93522537 C150.57065476 484.92121505 141.99676821 484.9173032 133.42282104 484.92066765 C131.59426422 484.92138381 131.59426422 484.92138381 129.72876686 484.92211444 C127.25252317 484.92314075 124.7762795 484.9241961 122.30003583 484.92528021 C100.39057929 484.93385306 78.48121214 484.91715327 56.57177734 484.88745117 C35.29895269 484.85861239 14.02625681 484.85152949 -7.24658203 484.86694336 C-30.39634498 484.88369417 -53.54604674 484.88775115 -76.69581127 484.870233 C-79.16308275 484.86838856 -81.63035424 484.86655383 -84.09762573 484.86472893 C-85.31165575 484.86381684 -86.52568577 484.86290475 -87.77650458 484.86196502 C-96.34280429 484.85635266 -104.90907421 484.85967332 -113.47537231 484.86627388 C-123.91102225 484.87399539 -134.34654527 484.86729715 -144.78216958 484.84209884 C-150.10933812 484.82957635 -155.43630881 484.82349056 -160.76348495 484.8346405 C-165.63647529 484.84464744 -170.50907022 484.83629918 -175.38201225 484.81305932 C-177.14842061 484.80788035 -178.91486412 484.80949706 -180.68125737 484.81845398 C-183.07614507 484.82959111 -185.46968222 484.81627993 -187.86448669 484.79668522 C-188.55583438 484.80576404 -189.24718207 484.81484285 -189.95947969 484.82419679 C-194.64931649 484.74901477 -197.06646746 483.63423154 -200.33740234 480.29052734 C-200.9588623 477.89836121 -200.9588623 477.89836121 -200.95263672 475.20922852 C-200.96194214 474.19684616 -200.97124756 473.18446381 -200.98083496 472.1414032 C-200.9644397 471.04979385 -200.94804443 469.95818451 -200.93115234 468.83349609 C-200.93119263 467.69834061 -200.93123291 466.56318512 -200.93127441 465.39363098 C-200.92590977 462.98526493 -200.90828714 460.57689988 -200.87939453 458.16870117 C-200.8379904 454.52971093 -200.83829107 450.89260118 -200.84521484 447.25341797 C-200.80146876 431.12955524 -199.73487952 417.2339534 -193.52099609 402.19287109 C-192.32511358 399.2603935 -191.30901326 396.30386441 -190.33740234 393.29052734 C-191.19205078 392.44748047 -192.04669922 391.60443359 -192.92724609 390.73583984 C-194.04326282 389.62920141 -195.15914106 388.52242332 -196.27490234 387.41552734 C-196.83886719 386.85994141 -197.40283203 386.30435547 -197.98388672 385.73193359 C-203.14560821 380.60112062 -203.14560821 380.60112062 -203.71240234 376.72802734 C-203.32515061 373.17821974 -202.60309452 371.82067447 -200.77490234 368.85302734 C-198.77343833 365.50409882 -198.32927862 364.53830087 -198.46240234 360.47802734 C-198.75115234 359.42615234 -199.03990234 358.37427734 -199.33740234 357.29052734 C-199.52302734 356.48615234 -199.70865234 355.68177734 -199.89990234 354.85302734 C-200.04427734 354.33740234 -200.18865234 353.82177734 -200.33740234 353.29052734 C-201.12115234 353.22865234 -201.90490234 353.16677734 -202.71240234 353.10302734 C-207.65140045 351.99601053 -212.00899653 349.90713425 -216.33740234 347.29052734 C-218.49893094 342.96747015 -217.61167082 337.2263827 -217.64990234 332.47802734 C-217.67890625 331.28886719 -217.70791016 330.09970703 -217.73779297 328.87451172 C-217.74617187 327.72660156 -217.75455078 326.57869141 -217.76318359 325.39599609 C-217.77776611 324.34565186 -217.79234863 323.29530762 -217.80737305 322.21313477 C-217.2196694 318.5583813 -215.88351166 316.92719355 -213.33740234 314.29052734 C-210.86474609 312.92724609 -210.86474609 312.92724609 -208.27490234 311.97802734 C-207.41767578 311.65189453 -206.56044922 311.32576172 -205.67724609 310.98974609 C-203.33740234 310.29052734 -203.33740234 310.29052734 -200.33740234 310.29052734 C-198.70708242 305.49546874 -197.97726376 302.20795146 -199.33740234 297.29052734 C-200.11083984 295.83646484 -200.11083984 295.83646484 -200.89990234 294.35302734 C-202.70491539 290.50756477 -203.06279615 288.49781142 -202.33740234 284.29052734 C-200.36492439 281.26226792 -197.89711784 278.8276704 -195.33740234 276.29052734 C-194.47244141 275.40107422 -193.60748047 274.51162109 -192.71630859 273.59521484 C-184.73238054 265.46064664 -184.73238054 265.46064664 -180.77490234 264.97802734 C-177.44142779 265.28107048 -175.83135647 265.90230773 -172.89990234 267.35302734 C-167.5797346 269.90096603 -163.83927875 269.12448614 -158.33740234 267.29052734 C-156.9449308 264.14539828 -155.79418984 260.99763013 -154.67529297 257.74951172 C-152.78388357 252.59429824 -152.78388357 252.59429824 -150.57910156 251.09423828 C-146.04970143 249.47032353 -141.15763586 249.96394288 -136.39990234 249.97802734 C-134.7727832 249.95385742 -134.7727832 249.95385742 -133.11279297 249.92919922 C-132.06414062 249.92855469 -131.01548828 249.92791016 -129.93505859 249.92724609 C-128.50432007 249.92277466 -128.50432007 249.92277466 -127.04467773 249.91821289 C-123.8086228 250.36324705 -121.94596178 251.3459286 -119.33740234 253.29052734 C-117.86100294 256.55458985 -116.88622622 259.83534063 -115.84130859 263.25927734 C-113.94141279 267.08867771 -112.32023201 267.89754273 -108.33740234 269.29052734 C-106.21157106 269.51858566 -106.21157106 269.51858566 -104.27490234 269.10302734 C-103.59427734 268.98701172 -102.91365234 268.87099609 -102.21240234 268.75146484 C-100.18569371 268.30341074 -100.18569371 268.30341074 -97.77490234 267.22802734 C-94.26441169 265.87783863 -92.08374049 265.71905203 -88.33740234 266.29052734 C-85.30496921 268.25529131 -82.87382347 270.73154019 -80.33740234 273.29052734 C-79.44794922 274.15548828 -78.55849609 275.02044922 -77.64208984 275.91162109 C-69.50752164 283.89554915 -69.50752164 283.89554915 -69.02490234 287.85302734 C-69.32794548 291.18650189 -69.94918273 292.79657322 -71.39990234 295.72802734 C-73.43345696 299.98130706 -73.52305938 302.6391036 -72.33740234 307.29052734 C-72.15177734 308.09490234 -71.96615234 308.89927734 -71.77490234 309.72802734 C-71.55833984 310.50146484 -71.55833984 310.50146484 -71.33740234 311.29052734 C-70.55365234 311.35240234 -69.76990234 311.41427734 -68.96240234 311.47802734 C-62.9685231 312.82148304 -56.81247998 315.07791089 -53.33740234 320.29052734 C-46.59152657 312.81010065 -41.98593011 305.72722796 -38.33740234 296.29052734 C-38.07056641 295.60603516 -37.80373047 294.92154297 -37.52880859 294.21630859 C-36.90015009 292.21760812 -36.58399688 290.37407252 -36.33740234 288.29052734 C-36.12664062 286.59089844 -36.12664062 286.59089844 -35.91162109 284.85693359 C-35.43674263 277.81880946 -35.58094899 273.26135452 -40.27490234 267.79052734 C-41.09732422 266.91654297 -41.91974609 266.04255859 -42.76708984 265.14208984 C-63.70928945 241.90834256 -76.81921586 199.46291384 -76.39990234 168.85302734 C-76.39087891 167.98806641 -76.38185547 167.12310547 -76.37255859 166.23193359 C-76.35515625 165.2709375 -76.35515625 165.2709375 -76.33740234 164.29052734 C-77.78759766 164.37753906 -77.78759766 164.37753906 -79.26708984 164.46630859 C-87.60456511 164.755231 -94.47246533 164.59000209 -101.33740234 159.29052734 C-106.71230158 154.02783895 -109.28097563 148.33668743 -109.36474609 140.84521484 C-108.90192228 133.08401545 -106.70946865 127.13234162 -100.83740234 121.91552734 C-96.76363408 118.60096135 -93.66309949 116.99465528 -88.33740234 117.29052734 C-88.37091797 116.00275391 -88.40443359 114.71498047 -88.43896484 113.38818359 C-88.4330647 108.35437834 -87.72475155 103.64889945 -86.71240234 98.72802734 C-86.53418945 97.86032715 -86.35597656 96.99262695 -86.17236328 96.09863281 C-79.92476674 67.26560476 -62.67782405 42.82592084 -38.21630859 26.46630859 C-35.71851463 24.90324002 -33.12970913 23.55950322 -30.51611328 22.20239258 C-24.99067618 19.51631254 -24.99067618 19.51631254 -21.04052734 15.00537109 C-20.37655754 12.69168457 -20.37655754 12.69168457 -19.95458984 10.40380859 C-18.82337588 6.5304747 -15.71137003 4.28870238 -12.33740234 2.29052734 C-8.09272485 0.64794227 -4.54128475 0.032005 0 0 Z M-5.33740234 16.29052734 C-7.58636349 19.66396907 -7.52385103 20.16600467 -7.0390625 23.9855957 C-6.92122406 24.95985001 -6.80338562 25.93410431 -6.68197632 26.93788147 C-6.53990753 28.01202805 -6.39783875 29.08617462 -6.25146484 30.19287109 C-6.11028229 31.33054428 -5.96909973 32.46821747 -5.82363892 33.6403656 C-5.42486384 36.83568215 -5.0155118 40.02946045 -4.60267639 43.22298431 C-4.14317948 46.8042982 -3.69982519 50.38761764 -3.25439453 53.97070312 C-2.29290562 61.6840054 -1.31041047 69.39450877 -0.32080078 77.10424805 C0.19542111 81.12728673 0.70603903 85.15101785 1.21553993 89.17491245 C1.61242988 92.30208549 2.01311555 95.42876334 2.41489792 98.5553112 C2.60529058 100.04195213 2.7942699 101.52877477 2.98180008 103.0157795 C3.24068939 105.06566474 3.50489517 107.11479507 3.77050781 109.16381836 C3.91912262 110.3267189 4.06773743 111.48961945 4.22085571 112.6877594 C4.39091149 115.21178096 4.39091149 115.21178096 5.66259766 116.29052734 C8.46253363 116.39155989 11.23728409 116.43022822 14.03759766 116.42333984 C14.87726074 116.42429657 15.71692383 116.4252533 16.58203125 116.42623901 C18.3608406 116.42692082 20.13965243 116.42506651 21.91845703 116.42089844 C24.65093542 116.41555017 27.38324942 116.4208434 30.11572266 116.42724609 C31.83968135 116.42658531 33.56363995 116.42530415 35.28759766 116.42333984 C36.11050293 116.42536407 36.9334082 116.42738831 37.78125 116.42947388 C41.52639632 116.77628194 41.52639632 116.77628194 44.66259766 115.29052734 C45.12792906 112.43412344 45.53582132 109.58811971 45.90942383 106.71923828 C46.02982529 105.82004166 46.15022675 104.92084503 46.27427673 103.99440002 C46.67291637 101.00519115 47.06478066 98.01514756 47.45556641 95.02490234 C47.72796843 92.95322634 48.00037346 90.88155072 48.27278137 88.80987549 C48.84349893 84.45896855 49.41018224 80.10755485 49.97485352 75.75585938 C50.69956197 70.17776652 51.44027765 64.60192527 52.18485546 59.02645493 C52.75375133 54.74506877 53.3110184 50.46222697 53.86510658 46.17890167 C54.13312912 44.12263839 54.40549867 42.06693692 54.68227196 40.01183319 C55.0684513 37.13579448 55.43818181 34.25808952 55.80395508 31.37939453 C55.92178345 30.52932327 56.03961182 29.67925201 56.16101074 28.80342102 C56.70235055 24.39583503 56.91415314 21.31377188 54.66259766 17.29052734 C52.92240502 15.55033471 50.5328617 16.14494367 48.16479492 16.12939453 C46.99010147 16.11978699 45.81540802 16.11017944 44.6051178 16.10028076 C43.32600021 16.09603088 42.04688263 16.09178101 40.72900391 16.08740234 C39.42559555 16.08170227 38.12218719 16.0760022 36.77928162 16.07012939 C34.01601774 16.05961186 31.25278304 16.05377404 28.48950195 16.05029297 C24.9438276 16.04480431 21.39853653 16.02077215 17.85298252 15.99232101 C14.47832967 15.96925006 11.10373161 15.96724871 7.72900391 15.96240234 C6.45191055 15.95005554 5.1748172 15.93770874 3.85902405 15.92498779 C2.09225563 15.92948944 2.09225563 15.92948944 0.28979492 15.93408203 C-1.27121193 15.92861359 -1.27121193 15.92861359 -2.86375427 15.92303467 C-3.68005814 16.04430725 -4.496362 16.16557983 -5.33740234 16.29052734 Z M-47.33740234 54.29052734 C-48.06830078 55.00853516 -48.79919922 55.72654297 -49.55224609 56.46630859 C-64.4796499 72.162252 -73.33740234 94.73050797 -73.33740234 116.29052734 C-52.54740234 116.29052734 -31.75740234 116.29052734 -10.33740234 116.29052734 C-12.62282032 96.24421405 -12.62282032 96.24421405 -15.12646484 76.22802734 C-15.27522064 75.09316895 -15.42397644 73.95831055 -15.57723999 72.7890625 C-15.88359318 70.45754135 -16.1909995 68.12615832 -16.49951172 65.79492188 C-16.97312338 62.20936183 -17.44049165 58.6230186 -17.90771484 55.03662109 C-18.20942649 52.74620752 -18.51149525 50.45584095 -18.81396484 48.16552734 C-18.95250885 47.09810303 -19.09105286 46.03067871 -19.23379517 44.9309082 C-19.36418182 43.95387939 -19.49456848 42.97685059 -19.62890625 41.97021484 C-19.74199127 41.11153809 -19.85507629 40.25286133 -19.97158813 39.36816406 C-20.24478654 37.23797516 -20.24478654 37.23797516 -21.33740234 35.29052734 C-30.08576384 35.29052734 -41.3457606 48.38411521 -47.33740234 54.29052734 Z M70.66259766 35.29052734 C68.64035174 43.49483956 67.57183799 51.78877167 66.49853516 60.15771484 C66.29991164 61.68470095 66.10098268 63.21164735 65.90176392 64.73855591 C65.48749729 67.92027346 65.07593008 71.10232399 64.66650391 74.28466797 C64.14159466 78.36398899 63.61137053 82.44259698 63.07933617 86.52099419 C62.66942959 89.66571983 62.26154642 92.81070511 61.85435867 95.95578384 C61.65943845 97.4605503 61.46406531 98.96525816 61.26823044 100.46990585 C60.99588452 102.56595472 60.72608109 104.6623149 60.45703125 106.75878906 C60.30317963 107.95075897 60.149328 109.14272888 59.99081421 110.37081909 C59.60674239 113.29771467 59.60674239 113.29771467 59.66259766 116.29052734 C80.45259766 116.29052734 101.24259766 116.29052734 122.66259766 116.29052734 C120.35463333 88.59495545 109.57211233 65.39445062 88.79541016 46.71240234 C80.5664133 39.10750068 80.5664133 39.10750068 70.66259766 35.29052734 Z M-91.33740234 134.29052734 C-93.43419637 136.98640538 -93.33251055 138.38347134 -93.14990234 141.85302734 C-92.22327526 145.78722234 -92.22327526 145.78722234 -89.33740234 148.29052734 C-85.41168193 149.59910081 -81.67450117 149.43513274 -77.58230591 149.43096924 C-76.67672184 149.43394036 -75.77113777 149.43691148 -74.83811176 149.43997264 C-71.79115379 149.4486728 -68.74423505 149.45016899 -65.69726562 149.45166016 C-63.51777055 149.45628735 -61.33827628 149.46131187 -59.15878296 149.46670532 C-53.22906224 149.4798397 -47.29935284 149.48627615 -41.36961985 149.49071598 C-37.66743091 149.49364466 -33.96524508 149.49774904 -30.26305771 149.50222015 C-18.68679192 149.51589699 -7.11053323 149.52556309 4.46574008 149.52942204 C6.4443296 149.53008518 6.4443296 149.53008518 8.46289062 149.53076172 C9.45425326 149.53109386 9.45425326 149.53109386 10.46564342 149.53143272 C20.51097776 149.53513601 30.55625209 149.54995865 40.6015625 149.57177734 C52.26399798 149.59702469 63.92638629 149.61195253 75.58885014 149.61346316 C81.76332272 149.61451287 87.93769939 149.62045611 94.11214828 149.63828278 C99.91842302 149.65472022 105.72452928 149.65694001 111.53081894 149.64814377 C113.66375173 149.64737111 115.79669342 149.65174612 117.92960358 149.66160202 C120.83778286 149.67425398 123.74535937 149.66848147 126.65353394 149.65802002 C127.50071389 149.66607642 128.34789385 149.67413283 129.22074592 149.68243337 C133.85406731 149.64335975 136.91478565 149.3160138 140.66259766 146.29052734 C143.01878308 143.40453347 143.01878308 143.40453347 142.47509766 139.79052734 C141.69100606 136.412902 141.39434786 135.25738749 138.66259766 133.29052734 C135.33490987 131.62668345 131.60382629 132.15024935 127.94509888 132.15681458 C127.03149656 132.15454902 126.11789425 132.15228346 125.17660701 132.14994925 C122.09656652 132.14358825 119.01656979 132.14443996 115.93652344 132.14526367 C113.73584943 132.14227348 111.53517595 132.13887128 109.33450317 132.13508606 C103.34280578 132.12622743 97.35112265 132.12390716 91.35941935 132.12327027 C86.3641847 132.12232265 81.36895341 132.11864604 76.37372005 132.11509818 C65.26556076 132.10741257 54.15740711 132.1044302 43.04924549 132.10510353 C42.38234018 132.10514349 41.71543487 132.10518344 41.02832031 132.10522461 C40.02674412 132.10528593 40.02674412 132.10528593 39.00493406 132.10534849 C28.18278323 132.10575497 17.36066719 132.09618577 6.53852643 132.08208624 C-4.56731958 132.06773101 -15.67315123 132.06099885 -26.77900708 132.06168002 C-33.01659585 132.06193548 -39.25414526 132.0590581 -45.49172592 132.04850197 C-51.3570538 132.03884741 -57.2223045 132.0387236 -63.08763504 132.0460186 C-65.24355939 132.04706775 -67.39948848 132.04468209 -69.55540466 132.03865814 C-72.49234039 132.03098182 -75.42900667 132.03555405 -78.36593628 132.04328918 C-79.6537715 132.03557384 -79.6537715 132.03557384 -80.96762359 132.02770263 C-84.99418964 132.05123133 -87.86922696 132.22830089 -91.33740234 134.29052734 Z M-61.33740234 164.29052734 C-59.83584902 178.85772346 -59.83584902 178.85772346 -57.14990234 193.10302734 C-56.9363208 194.01262207 -56.72273926 194.9222168 -56.50268555 195.859375 C-48.74394798 227.77993798 -34.03292236 259.87353284 -6.14990234 279.04052734 C6.50846233 286.72851719 20.98946833 289.96946423 35.59228516 287.07177734 C46.0707562 284.40549972 54.32775709 280.1427879 62.66259766 273.29052734 C63.90976562 272.28892578 63.90976562 272.28892578 65.18212891 271.26708984 C93.08899318 247.62316389 106.67139859 207.65115063 110.66259766 172.29052734 C110.66259766 169.65052734 110.66259766 167.01052734 110.66259766 164.29052734 C53.90259766 164.29052734 -2.85740234 164.29052734 -61.33740234 164.29052734 Z M170.95947266 233.83349609 C161.91598542 243.50756662 158.43880302 255.66637718 158.48681641 268.64599609 C158.65463143 272.12536102 159.03139253 275.50325277 159.48339844 278.95336914 C162.19380647 299.77739489 153.75717663 314.67172907 143.66259766 332.29052734 C142.89301707 333.63815542 142.12348188 334.98580942 141.35400391 336.33349609 C140.79583984 337.30931641 140.23767578 338.28513672 139.66259766 339.29052734 C150.78860309 344.17282509 162.22970151 348.19623205 173.66259766 352.29052734 C174.15288452 351.49787476 174.15288452 351.49787476 174.65307617 350.68920898 C178.27109096 344.85597924 181.94209942 339.05892593 185.66259766 333.29052734 C186.28908203 332.31728516 186.91556641 331.34404297 187.56103516 330.34130859 C195.41871896 319.23285713 206.85497458 314.58544309 219.19091797 310.17138672 C225.66840579 307.80864817 230.72476861 305.19445825 235.66259766 300.29052734 C236.27748047 299.77232422 236.89236328 299.25412109 237.52587891 298.72021484 C244.78900147 292.28138671 249.8942235 281.93728335 250.86547852 272.27148438 C250.96533643 270.12740305 250.99047119 267.99931654 250.97509766 265.85302734 C250.97380859 265.10674072 250.97251953 264.3604541 250.97119141 263.59155273 C250.87766646 258.25069374 250.11779731 254.09862667 247.66259766 249.29052734 C242.76576835 254.81123154 239.57592801 261.44262855 236.08447266 267.89404297 C235.31876953 269.27172852 235.31876953 269.27172852 234.53759766 270.67724609 C234.08126953 271.51473389 233.62494141 272.35222168 233.15478516 273.21508789 C231.41416055 275.63607117 230.52922445 276.46631015 227.66259766 277.29052734 C222.27660499 277.05514977 218.36713037 275.37812058 213.84619141 272.61474609 C213.22664078 272.24831497 212.60709015 271.88188385 211.96876526 271.50434875 C210.00590325 270.33965081 208.05317038 269.15905054 206.10009766 267.97802734 C204.78625614 267.19639941 203.47180749 266.41579107 202.15673828 265.63623047 C186.03831221 256.04195646 186.03831221 256.04195646 184.66259766 253.29052734 C183.6427477 246.18900333 186.85684618 241.65828726 190.47509766 235.72802734 C191.56618301 233.89413006 192.65606045 232.05951348 193.74462891 230.22412109 C194.50960693 228.94577393 194.50960693 228.94577393 195.29003906 227.64160156 C196.88457577 224.91029802 198.30801315 222.14703713 199.66259766 219.29052734 C188.73951872 219.29052734 178.53789226 226.73755351 170.95947266 233.83349609 Z M-141.33740234 266.29052734 C-141.58232422 267.09876953 -141.82724609 267.90701172 -142.07958984 268.73974609 C-144.08291117 274.4664819 -145.52913201 278.56429383 -151.14990234 281.35302734 C-152.86633787 282.03197295 -154.59556729 282.67968473 -156.33740234 283.29052734 C-157.39894531 283.77972656 -157.39894531 283.77972656 -158.48193359 284.27880859 C-163.50079488 286.52591217 -166.97144683 286.45315104 -172.33740234 285.29052734 C-173.67073568 284.62386068 -175.00406901 283.95719401 -176.33740234 283.29052734 C-178.36636072 283.14964736 -178.36636072 283.14964736 -180.33740234 284.29052734 C-182.17706959 286.19344963 -183.72197715 288.18150001 -185.33740234 290.29052734 C-185.04865234 290.78681641 -184.75990234 291.28310547 -184.46240234 291.79443359 C-184.09115234 292.47376953 -183.71990234 293.15310547 -183.33740234 293.85302734 C-182.96615234 294.51431641 -182.59490234 295.17560547 -182.21240234 295.85693359 C-179.93096699 302.20217568 -181.75662577 307.61462383 -184.33740234 313.47802734 C-184.64919434 314.18910645 -184.96098633 314.90018555 -185.28222656 315.6328125 C-187.0940899 319.46584218 -188.52391464 322.21125873 -192.46240234 324.16552734 C-194.47021484 324.82958984 -194.47021484 324.82958984 -196.33740234 325.29052734 C-197.32740234 325.70302734 -198.31740234 326.11552734 -199.33740234 326.54052734 C-199.99740234 326.78802734 -200.65740234 327.03552734 -201.33740234 327.29052734 C-201.33740234 330.59052734 -201.33740234 333.89052734 -201.33740234 337.29052734 C-200.51755859 337.55865234 -199.69771484 337.82677734 -198.85302734 338.10302734 C-188.95326697 341.70294021 -188.95326697 341.70294021 -186.83740234 345.97802734 C-186.31187213 347.40639153 -185.81340083 348.84490232 -185.33740234 350.29052734 C-184.95970703 351.11294922 -184.58201172 351.93537109 -184.19287109 352.78271484 C-181.81792392 358.00918721 -180.68881028 361.57540819 -182.33740234 367.29052734 C-182.89427734 368.34240234 -183.45115234 369.39427734 -184.02490234 370.47802734 C-185.60974173 373.11670289 -185.60974173 373.11670289 -184.83740234 375.41552734 C-182.94019768 377.78703318 -180.77563344 379.49393601 -178.33740234 381.29052734 C-177.95970703 380.87802734 -177.58201172 380.46552734 -177.19287109 380.04052734 C-171.75218738 374.33226902 -165.43150749 368.83757992 -158.33740234 365.29052734 C-158.33740234 364.63052734 -158.33740234 363.97052734 -158.33740234 363.29052734 C-159.52423865 362.20087615 -160.7635994 361.1680417 -162.02490234 360.16552734 C-169.53840462 353.74055366 -173.75161883 345.66270902 -174.65771484 335.80615234 C-175.02766695 323.72105032 -172.72784923 313.28306648 -164.33740234 304.29052734 C-156.52014068 296.08577211 -147.46969869 292.52384597 -136.21240234 292.04052734 C-125.28633699 292.22415869 -114.86473575 295.75363107 -107.07958984 303.55224609 C-97.50019833 314.81068224 -96.2512294 325.89964596 -96.33740234 340.29052734 C-87.29284767 338.14691148 -78.89056746 334.85723183 -70.33740234 331.29052734 C-70.33740234 329.97052734 -70.33740234 328.65052734 -70.33740234 327.29052734 C-71.07345703 327.02240234 -71.80951172 326.75427734 -72.56787109 326.47802734 C-79.61786168 323.64685543 -83.24385562 321.2419088 -86.33740234 314.29052734 C-86.73830078 313.47970703 -87.13919922 312.66888672 -87.55224609 311.83349609 C-90.49196858 305.38986196 -91.06796765 301.02254185 -88.58740234 294.23974609 C-87.8901567 292.56702699 -87.1204991 290.92481623 -86.33740234 289.29052734 C-88.17066279 287.04770871 -90.00657498 285.02275586 -92.33740234 283.29052734 C-95.56230818 283.29052734 -97.466616 283.81299935 -100.27490234 285.35302734 C-105.52764619 287.74063818 -111.66081547 285.346448 -116.76855469 283.47583008 C-125.73703948 279.91101449 -125.73703948 279.91101449 -128.08740234 275.22802734 C-128.54597308 273.92957433 -128.96701763 272.61683143 -129.33740234 271.29052734 C-129.74990234 270.30052734 -130.16240234 269.31052734 -130.58740234 268.29052734 C-130.83490234 267.63052734 -131.08240234 266.97052734 -131.33740234 266.29052734 C-134.63740234 266.29052734 -137.93740234 266.29052734 -141.33740234 266.29052734 Z M-20.33740234 288.29052734 C-20.62873047 289.37849609 -20.92005859 290.46646484 -21.22021484 291.58740234 C-24.8099588 304.62423274 -29.41430212 315.51800713 -38.08618164 326.01611328 C-40.79899649 329.21331915 -40.79899649 329.21331915 -41.33740234 333.29052734 C-39.40757508 335.50248982 -37.46026777 337.5453207 -35.37060547 339.59790039 C-34.73662338 340.23232056 -34.1026413 340.86674072 -33.44944763 341.52038574 C-31.34621346 343.62152517 -29.23254242 345.71183198 -27.11865234 347.80224609 C-25.66068449 349.25462046 -24.20337633 350.70765735 -22.7467041 352.16133118 C-18.90633837 355.9902288 -15.05704939 359.81003341 -11.20587158 363.62805176 C-7.27947212 367.52379283 -3.36152519 371.42801379 0.55712891 375.33154297 C8.25067453 382.99288975 15.95366779 390.64466274 23.66259766 398.29052734 C27.7227433 396.67479212 30.43126905 393.78293354 33.4375 390.72680664 C34.00390701 390.15908539 34.57031403 389.59136414 35.15388489 389.00643921 C37.02340878 387.13043012 38.8858545 385.24754781 40.74853516 383.36474609 C42.05072805 382.05627941 43.35343969 380.74832881 44.65664673 379.44087219 C48.08792191 375.9962943 51.51359234 372.54620049 54.93768311 369.09448242 C60.4096812 363.5793827 65.88832623 358.07090754 71.37034988 352.56577492 C73.27930777 350.64664258 75.18478541 348.7241049 77.0899353 346.80119324 C78.26947343 345.61482119 79.44912455 344.42856147 80.62890625 343.24243164 C81.15274399 342.71185654 81.67658173 342.18128143 82.21629333 341.6346283 C85.54152219 338.29929746 89.00462676 335.25831144 92.66259766 332.29052734 C92.29908203 331.80583984 91.93556641 331.32115234 91.56103516 330.82177734 C90.49603351 329.40177514 89.43375233 327.97973034 88.37353516 326.55615234 C87.31561152 325.1552489 86.24061899 323.766841 85.13916016 322.39990234 C76.95577093 312.09489369 73.38974174 300.93164229 70.66259766 288.29052734 C69.66292969 288.85320312 69.66292969 288.85320312 68.64306641 289.42724609 C47.97989077 300.900366 29.13935703 306.35903214 5.50634766 300.50927734 C-2.3190099 298.12048399 -9.23707185 294.29432482 -16.33740234 290.29052734 C-17.66545215 289.61339668 -18.99642237 288.94167627 -20.33740234 288.29052734 Z M-155.33740234 316.29052734 C-160.35920283 323.26525024 -161.23646831 328.80623817 -160.33740234 337.29052734 C-158.201189 344.15898012 -154.48313704 349.51789812 -148.33740234 353.29052734 C-147.67611328 353.71076172 -147.01482422 354.13099609 -146.33349609 354.56396484 C-140.02671971 357.48153444 -134.81546347 355.66117544 -128.58740234 353.47802734 C-127.77110352 353.20063721 -126.95480469 352.92324707 -126.11376953 352.63745117 C-120.0104105 350.26093857 -116.58767126 346.96972133 -113.33740234 341.29052734 C-111.09404039 334.56044147 -111.42150605 327.35081639 -114.39990234 320.91552734 C-118.32439148 314.02832528 -123.71324553 309.61654129 -131.33740234 307.29052734 C-140.95451115 305.9943779 -149.06130848 308.7592147 -155.33740234 316.29052734 Z M-61.31005859 343.35302734 C-69.18167134 347.36131504 -77.50058779 350.23619246 -85.77490234 353.29052734 C-87.54350427 353.94865468 -89.3118933 354.6073544 -91.08007812 355.26660156 C-99.02985013 358.2272714 -106.98798035 361.16503232 -114.95161438 364.0881958 C-118.12268571 365.25270021 -121.29243048 366.42079417 -124.46218872 367.58886719 C-126.65380372 368.39399999 -128.84787739 369.19212823 -131.04223633 369.98974609 C-144.86526983 374.96241201 -144.86526983 374.96241201 -157.14990234 382.85302734 C-157.83697266 383.41119141 -158.52404297 383.96935547 -159.23193359 384.54443359 C-159.92673828 385.12064453 -160.62154297 385.69685547 -161.33740234 386.29052734 C-162.56716797 387.21865234 -162.56716797 387.21865234 -163.82177734 388.16552734 C-175.43740661 397.97748747 -180.46509142 412.09205397 -184.33740234 426.29052734 C-184.33740234 440.15052734 -184.33740234 454.01052734 -184.33740234 468.29052734 C-118.33740234 468.29052734 -52.33740234 468.29052734 15.66259766 468.29052734 C19.90846246 417.48248554 19.90846246 417.48248554 -4.96484375 385.95043945 C-6.45144288 384.65635223 -7.95562703 383.38214424 -9.47802734 382.13037109 C-11.17414501 380.66574718 -12.86876075 379.19938248 -14.56201172 377.73144531 C-15.4106781 377.00576355 -16.25934448 376.28008179 -17.13372803 375.53240967 C-21.50284727 371.73392641 -25.70197838 367.75536429 -29.92333984 363.79443359 C-36.06612925 358.07603557 -42.26004789 352.42725012 -48.59277344 346.91943359 C-49.57784126 346.05554771 -49.57784126 346.05554771 -50.58280945 345.17420959 C-55.09959345 341.28719156 -56.16683212 340.56119851 -61.31005859 343.35302734 Z M103.66259766 341.29052734 C94.23450759 349.40053788 84.97965426 357.67148307 75.89084625 366.16079712 C71.66016461 370.10309047 67.39730952 373.97866466 62.99707031 377.73144531 C61.71592094 378.83938698 61.71592094 378.83938698 60.40888977 379.9697113 C58.83587843 381.32486586 57.24944762 382.66475943 55.64421082 383.98158264 C46.08341899 392.28315482 40.571871 401.59629859 32.66259766 412.29052734 C32.66259766 430.77052734 32.66259766 449.25052734 32.66259766 468.29052734 C98.99259766 468.29052734 165.32259766 468.29052734 233.66259766 468.29052734 C235.01762421 435.63719148 235.01762421 435.63719148 225.66259766 405.29052734 C225.05158203 404.0665625 225.05158203 404.0665625 224.42822266 402.81787109 C213.11272734 381.81764303 192.16315933 374.32686955 171.03759766 366.66552734 C167.83941443 365.48993762 164.64296701 364.30971737 161.44668579 363.12896729 C159.30115151 362.33644169 157.15513525 361.54521965 155.00863647 360.75531006 C144.2048496 356.77332602 133.47718709 352.60444068 122.75994873 348.3961792 C121.31914298 347.83044033 119.87817104 347.26512446 118.43701172 346.70028687 C116.58618377 345.97441387 114.73640413 345.24586944 112.88671875 344.51708984 C109.83482245 343.35604736 106.76292449 342.313455 103.66259766 341.29052734 Z " fill="#000000" transform="translate(231.33740234375,13.70947265625)"/>
<path d="M0 0 C1.24486679 -0.00637985 2.48973358 -0.0127597 3.77232361 -0.01933289 C5.1275936 -0.0208616 6.48286411 -0.02197554 7.83813477 -0.02270508 C9.23291559 -0.02592 10.62769608 -0.02928425 12.0224762 -0.03279114 C14.94354026 -0.03877262 17.86457478 -0.04063201 20.78564453 -0.04003906 C24.52253893 -0.03993742 28.25924341 -0.05359581 31.9960928 -0.07081127 C34.87605148 -0.08194663 37.75596445 -0.08395781 40.63594246 -0.08342934 C42.01340452 -0.0846069 43.39086785 -0.0890161 44.76830864 -0.0967617 C46.69707656 -0.10659332 48.62590038 -0.10241112 50.5546875 -0.09765625 C51.65070786 -0.09908127 52.74672821 -0.10050629 53.8759613 -0.10197449 C56.9673184 0.15570619 59.10071194 0.70545637 61.84204102 2.14526367 C64.18372865 5.65779513 64.33827779 7.00995723 63.84204102 11.14526367 C62.2388916 13.8011322 62.2388916 13.8011322 59.84204102 16.14526367 C56.76843262 16.77345276 56.76843262 16.77345276 53.11743164 16.77636719 C52.45027634 16.78352249 51.78312103 16.7906778 51.0957489 16.79804993 C48.89589434 16.81492485 46.69808151 16.79554551 44.49829102 16.77416992 C42.96659171 16.77499875 41.4348925 16.77745867 39.90319824 16.78147888 C36.69520246 16.78433601 33.48790521 16.76964532 30.2800293 16.7421875 C26.1705453 16.70810374 22.06231021 16.71412309 17.95276642 16.73285007 C14.79052342 16.74342513 11.62857041 16.73447789 8.46635437 16.71946526 C6.95131797 16.71428662 5.43625124 16.71476142 3.92121887 16.72101021 C1.80236842 16.72646899 -0.31470209 16.70607092 -2.43334961 16.67871094 C-3.63817993 16.67251236 -4.84301025 16.66631378 -6.08435059 16.65992737 C-9.76779115 16.04314966 -10.96572932 15.12644207 -13.15795898 12.14526367 C-13.62313319 8.42387003 -13.66650857 6.11150788 -11.90795898 2.77026367 C-8.50748512 -0.3873192 -4.45497395 0.015505 0 0 Z " fill="#000000" transform="translate(118.157958984375,434.854736328125)"/>
</svg>
