<?xml version="1.0" encoding="UTF-8"?>
<svg version="1.1" xmlns="http://www.w3.org/2000/svg" width="512" height="512">
<path d="M0 0 C0.85985028 -0.00226556 1.71970056 -0.00453111 2.60560691 -0.00686532 C5.47975064 -0.01318316 8.35384694 -0.0123774 11.22799683 -0.0115509 C13.29133159 -0.01454367 15.3546658 -0.01794647 17.41799927 -0.02172852 C23.01691053 -0.03055809 28.61580651 -0.03290612 34.21472406 -0.0335443 C38.88706685 -0.03449407 43.55940609 -0.03817293 48.23174751 -0.0417164 C59.25035589 -0.04985604 70.2689561 -0.05230098 81.28756714 -0.05158997 C92.66314611 -0.05098843 104.03867778 -0.06155642 115.41424477 -0.07733363 C125.17740704 -0.09039318 134.9405538 -0.09577457 144.70372474 -0.09513456 C150.5366017 -0.09487922 156.36943657 -0.09775051 162.20230484 -0.10831261 C167.68356438 -0.11796759 173.16474133 -0.1180907 178.64600372 -0.11079597 C180.6600265 -0.10974708 182.67405435 -0.11213101 184.68806839 -0.11815643 C187.43211778 -0.12583589 190.17587901 -0.12125858 192.91992188 -0.11352539 C193.72127693 -0.11866895 194.52263199 -0.12381252 195.34827054 -0.12911195 C199.13708808 -0.10543086 202.16423244 -0.08576405 205.33297729 2.13371277 C207.41456749 4.81004303 207.3288532 6.25124944 207.20797729 9.69621277 C206.33297729 13.13371277 206.33297729 13.13371277 204.80326462 14.82531834 C201.24998488 16.70732266 197.85691307 16.54268023 193.93338013 16.50552368 C192.65040137 16.51126053 192.65040137 16.51126053 191.34150386 16.51711327 C188.47033249 16.52641216 185.59964159 16.51439801 182.72848511 16.50260925 C180.671934 16.50507671 178.61538414 16.50891457 176.55883789 16.51402283 C172.12699451 16.52236875 167.69527958 16.52154641 163.26343536 16.51383781 C156.2542271 16.50226816 149.24518453 16.51440688 142.23599243 16.53045654 C124.82305912 16.56667583 107.41012941 16.5728816 89.99716187 16.57035828 C76.47135847 16.56864716 62.9456901 16.57577129 49.4199245 16.61033684 C42.45407725 16.62713274 35.48855912 16.62533384 28.52271318 16.60951412 C24.18473699 16.60371434 19.84691658 16.61446282 15.50896835 16.62976074 C13.49985453 16.63348501 11.49071447 16.6303846 9.4816246 16.61989021 C6.73419313 16.60649759 3.98789541 16.61774765 1.24050903 16.63491821 C0.4494411 16.62511144 -0.34162683 16.61530466 -1.15666652 16.60520071 C-6.70379829 16.67666429 -11.05414618 17.98205696 -15.66702271 21.13371277 C-20.48048703 26.93455439 -20.79104555 31.95435467 -20.80073547 39.28686523 C-20.80300103 39.99603094 -20.80526659 40.70519665 -20.8076008 41.43585223 C-20.81391833 43.80626578 -20.81311288 46.17662182 -20.81228638 48.54704285 C-20.81527929 50.24906488 -20.81868212 51.95108623 -20.82246399 53.65310669 C-20.83129517 58.27303876 -20.83364175 62.89295231 -20.83427978 67.51289201 C-20.83499082 70.40068329 -20.83712619 73.28846988 -20.83977699 76.17625999 C-20.84902777 86.25493544 -20.85311225 96.33359767 -20.85232544 106.41227722 C-20.85172484 115.80019771 -20.86227387 125.18806071 -20.8780691 134.57596666 C-20.89115483 142.64152128 -20.8965089 150.70705713 -20.89587003 158.77262229 C-20.89561533 163.58730477 -20.89845106 168.40193616 -20.90904808 173.21660805 C-20.91874632 177.74659311 -20.91879639 182.27647842 -20.91153145 186.80646706 C-20.91048773 188.46565904 -20.91283585 190.12485729 -20.91889191 191.78403854 C-20.92664514 194.05601171 -20.92194526 196.32764321 -20.91426086 198.59960938 C-20.91507802 200.50351047 -20.91507802 200.50351047 -20.91591167 202.44587421 C-20.54357121 207.96291866 -19.9027646 212.63781468 -16.29202271 217.00871277 C-11.54257099 220.85350702 -8.08654563 221.42538442 -2.04162884 221.39098167 C-1.26583549 221.39448775 -0.49004214 221.39799382 0.3092601 221.40160614 C2.92435814 221.41095417 5.53923514 221.40598809 8.15434265 221.40113831 C10.04196644 221.40487285 11.92958869 221.40947359 13.81720847 221.41486895 C19.01659522 221.42713855 24.21591781 221.42683383 29.41531575 221.4244802 C35.01803214 221.42407303 40.6207277 221.43510161 46.22343445 221.44459534 C57.20486417 221.46122803 68.18627242 221.46670591 79.16771368 221.46782009 C88.09157082 221.4687695 97.01542085 221.4728744 105.93927574 221.47922134 C127.108241 221.49397162 148.27720113 221.50627041 169.44617176 221.50522423 C170.12338117 221.50519307 170.80059057 221.50516191 171.49832147 221.50512981 C174.930802 221.50496359 178.36328253 221.50476551 181.79576305 221.5045604 C182.47748168 221.50452051 183.15920031 221.50448062 183.86157707 221.50443952 C185.24017886 221.50435864 186.61878064 221.50427505 187.99738242 221.50418873 C209.44692097 221.50296318 230.89639629 221.51797612 252.34591675 221.54533386 C276.43726885 221.57604836 300.52856855 221.59324139 324.6199457 221.59140742 C337.3784581 221.59074269 350.13689919 221.59627124 362.89539528 221.61776352 C373.75772347 221.63594393 384.61994804 221.64034852 395.48228482 221.62674467 C401.02640688 221.62019915 406.57032997 221.62015493 412.11443329 221.63745117 C417.18800506 221.65311694 422.26121903 221.65038488 427.33478173 221.63288291 C429.17192283 221.62979865 431.0090902 221.63349872 432.84620032 221.64460306 C435.3412551 221.65868754 437.83504847 221.64816744 440.33006001 221.63149071 C441.04531773 221.64142707 441.76057546 221.65136343 442.49750766 221.66160089 C447.92604707 221.58475483 450.96877948 220.14745817 455.33297729 217.13371277 C459.06239945 211.2909514 459.45744594 205.78991366 459.47341919 198.98728943 C459.47639031 198.27882929 459.47936143 197.57036914 459.48242259 196.84044051 C459.49107699 194.47236555 459.49261507 192.10434134 459.49411011 189.73625183 C459.49874059 188.03585198 459.50376556 186.33545316 459.50915527 184.63505554 C459.5222591 180.01919245 459.5287203 175.40334388 459.53316593 170.7874651 C459.53609992 167.90167611 459.54020534 165.01589106 459.5446701 162.13010406 C459.55833973 153.09537215 459.568009 144.06064929 459.571872 135.02590775 C459.57635155 124.60731737 459.59389694 114.18885826 459.62287259 103.77030778 C459.6445096 95.70983305 459.65457736 87.6493952 459.65591311 79.58889174 C459.65695969 74.77805896 459.66283622 69.96734967 459.68073273 65.15654755 C459.69724833 60.62898828 459.69935201 56.10164488 459.69059372 51.57406616 C459.68982521 49.91690237 459.69414141 48.2597268 459.70405197 46.60259247 C460.21668126 32.61127915 460.21668126 32.61127915 453.95797729 20.69621277 C448.47663665 17.43351 443.95882615 16.84454763 437.63435364 16.87542725 C436.75902357 16.87175154 435.88369351 16.86807584 434.98183829 16.86428875 C432.04926477 16.85430987 429.1168809 16.85845931 426.18429565 16.86247253 C424.08169859 16.85808552 421.97910327 16.85278345 419.87651062 16.84663391 C415.34921645 16.8351325 410.8219691 16.8296744 406.29466057 16.82875252 C399.13946642 16.82681339 391.98436931 16.80876978 384.82920837 16.78799438 C367.05898702 16.73878814 349.28873934 16.70789582 331.51846313 16.68669128 C317.70527312 16.67018464 303.89216625 16.64742208 290.079032 16.60367054 C282.96244407 16.58184912 275.8460139 16.57384048 268.72939479 16.57606328 C264.30749963 16.5744002 259.88570809 16.56037463 255.46385002 16.54285049 C253.40952302 16.53723668 251.35517466 16.53677883 249.3008461 16.5417881 C246.50186452 16.54789896 243.70354143 16.53575329 240.90461731 16.51898193 C240.08701634 16.52519375 239.26941537 16.53140556 238.42703861 16.53780562 C235.15692045 16.50196706 232.75889734 16.3648684 229.85584354 14.78932095 C227.58301941 12.31838416 227.39931231 10.45046332 227.33297729 7.13371277 C228.93709578 3.6046521 230.07457091 2.30598369 233.33297729 0.13371277 C236.16461124 -0.06451899 238.89821876 -0.14447551 241.73052979 -0.13371277 C242.59780091 -0.13824388 243.46507203 -0.14277499 244.3586241 -0.14744341 C247.27639825 -0.16014378 250.19398708 -0.15846337 253.11178589 -0.15681458 C255.19948569 -0.16279666 257.28718328 -0.16960146 259.37487793 -0.1771698 C265.05722189 -0.19487818 270.73950564 -0.19952746 276.42187452 -0.20080137 C281.16778311 -0.20269913 285.91367764 -0.21005597 290.65958083 -0.21714556 C301.86501056 -0.23344853 313.07040816 -0.2383131 324.27584839 -0.2368927 C335.81995133 -0.23569348 347.36386664 -0.25674715 358.90792215 -0.28838003 C368.8248855 -0.31458231 378.74178778 -0.32525821 388.65878546 -0.32398188 C394.57867557 -0.32347304 400.49839932 -0.32911214 406.41825485 -0.35033798 C411.99479012 -0.3697846 417.5710016 -0.36980085 423.14754868 -0.35530472 C425.1868182 -0.35322288 427.2261083 -0.35787991 429.26534271 -0.37002563 C456.57693914 -0.5220626 456.57693914 -0.5220626 465.83297729 8.19621277 C466.58578979 8.86781433 467.33860229 9.53941589 468.11422729 10.23136902 C475.95416972 20.48678667 476.05132795 30.32256616 475.96408081 42.66520691 C475.96922683 44.52250856 475.97651323 46.37980532 475.98576355 48.23709106 C476.00419752 53.2536659 475.99139018 58.26970576 475.97167325 63.28625798 C475.95522157 68.55063647 475.96410858 73.8149828 475.9691925 79.07937622 C475.97370579 87.91666658 475.95789009 96.75374474 475.92990112 105.59098816 C475.89784287 115.79138168 475.89787138 125.99139283 475.91511589 136.19181353 C475.9310076 146.02748512 475.92423103 155.86301725 475.90717888 165.69868279 C475.90032692 169.8742948 475.90132171 174.04979438 475.90872383 178.22540474 C475.91641387 183.14630151 475.90417202 188.06676574 475.87687492 192.98758888 C475.87001885 194.78783637 475.86986314 196.58812448 475.87709045 198.38837051 C475.91886697 210.15470493 475.47964721 220.56189952 467.03610229 229.60246277 C460.66394937 235.33155439 453.69197476 238.38906388 445.06872559 238.3742218 C443.21365387 238.37834579 443.21365387 238.37834579 441.32110596 238.3825531 C439.96389672 238.37547628 438.60668848 238.36820668 437.2494812 238.36076355 C435.81019092 238.36019897 434.37090006 238.3605169 432.93161011 238.36164856 C429.03534467 238.36222127 425.13920293 238.35048026 421.24296618 238.33650064 C417.16704978 238.32397961 413.09113041 238.3228217 409.01519775 238.32044983 C401.30177261 238.31423909 393.58840431 238.29783378 385.87500417 238.27775085 C377.09148513 238.2553792 368.30796334 238.24439523 359.52442288 238.23435998 C341.46057549 238.21346719 323.39678097 238.17829912 305.33297729 238.13371277 C305.35255493 239.87769348 305.35255493 239.87769348 305.37252808 241.65690613 C305.38308485 243.19995422 305.39332186 244.74300451 305.40328979 246.28605652 C305.41271606 247.05026917 305.42214233 247.81448181 305.43185425 248.60185242 C305.47401674 257.31309145 303.78279512 264.42613711 298.21188354 271.30949402 C291.28533156 278.03444158 284.35229274 280.26871005 274.94235229 280.23136902 C274.23773865 280.22995407 273.533125 280.22853912 272.80715942 280.2270813 C270.56572145 280.2215021 268.32438487 280.2089535 266.08297729 280.19621277 C264.55954124 280.19119508 263.03610362 280.18663264 261.51266479 280.18254089 C257.78606958 280.17153951 254.05953334 280.15428923 250.33297729 280.13371277 C250.34185974 280.86398682 250.35074219 281.59426086 250.3598938 282.34666443 C250.4400782 289.23248338 250.50096122 296.11823245 250.54022598 303.00439835 C250.56109142 306.54461348 250.58938855 310.08444251 250.63473511 313.62443542 C250.68655468 317.69527367 250.70593098 321.76570704 250.72360229 325.83683777 C250.74424744 327.10674561 250.76489258 328.37665344 250.78616333 329.68504333 C250.78646545 330.86596558 250.78676758 332.04688782 250.78707886 333.26359558 C250.7959613 334.3028418 250.80484375 335.34208801 250.81399536 336.41282654 C250.20375229 339.86467605 249.09830046 341.0373933 246.33297729 343.13371277 C242.57948268 343.6028996 240.29449276 343.66507658 236.95797729 341.82121277 C233.99254048 338.74172069 234.21049608 335.61770414 234.2194519 331.56071472 C234.21952744 330.41975845 234.21960297 329.27880219 234.21968079 328.10327148 C234.22484207 326.87194992 234.23000336 325.64062836 234.23532104 324.37199402 C234.23744347 322.48059944 234.23744347 322.48059944 234.23960876 320.55099487 C234.24426155 317.20219568 234.25324388 313.85346466 234.26431274 310.50468445 C234.27455042 307.08611144 234.27916625 303.66753118 234.28414917 300.24894714 C234.29433622 293.54383061 234.3139106 286.83883351 234.33297729 280.13371277 C224.43297729 280.13371277 214.53297729 280.13371277 204.33297729 280.13371277 C204.33297729 326.33371277 204.33297729 372.53371277 204.33297729 420.13371277 C214.23297729 420.13371277 224.13297729 420.13371277 234.33297729 420.13371277 C234.29817261 416.43797058 234.26336792 412.74222839 234.22750854 408.93449402 C234.20410963 405.35352857 234.18589488 401.77257165 234.16818237 398.1915741 C234.15309969 395.70357956 234.13263076 393.2156116 234.10665894 390.72770691 C234.07025392 387.15073589 234.05324546 383.57411655 234.04000854 379.99699402 C234.02452469 378.88536392 234.00904083 377.77373383 233.99308777 376.62841797 C233.99286118 375.58771652 233.99263458 374.54701508 233.99240112 373.47477722 C233.98240837 372.10577019 233.98240837 372.10577019 233.97221375 370.70910645 C234.41164078 367.57215534 235.49333433 365.69026706 237.33297729 363.13371277 C240.42471481 361.58784401 242.92727282 361.84011756 246.33297729 362.13371277 C248.98682164 364.16357394 250.18358101 365.34760508 250.81399536 368.66477966 C250.80511292 369.61520142 250.79623047 370.56562317 250.78707886 371.54484558 C250.78662567 373.1660733 250.78662567 373.1660733 250.78616333 374.8200531 C250.76551819 375.98059204 250.74487305 377.14113098 250.72360229 378.33683777 C250.7179425 379.5297644 250.71228271 380.72269104 250.70645142 381.95176697 C250.68405656 385.76282333 250.63385159 389.57294044 250.58297729 393.38371277 C250.56291645 395.96703253 250.54466496 398.55036702 250.52828979 401.13371277 C250.4841814 407.46736671 250.41723707 413.80047264 250.33297729 420.13371277 C251.10003998 420.12483032 251.86710266 420.11594788 252.65740967 420.10679626 C259.92403437 420.02629268 267.19043959 419.96556831 274.45739555 419.92646408 C278.1924852 419.90568353 281.92720309 419.87754354 285.66207886 419.83195496 C289.27366865 419.78815246 292.88490329 419.76450418 296.49673843 419.7542038 C297.86732694 419.74687349 299.23789836 419.73256079 300.60833359 419.71079254 C312.64782373 419.52734642 321.47322021 421.44073482 330.35250854 429.84855652 C337.367854 437.94318589 338.53121576 446.58493983 338.64547729 456.88371277 C338.6744812 457.73965027 338.70348511 458.59558777 338.73336792 459.47746277 C338.80219045 466.46559645 337.41464739 472.69590102 332.64083862 478.02140808 C326.64043859 483.76052808 319.83096888 484.43395949 311.87632751 484.39440918 C311.05111349 484.39823473 310.22589947 484.40206027 309.37567896 484.40600175 C306.62448154 484.41627889 303.87349488 484.4123497 301.12228394 484.40837097 C299.14410714 484.41272035 297.16593202 484.41790425 295.1877594 484.42385864 C289.82415243 484.43723496 284.46061599 484.43782887 279.09699559 484.43529534 C274.61634583 484.4342248 270.13571028 484.43911109 265.65506357 484.44390076 C255.08357931 484.45499103 244.51213058 484.45543592 233.94064331 484.4493866 C223.04053964 484.44334509 212.140565 484.45566346 201.24048334 484.47695667 C191.87553048 484.49457726 182.51061868 484.50057333 173.14564985 484.49731892 C167.55520998 484.49550681 161.96486217 484.49813527 156.37443733 484.51203346 C151.11718239 484.52461472 145.86012854 484.52266477 140.60287666 484.50962257 C138.67599927 484.50725798 136.7491077 484.50998726 134.82224655 484.5182457 C132.18680222 484.5287247 129.55203121 484.52060337 126.91661072 484.50793457 C126.15871673 484.51530886 125.40082275 484.52268314 124.61996228 484.53028089 C116.40336375 484.44749493 110.19671126 481.86108083 104.33297729 476.13371277 C98.09451585 467.313819 99.34120127 454.143384 100.79391479 443.87590027 C103.03197551 435.47659006 108.19400985 429.60882021 115.01266479 424.45793152 C136.75274249 412.05071546 165.93039807 420.13371277 188.33297729 420.13371277 C188.33297729 373.93371277 188.33297729 327.73371277 188.33297729 280.13371277 C177.77297729 280.13371277 167.21297729 280.13371277 156.33297729 280.13371277 C146.32286949 276.12966965 139.81590649 272.92793851 135.33297729 263.13371277 C133.60986435 257.304112 133.07150638 252.19092202 133.20797729 246.13371277 C133.21700073 245.35898621 133.22602417 244.58425964 133.23532104 243.78605652 C133.25858342 241.90180434 133.2944409 240.01771445 133.33297729 238.13371277 C132.58975031 238.13739994 131.84652332 238.14108711 131.08077431 238.14488602 C112.968222 238.23335333 94.85571301 238.29947885 76.74299049 238.34096146 C67.98368173 238.3615571 59.22451749 238.38962011 50.46530151 238.43547058 C42.82775789 238.47543044 35.19031897 238.50116736 27.5526737 238.51006675 C23.51127808 238.51526607 19.47018192 238.5274232 15.4288826 238.556633 C11.61869939 238.58394709 7.80893668 238.59212583 3.99866486 238.58614349 C2.60636733 238.58723663 1.21405454 238.59509511 -0.17815781 238.61053467 C-10.79780222 238.72244859 -20.02915938 237.44246259 -28.06546021 229.97746277 C-34.44213776 222.63650714 -36.81663468 216.05260762 -36.81419373 206.50012207 C-36.81787041 205.72717951 -36.8215471 204.95423696 -36.8253352 204.1578719 C-36.83635592 201.56558361 -36.84021315 198.97333542 -36.84402466 196.38102722 C-36.85029053 194.52314121 -36.85693744 192.66525644 -36.86393738 190.80737305 C-36.88496556 184.70392223 -36.89533865 178.60047119 -36.90530396 172.49699402 C-36.90935198 170.39468561 -36.91346892 168.29237734 -36.91765404 166.1900692 C-36.93670302 156.31278516 -36.95093464 146.43550859 -36.95926601 136.55820972 C-36.96903754 125.16212001 -36.99535617 113.76622458 -37.0357669 102.37020332 C-37.06594086 93.55816367 -37.08073611 84.74617967 -37.08404702 75.93408936 C-37.08639604 70.67272106 -37.09533746 65.41156039 -37.12050819 60.15024757 C-37.14381622 55.19832484 -37.1480111 50.24674604 -37.13774681 45.29478264 C-37.13725201 43.48119588 -37.14355609 41.66759204 -37.15730286 39.85405731 C-37.24707141 27.3053676 -36.29289303 18.34565246 -27.46389771 8.85636902 C-19.42624716 1.15070839 -10.631413 -0.02066001 0 0 Z M149.33297729 238.13371277 C148.52158949 251.1368666 148.52158949 251.1368666 153.33297729 261.13371277 C158.13161028 265.32794695 163.895269 264.55499552 169.91281128 264.52189636 C171.08408569 264.52715332 172.25536011 264.53241028 173.46212769 264.53782654 C177.33457773 264.55103201 181.2066168 264.54228551 185.07907104 264.53215027 C187.77040438 264.53281832 190.46173039 264.53707784 193.15306091 264.54084778 C198.7945399 264.54630192 204.43590098 264.53912356 210.07736206 264.52482605 C216.59112618 264.508508 223.10460844 264.51378309 229.61836571 264.53030527 C235.21853841 264.54393941 240.81862648 264.54583017 246.41881043 264.53798926 C249.76018889 264.53332223 253.101329 264.53384579 256.4427166 264.54259872 C260.16992095 264.55021879 263.89658467 264.53859977 267.62374878 264.52189636 C268.72576126 264.52796906 269.82777374 264.53404175 270.96318054 264.54029846 C276.49901824 264.49434746 280.57196313 264.30263168 285.33297729 261.13371277 C291.29935668 254.94399298 289.33297729 246.05314459 289.33297729 238.13371277 C243.13297729 238.13371277 196.93297729 238.13371277 149.33297729 238.13371277 Z M120.08297729 441.50871277 C116.71489383 446.56083797 116.01826306 450.62543666 115.95797729 456.69621277 C115.92961792 457.99687683 115.90125854 459.29754089 115.87203979 460.63761902 C116.05410517 464.09327174 116.05410517 464.09327174 117.86360168 466.32047272 C121.25463367 468.81047666 124.25569609 468.68942585 128.30392456 468.64164734 C129.11306336 468.6478873 129.92220217 468.65412726 130.75586033 468.66055632 C133.47066335 468.67652771 136.18457366 468.66386613 138.89938354 468.65129089 C140.84420293 468.65671018 142.78901821 468.66383174 144.73382568 468.67253113 C150.01891489 468.69079042 155.30369231 468.68368614 160.58878708 468.67101479 C166.11493532 468.66090064 171.64105654 468.67027605 177.16720581 468.67655945 C186.44809776 468.68384047 195.72886247 468.67423618 205.00973511 468.65519714 C215.74574639 468.63342759 226.48145385 468.64047863 237.21745777 468.66250277 C246.42859152 468.68064377 255.6396337 468.68322144 264.85077953 468.67274809 C270.35507883 468.66650602 275.85923523 468.66569715 281.36352539 468.67889404 C286.53790665 468.69043297 291.7118955 468.68246253 296.88623428 468.65931702 C298.7873685 468.65401946 300.68853563 468.65556151 302.58965683 468.66436768 C305.18089656 468.67526559 307.77087135 468.66162998 310.36203003 468.64164734 C311.11805795 468.65057023 311.87408587 468.65949311 312.65302372 468.66868639 C316.08500001 468.61719271 318.00289101 468.37740694 320.79795837 466.31388092 C324.15687179 461.54325825 322.91335915 454.70889606 322.33297729 449.13371277 C320.81651385 443.69228512 318.12595302 440.20613311 313.33297729 437.13371277 C309.84811643 435.97209248 306.72768758 435.98875414 303.10316467 435.99327087 C301.99086006 435.98881419 301.99086006 435.98881419 300.85608464 435.98426747 C298.36423998 435.97557617 295.87244334 435.97407186 293.38058472 435.97257996 C291.59679562 435.96795209 289.81300752 435.96292748 288.02922058 435.95753479 C283.17791079 435.94440585 278.32661484 435.93796488 273.47529006 435.93352413 C270.44514196 435.93059424 267.41499765 435.9264896 264.38485146 435.92201996 C254.90641808 435.90834381 245.42799337 435.89867769 235.94955081 435.89481807 C225.00397836 435.89033668 214.05853076 435.87278553 203.11299628 435.84381747 C194.65515994 435.82220941 186.19735875 435.81211426 177.7394951 435.81077695 C172.68672121 435.80972831 167.63406466 435.80380788 162.58131981 435.78595734 C157.82808606 435.76949178 153.07505804 435.76731379 148.32180595 435.77609634 C146.57791849 435.77686753 144.83402004 435.77251331 143.09016037 435.76263809 C140.70777523 435.74993899 138.32612096 435.75578395 135.94374084 435.76622009 C135.25511166 435.75816369 134.56648248 435.75010728 133.85698575 435.74180675 C128.08505007 435.8008623 124.06185757 437.30878359 120.08297729 441.50871277 Z " fill="#000000" transform="translate(36.667022705078125,13.866287231445313)"/>
<path d="M0 0 C10.44694889 9.51833121 14.26886241 18.99140377 15 33 C14.56749371 44.04332715 9.44984986 54.75752301 1.3515625 62.24609375 C-9.64534504 70.44810619 -20.6760022 72.14250168 -34 71 C-44.83336221 68.74304954 -53.74234808 62.02868027 -60 53 C-66.19395863 41.84447244 -67.43730241 30.43564438 -64.12890625 18.13671875 C-60.33315053 7.59003418 -53.35299624 -0.27477068 -43.34765625 -5.34375 C-28.59524446 -11.55529181 -12.61175971 -10.25029853 0 0 Z M-41.8125 13.25 C-47.06735529 19.8561038 -50.60795968 25.24279349 -50 34 C-48.54264332 41.74018324 -45.30236542 46.43402128 -39.31640625 51.44140625 C-32.89987484 55.75876887 -26.52712608 55.71165556 -19 55 C-12.25208086 53.24930834 -7.98693732 48.50418847 -4 43 C-0.85982979 37.29059961 -0.4404147 31.22877321 -2 25 C-4.28669404 18.24385853 -8.58484407 13.22409356 -14.6875 9.5625 C-24.22020289 5.06594203 -33.59570329 6.67656263 -41.8125 13.25 Z " fill="#000000" transform="translate(379,100)"/>
<path d="M0 0 C0.99966797 -0.01611328 1.99933594 -0.03222656 3.02929688 -0.04882812 C12.72473857 -0.05512796 21.1125893 1.39548132 28.2421875 8.30859375 C33.31539959 14.30527072 34.68577501 20.54569729 34.37890625 28.31640625 C33.35260496 35.2825398 30.44327489 40.50359195 24.875 44.8125 C22.32659442 46.5484436 19.71495216 47.97635375 16.9375 49.3125 C17.57816406 50.00214844 18.21882813 50.69179687 18.87890625 51.40234375 C21.59168017 54.34960484 24.2743136 57.32050071 26.9375 60.3125 C27.67097656 61.13363281 28.40445313 61.95476562 29.16015625 62.80078125 C32.13460051 66.33713284 33.79274549 68.50977044 34.625 73.125 C33.9375 76.3125 33.9375 76.3125 32.4375 78.75 C29.63022829 80.50454482 27.40192263 81.13208799 24.07421875 80.94140625 C16.84840556 78.81461297 11.55978502 69.54284543 7.11328125 63.92578125 C4.86149081 61.22120709 2.4599102 58.7642297 -0.0625 56.3125 C-0.0718457 56.89741211 -0.08119141 57.48232422 -0.09082031 58.08496094 C-0.14463279 60.7449858 -0.22825449 63.40327222 -0.3125 66.0625 C-0.33376953 67.44308594 -0.33376953 67.44308594 -0.35546875 68.8515625 C-0.60193872 75.65413355 -0.60193872 75.65413355 -2.890625 78.92578125 C-6.0837009 80.96452575 -8.35700724 80.7756866 -12.0625 80.3125 C-14.52375033 79.01710509 -15.73608887 78.25465805 -16.6539917 75.60520935 C-17.17703533 72.66968265 -17.20590009 69.8619231 -17.22363281 66.87915039 C-17.23324036 65.57422134 -17.2428479 64.2692923 -17.25274658 62.92481995 C-17.2575941 61.50326716 -17.26187304 60.08171235 -17.265625 58.66015625 C-17.27138038 57.19811502 -17.27713806 55.7360738 -17.28289795 54.27403259 C-17.2933896 51.21173757 -17.29924464 48.14946866 -17.30273438 45.0871582 C-17.30822328 41.16858779 -17.33226716 37.2503641 -17.36070633 33.3319025 C-17.37935176 30.31297298 -17.38453925 27.29412681 -17.38607025 24.27514458 C-17.38909169 22.83068376 -17.3971031 21.38622424 -17.41025543 19.94182014 C-17.42735809 17.91969839 -17.42358477 15.89743289 -17.41894531 13.87524414 C-17.42259094 12.72592911 -17.42623657 11.57661407 -17.42999268 10.39247131 C-17.01637707 6.92594178 -16.149178 5.08788576 -14.0625 2.3125 C-9.57403191 -0.67981206 -5.28115204 -0.01657612 0 0 Z M-1.0625 16.3125 C-0.7325 22.2525 -0.4025 28.1925 -0.0625 34.3125 C8.65437883 34.45884136 8.65437883 34.45884136 15.9375 31.3125 C18.28299674 27.79425489 18.51741403 26.45474306 17.9375 22.3125 C15.764865 19.73964276 13.95756162 17.82253081 10.9375 16.3125 C8.89694995 16.24184383 6.85415743 16.22828024 4.8125 16.25 C2.87375 16.270625 0.935 16.29125 -1.0625 16.3125 Z " fill="#000000" transform="translate(425.0625,90.6875)"/>
<path d="M0 0 C2.21672659 1.74354072 3.08660307 2.95987166 4.03125 5.59765625 C3.95082234 9.4581838 3.45906397 11.10692846 0.90625 14.03515625 C-2.96096442 16.13690322 -4.75757648 15.75935929 -8.96875 14.59765625 C-10.67850935 13.58446552 -12.38799355 12.57051358 -14.08203125 11.53125 C-17.55507514 9.81270447 -21.12361751 9.38868166 -24.96875 9.59765625 C-28.43971857 10.87019481 -28.43971857 10.87019481 -30.96875 12.59765625 C-30.96875 14.24765625 -30.96875 15.89765625 -30.96875 17.59765625 C-29.42811658 18.30823411 -27.88614506 19.01591039 -26.34375 19.72265625 C-25.34472656 20.1815625 -24.34570312 20.64046875 -23.31640625 21.11328125 C-21.03098732 22.12665254 -18.72459782 23.09368187 -16.40234375 24.01953125 C-7.13556113 27.73824013 0.35996228 31.10438076 4.53125 40.59765625 C6.72050302 47.03892514 6.6776327 52.34633777 4.06640625 58.61328125 C0.0296138 66.3517362 -5.89507407 69.90643094 -13.96875 72.59765625 C-27.36631597 73.5348713 -37.46859632 71.98747361 -48.19140625 63.28125 C-50.70060645 60.90440321 -51.88315213 59.16015652 -52.40625 55.72265625 C-51.96875 52.59765625 -51.96875 52.59765625 -49.84375 49.72265625 C-46.4049649 47.18094553 -45.15071891 47.13530192 -40.96875 47.59765625 C-38.30078125 49.09375 -38.30078125 49.09375 -35.78125 51.03515625 C-29.56698949 55.76028521 -24.66109909 56.21619309 -16.96875 55.59765625 C-13.46414803 54.2659075 -12.43296052 53.57765623 -10.84375 50.22265625 C-10.99299776 47.08845327 -11.94947725 46.01618954 -14.18115234 43.89550781 C-18.7581312 40.57247864 -24.51346681 39.01811005 -29.77734375 37.08007812 C-36.94799947 34.32400977 -42.30138 31.21151237 -46.90625 24.97265625 C-48.92884292 18.54794933 -49.19240658 11.46748997 -46.40625 5.22265625 C-42.38363357 -1.51908069 -37.05133181 -5.01922631 -29.5078125 -6.93359375 C-18.45436517 -8.97423018 -9.4715454 -5.61998342 0 0 Z " fill="#000000" transform="translate(205.96875,97.40234375)"/>
<path d="M0 0 C4.13264879 0.8609685 5.30594247 2.36926103 8 5.625 C9.54302827 8.83041319 10.65434444 12.14495571 11.76953125 15.51953125 C12.25833015 16.94056404 12.25833015 16.94056404 12.75700378 18.39030457 C13.78928634 21.40153886 14.80110638 24.41919356 15.8125 27.4375 C16.51102822 29.48678591 17.2108837 31.53561991 17.91210938 33.58398438 C19.62347901 38.59252472 21.3181248 43.60648364 23 48.625 C23.40839111 47.40917236 23.81678223 46.19334473 24.23754883 44.94067383 C25.75799167 40.41929367 27.28616231 35.90055707 28.81665039 31.38256836 C29.47728301 29.42885145 30.13583334 27.47442913 30.79223633 25.51928711 C31.73749614 22.70497458 32.69027862 19.89330536 33.64453125 17.08203125 C33.9352803 16.21101273 34.22602936 15.3399942 34.52558899 14.44258118 C38.13506397 3.86829069 38.13506397 3.86829069 43 0.625 C46.3675602 0.80540501 48.99113606 0.98605284 51.875 2.8125 C54.01945477 6.26745491 54.20339351 9.65467813 53.38116455 13.57725525 C53.0326947 14.6087117 52.68422485 15.64016815 52.32519531 16.70288086 C51.73898407 18.47017799 51.73898407 18.47017799 51.14093018 20.2731781 C50.70369708 21.54552672 50.26608597 22.81774549 49.828125 24.08984375 C49.38438149 25.4093456 48.941752 26.72922256 48.50018311 28.04945374 C47.5733248 30.81174513 46.63788639 33.57091309 45.6953125 36.32788086 C44.49269642 39.84547706 43.30420187 43.36762053 42.12123489 46.89186764 C40.98627647 50.27185169 39.84530417 53.649794 38.703125 57.02734375 C38.48814613 57.66397383 38.27316727 58.3006039 38.05167389 58.9565258 C32.19827731 76.24920013 32.19827731 76.24920013 29.3125 79.5625 C25.9617895 81.10201563 22.60280938 81.51866561 19 80.625 C15.25330291 77.53516707 13.91398088 74.47675971 12.3046875 69.9453125 C12.05790253 69.25929962 11.81111755 68.57328674 11.55685425 67.8664856 C11.00227475 66.31819765 10.45334883 64.767877 9.90905762 63.21594238 C8.92608198 60.41432321 7.9271221 57.6186976 6.92675781 54.82324219 C5.0249751 49.49356001 3.14932121 44.15510487 1.28417969 38.8125 C0.50463833 36.5848637 -0.27896129 34.35864381 -1.06640625 32.13378906 C-2.21734635 28.88133869 -3.35609436 25.6248491 -4.4921875 22.3671875 C-4.84521942 21.3765329 -5.19825134 20.3858783 -5.5619812 19.36520386 C-8.66721585 10.37879723 -8.66721585 10.37879723 -8 5.625 C-5.54405875 2.30225596 -4.0743356 0.84881992 0 0 Z " fill="#000000" transform="translate(52,90.375)"/>
<path d="M0 0 C0.86890869 -0.00524185 1.73781738 -0.0104837 2.63305664 -0.0158844 C4.46532119 -0.02229157 6.29762694 -0.02098453 8.12988281 -0.01245117 C10.92848046 -0.0039337 13.72504091 -0.03273141 16.5234375 -0.06445312 C18.30729106 -0.06606516 20.09114822 -0.06548756 21.875 -0.0625 C23.12518921 -0.07935097 23.12518921 -0.07935097 24.40063477 -0.09654236 C28.42215913 -0.04844208 30.45528624 0.13138713 33.94140625 2.31616211 C36.31223099 4.83110376 36.9375 5.9786967 36.9375 9.43359375 C34.66039157 15.07214797 34.66039157 15.07214797 31.9375 16.43359375 C29.7302077 16.50452217 27.52082548 16.517744 25.3125 16.49609375 C24.12398438 16.48707031 22.93546875 16.47804688 21.7109375 16.46875 C20.79570312 16.45714844 19.88046875 16.44554688 18.9375 16.43359375 C18.94638245 17.16164719 18.95526489 17.88970062 18.9644165 18.63981628 C19.04465951 25.51060718 19.10551368 32.38132778 19.14474869 39.25246716 C19.16559843 42.78480757 19.19386679 46.31675988 19.23925781 49.84887695 C19.29114825 53.91230942 19.31046666 57.97533603 19.328125 62.0390625 C19.34877014 63.30380905 19.36941528 64.5685556 19.39068604 65.87162781 C19.39098816 67.05247452 19.39129028 68.23332123 19.39160156 69.44995117 C19.40048401 70.48697678 19.40936646 71.52400238 19.41851807 72.592453 C18.81222978 76.17350427 17.43864374 77.8504826 14.9375 80.43359375 C12.9375 81.0625 12.9375 81.0625 10.9375 80.99609375 C10.2775 80.99738281 9.6175 80.99867188 8.9375 81 C6.02235246 80.17442111 4.83936592 78.76895215 2.9375 76.43359375 C2.45648193 73.67474365 2.45648193 73.67474365 2.48339844 70.47167969 C2.48370056 69.27073669 2.48400269 68.0697937 2.48431396 66.8324585 C2.50495911 65.54067688 2.52560425 64.24889526 2.546875 62.91796875 C2.55433929 61.57847946 2.56003134 60.23897923 2.56402588 58.8994751 C2.57926787 55.38107939 2.61853582 51.8633486 2.6628418 48.34521484 C2.70382636 44.75237014 2.7220436 41.15941755 2.7421875 37.56640625 C2.78503255 30.52186409 2.85326554 23.47777243 2.9375 16.43359375 C2.03821777 16.45679687 1.13893555 16.48 0.21240234 16.50390625 C-1.55176025 16.53097656 -1.55176025 16.53097656 -3.3515625 16.55859375 C-4.51896973 16.58179687 -5.68637695 16.605 -6.88916016 16.62890625 C-10.0625 16.43359375 -10.0625 16.43359375 -13.4375 14.43359375 C-15.31920315 10.95968024 -15.40678189 9.12651137 -14.9453125 5.30078125 C-12.17252018 -0.56379719 -5.54244697 -0.01952179 0 0 Z " fill="#000000" transform="translate(278.0625,88.56640625)"/>
<path d="M0 0 C3.19085187 0.94543759 4.47687442 1.36371447 6.375 4 C7.8007636 6.8515272 7.52598562 9.2937907 7.55200195 12.48168945 C7.55857315 13.14694641 7.56514435 13.81220337 7.57191467 14.49761963 C7.59165161 16.70284129 7.60331138 18.90799482 7.61328125 21.11328125 C7.61735678 21.86645315 7.6214323 22.61962505 7.62563133 23.39562035 C7.6464943 27.38247784 7.6607947 31.36930089 7.67016602 35.35620117 C7.68122785 39.47221781 7.71562383 43.58769343 7.75533772 47.70351887 C7.78149687 50.87000018 7.78985721 54.03635249 7.79344749 57.20293236 C7.79831575 58.71997924 7.80993667 60.23702027 7.82848549 61.75396156 C7.8528626 63.87978453 7.85191555 66.0042067 7.8449707 68.13012695 C7.85377007 69.94309013 7.85377007 69.94309013 7.86274719 71.79267883 C7.28055598 75.62104367 6.07797046 77.27856875 3.375 80 C1.375 80.62890625 1.375 80.62890625 -0.625 80.5625 C-1.285 80.56378906 -1.945 80.56507813 -2.625 80.56640625 C-5.57291253 79.73154821 -6.72214537 78.38848462 -8.625 76 C-9.1396637 72.85719299 -9.1396637 72.85719299 -9.15844727 69.10766602 C-9.16706284 68.42260986 -9.17567841 67.73755371 -9.18455505 67.03173828 C-9.2072176 64.77207417 -9.20047623 62.51365011 -9.19140625 60.25390625 C-9.19664211 58.67976005 -9.20291845 57.105617 -9.21018982 55.53147888 C-9.22059473 52.23364491 -9.21603215 48.9362424 -9.20141602 45.63842773 C-9.18423523 41.41683372 -9.20771252 37.19660165 -9.24290562 32.97515965 C-9.26489172 29.72453328 -9.26343523 26.47423213 -9.2551403 23.22355461 C-9.25432129 21.66745447 -9.26117537 20.11133034 -9.27591133 18.55529976 C-9.29337994 16.37659764 -9.27880065 14.20033358 -9.25610352 12.02172852 C-9.25514175 10.78358902 -9.25417999 9.54544952 -9.25318909 8.26979065 C-8.20858439 2.83251271 -5.58119797 0 0 0 Z " fill="#000000" transform="translate(241.625,91)"/>
<path d="M0 0 C2.43185038 2.33456321 2.96722833 3.73753903 3.38768005 7.10484314 C3.39308304 8.32442215 3.39848602 9.54400116 3.40405273 10.80053711 C3.41091599 11.47583969 3.41777924 12.15114227 3.42485046 12.84690857 C3.44311618 15.07393563 3.43928151 17.30025802 3.43359375 19.52734375 C3.43815585 21.07906829 3.44346151 22.6307908 3.44947815 24.18251038 C3.45840888 27.43319918 3.45598689 30.68364232 3.44604492 33.93432617 C3.43455781 38.09520155 3.45476207 42.25522794 3.48396206 46.41599178 C3.50233019 49.62025824 3.5020304 52.82432149 3.49632454 56.0286274 C3.49617138 57.56239576 3.50221109 59.09617795 3.51461601 60.62989616 C3.5295361 62.77715791 3.51884402 64.92285476 3.50170898 67.07006836 C3.50154282 68.29044296 3.50137665 69.51081757 3.50120544 70.76817322 C2.90606344 74.60571304 1.71220975 76.27154178 -1 79 C-3 79.62890625 -3 79.62890625 -5 79.5625 C-5.66 79.56378906 -6.32 79.56507813 -7 79.56640625 C-9.94905451 78.7312248 -11.09803934 77.39083618 -13 75 C-13.50120544 71.85046387 -13.50120544 71.85046387 -13.50170898 68.09179688 C-13.50711197 67.40513443 -13.51251495 66.71847198 -13.51808167 66.01100159 C-13.53056535 63.7464761 -13.51408214 61.483223 -13.49609375 59.21875 C-13.49624875 57.64221124 -13.49773787 56.06567209 -13.50050354 54.48913574 C-13.50188736 51.18708423 -13.48933286 47.88546717 -13.46655273 44.58349609 C-13.43816776 40.35311736 -13.44090545 36.1234604 -13.45364285 31.89302826 C-13.46060137 28.63818203 -13.45280883 25.38350233 -13.44038582 22.12867737 C-13.43587298 20.56898131 -13.43553307 19.00926737 -13.43945122 17.4495697 C-13.44236525 15.26874211 -13.42584904 13.08890542 -13.40405273 10.90820312 C-13.39864975 9.66784302 -13.39324677 8.42748291 -13.38768005 7.14953613 C-12.97034276 3.75906278 -12.41713807 2.37131901 -10 0 C-6.20519658 -1.26493447 -3.87641726 -0.89988258 0 0 Z " fill="#000000" transform="translate(134,92)"/>
<path d="M0 0 C2.875 1.5 2.875 1.5 5 4 C5.66017005 6.80141726 5.60984064 9.19243175 5 12 C3.4375 14.5 3.4375 14.5 1 16 C-2.9491615 16.56416593 -5.0464384 16.65243688 -8.375 14.375 C-10.35842363 11.47615008 -10.85411447 9.5012527 -11 6 C-9.1673868 0.50216039 -5.47691581 -0.6572299 0 0 Z " fill="#000000" transform="translate(62,53)"/>
<path d="M0 0 C0.7734375 -0.00773438 1.546875 -0.01546875 2.34375 -0.0234375 C5.00698365 0.46868176 5.86561587 1.24929794 7.5 3.375 C8.62303133 7.06496009 8.83738847 8.68488722 7.125 12.1875 C5.5 14.375 5.5 14.375 4.5 15.375 C0.51463078 15.85927793 -3.23252113 16.29680281 -6.5625 13.875 C-7.97103902 10.11889595 -7.88272538 7.39361644 -7.5 3.375 C-5.33569304 0.37355545 -3.62161801 -0.03621618 0 0 Z " fill="#000000" transform="translate(452.5,197.625)"/>
<path d="M0 0 C2.62316667 1.91420271 3.74836336 3.36252052 4.9375 6.375 C5.0221688 9.93108969 3.83947665 12.00233435 2 15 C-0.85324437 16.42662219 -2.83454549 16.31033868 -6 16 C-8.875 14.5 -8.875 14.5 -11 12 C-11.71730941 9.1770404 -11.71730941 6.8229596 -11 4 C-7.74010218 0.16482609 -4.95707565 -0.84375756 0 0 Z " fill="#000000" transform="translate(456,53)"/>
<path d="M0 0 C3.0182722 0.05418801 4.04925828 0.22609892 6.6875 1.875 C8.75601618 5.2363388 8.67255011 7.43209911 8.1875 11.3125 C7.25 13.75 7.25 13.75 5.1875 15.3125 C2.12160533 15.81491849 -0.76154237 15.92600778 -3.8125 15.3125 C-6.24193853 13.41621879 -6.77026498 12.45127221 -7.6875 9.4375 C-7.8360372 5.72407001 -6.99726995 4.25353647 -4.8125 1.3125 C-3.8125 0.3125 -3.8125 0.3125 0 0 Z " fill="#000000" transform="translate(58.8125,197.6875)"/>
</svg>
